solid OpenSCAD_Model
  facet normal 0.996195 0 0.0871557
    outer loop
      vertex 8.04144 1 13.5
      vertex 8.04144 -1.5 13.5
      vertex 8.8725 1 4.0009
    endloop
  endfacet
  facet normal 0.996195 0 0.0871557
    outer loop
      vertex 8.8725 9 4.0009
      vertex 8.04144 11.5 13.5
      vertex 8.04144 9 13.5
    endloop
  endfacet
  facet normal 0.996195 -1.27923e-07 0.0871557
    outer loop
      vertex 8.04144 11.5 13.5
      vertex 8.8725 9 4.0009
      vertex 9.22254 11.5 0
    endloop
  endfacet
  facet normal 0.996195 -0 0.0871558
    outer loop
      vertex 8.8725 1 4.0009
      vertex 9.22254 11.5 0
      vertex 8.8725 9 4.0009
    endloop
  endfacet
  facet normal 0.996195 0 0.0871558
    outer loop
      vertex 8.8725 1 4.0009
      vertex 9.22254 -1.5 0
      vertex 9.22254 11.5 0
    endloop
  endfacet
  facet normal 0.996195 1.27923e-07 0.0871557
    outer loop
      vertex 9.22254 -1.5 0
      vertex 8.8725 1 4.0009
      vertex 8.04144 -1.5 13.5
    endloop
  endfacet
  facet normal 0 1 0
    outer loop
      vertex 8.01795 11.5 0
      vertex 8.04144 11.5 13.5
      vertex 9.22254 11.5 0
    endloop
  endfacet
  facet normal 0 1 0
    outer loop
      vertex 8.04144 11.5 13.5
      vertex 8.01795 11.5 0
      vertex 6.83686 11.5 13.5
    endloop
  endfacet
  facet normal -0.467826 -0.882872 -0.0409294
    outer loop
      vertex 3.3 1 0
      vertex 7.85138 -1.5 1.90392
      vertex 3.16927 1 1.49429
    endloop
  endfacet
  facet normal -0.467826 -0.882872 -0.0409294
    outer loop
      vertex 7.85138 -1.5 1.90392
      vertex 3.3 1 0
      vertex 8.01795 -1.5 0
    endloop
  endfacet
  facet normal -0.996195 0 -0.0871557
    outer loop
      vertex 3.3 1 0
      vertex 3.16927 9 1.49429
      vertex 3.3 9 0
    endloop
  endfacet
  facet normal -0.996195 -0 -0.0871557
    outer loop
      vertex 3.16927 9 1.49429
      vertex 3.3 1 0
      vertex 3.16927 1 1.49429
    endloop
  endfacet
  facet normal -0.467826 0.882872 -0.0409295
    outer loop
      vertex 6.83686 11.5 13.5
      vertex 6.55633 10.8085 1.79062
      vertex 5.53189 10.8085 13.5
    endloop
  endfacet
  facet normal -0.467826 0.882872 -0.0409295
    outer loop
      vertex 8.01795 11.5 0
      vertex 6.55633 10.8085 1.79062
      vertex 6.83686 11.5 13.5
    endloop
  endfacet
  facet normal -0.467826 0.882872 -0.0409296
    outer loop
      vertex 3.3 9 0
      vertex 6.55633 10.8085 1.79062
      vertex 8.01795 11.5 0
    endloop
  endfacet
  facet normal -0.467826 0.882872 -0.0409294
    outer loop
      vertex 6.55633 10.8085 1.79062
      vertex 3.3 9 0
      vertex 3.16927 9 1.49429
    endloop
  endfacet
  facet normal 0 -1 0
    outer loop
      vertex 7.85138 -1.5 1.90392
      vertex 8.04144 -1.5 13.5
      vertex 6.83686 -1.5 13.5
    endloop
  endfacet
  facet normal 0 -1 0
    outer loop
      vertex 9.22254 -1.5 0
      vertex 7.85138 -1.5 1.90392
      vertex 8.01795 -1.5 0
    endloop
  endfacet
  facet normal 0 -1 0
    outer loop
      vertex 7.85138 -1.5 1.90392
      vertex 9.22254 -1.5 0
      vertex 8.04144 -1.5 13.5
    endloop
  endfacet
  facet normal -0.996195 8.46864e-08 -0.0871558
    outer loop
      vertex 7.85138 10.3 1.90392
      vertex 7.67707 9 3.89631
      vertex 6.83686 10.3 13.5
    endloop
  endfacet
  facet normal -0.996195 0 -0.0871558
    outer loop
      vertex 7.85138 10.3 1.90392
      vertex 7.67707 1 3.89631
      vertex 7.67707 9 3.89631
    endloop
  endfacet
  facet normal -0.996195 0 -0.0871558
    outer loop
      vertex 7.85138 -1.5 1.90392
      vertex 7.67707 1 3.89631
      vertex 7.85138 10.3 1.90392
    endloop
  endfacet
  facet normal -0.996195 -4.40369e-08 -0.0871558
    outer loop
      vertex 6.83686 -1.5 13.5
      vertex 7.67707 1 3.89631
      vertex 7.85138 -1.5 1.90392
    endloop
  endfacet
  facet normal -0.996195 0 -0.0871558
    outer loop
      vertex 7.67707 1 3.89631
      vertex 6.83686 -1.5 13.5
      vertex 6.83686 1 13.5
    endloop
  endfacet
  facet normal -0.996195 -0 -0.0871558
    outer loop
      vertex 6.83686 10.3 13.5
      vertex 7.67707 9 3.89631
      vertex 6.83686 9 13.5
    endloop
  endfacet
  facet normal -0.0871557 0 0.996195
    outer loop
      vertex 6.55633 10.8085 1.79062
      vertex 4.3647 9 1.59888
      vertex 6.55633 10.3 1.79062
    endloop
  endfacet
  facet normal -0.0871558 6.10213e-08 0.996195
    outer loop
      vertex 4.3647 9 1.59888
      vertex 6.55633 10.8085 1.79062
      vertex 3.16927 9 1.49429
    endloop
  endfacet
  facet normal -0.0871557 -2.10681e-08 0.996195
    outer loop
      vertex 4.3647 9 1.59888
      vertex 7.85138 10.3 1.90392
      vertex 6.55633 10.3 1.79062
    endloop
  endfacet
  facet normal -0.0871557 0 0.996195
    outer loop
      vertex 7.85138 10.3 1.90392
      vertex 4.3647 9 1.59888
      vertex 4.3647 1 1.59888
    endloop
  endfacet
  facet normal -0.0871557 0 0.996195
    outer loop
      vertex 7.85138 10.3 1.90392
      vertex 4.3647 1 1.59888
      vertex 7.85138 -1.5 1.90392
    endloop
  endfacet
  facet normal -0.0871558 -7.67013e-08 0.996195
    outer loop
      vertex 7.85138 -1.5 1.90392
      vertex 4.3647 1 1.59888
      vertex 3.16927 1 1.49429
    endloop
  endfacet
  facet normal 0 -1 0
    outer loop
      vertex 6.55633 10.3 1.79062
      vertex 6.83686 10.3 13.5
      vertex 5.53189 10.3 13.5
    endloop
  endfacet
  facet normal 0 -1 -0
    outer loop
      vertex 6.83686 10.3 13.5
      vertex 6.55633 10.3 1.79062
      vertex 7.85138 10.3 1.90392
    endloop
  endfacet
  facet normal -0.996195 0 -0.0871557
    outer loop
      vertex 6.55633 10.3 1.79062
      vertex 5.53189 10.8085 13.5
      vertex 6.55633 10.8085 1.79062
    endloop
  endfacet
  facet normal -0.996195 -0 -0.0871557
    outer loop
      vertex 5.53189 10.8085 13.5
      vertex 6.55633 10.3 1.79062
      vertex 5.53189 10.3 13.5
    endloop
  endfacet
  facet normal 0 -1 0
    outer loop
      vertex 7.67707 9 3.89631
      vertex 8.04144 9 13.5
      vertex 6.83686 9 13.5
    endloop
  endfacet
  facet normal 0 -1 -0
    outer loop
      vertex 8.04144 9 13.5
      vertex 7.67707 9 3.89631
      vertex 8.8725 9 4.0009
    endloop
  endfacet
  facet normal -0.0871557 0 0.996195
    outer loop
      vertex 7.67707 9 3.89631
      vertex 8.8725 1 4.0009
      vertex 8.8725 9 4.0009
    endloop
  endfacet
  facet normal -0.0871557 0 0.996195
    outer loop
      vertex 8.8725 1 4.0009
      vertex 7.67707 9 3.89631
      vertex 7.67707 1 3.89631
    endloop
  endfacet
  facet normal 0 1 0
    outer loop
      vertex 7.67707 1 3.89631
      vertex 8.04144 1 13.5
      vertex 8.8725 1 4.0009
    endloop
  endfacet
  facet normal 0 1 0
    outer loop
      vertex 8.04144 1 13.5
      vertex 7.67707 1 3.89631
      vertex 6.83686 1 13.5
    endloop
  endfacet
  facet normal -0 0 1
    outer loop
      vertex 5.53189 10.8085 13.5
      vertex 6.83686 10.3 13.5
      vertex 6.83686 11.5 13.5
    endloop
  endfacet
  facet normal 0 0 1
    outer loop
      vertex 6.83686 10.3 13.5
      vertex 5.53189 10.8085 13.5
      vertex 5.53189 10.3 13.5
    endloop
  endfacet
  facet normal 0 0 1
    outer loop
      vertex 6.83686 10.3 13.5
      vertex 8.04144 11.5 13.5
      vertex 6.83686 11.5 13.5
    endloop
  endfacet
  facet normal 0 0 1
    outer loop
      vertex 8.04144 11.5 13.5
      vertex 6.83686 10.3 13.5
      vertex 8.04144 9 13.5
    endloop
  endfacet
  facet normal 0 0 1
    outer loop
      vertex 8.04144 9 13.5
      vertex 6.83686 10.3 13.5
      vertex 6.83686 9 13.5
    endloop
  endfacet
  facet normal -0 0 1
    outer loop
      vertex 6.83686 1 13.5
      vertex 8.04144 -1.5 13.5
      vertex 8.04144 1 13.5
    endloop
  endfacet
  facet normal 0 0 1
    outer loop
      vertex 8.04144 -1.5 13.5
      vertex 6.83686 1 13.5
      vertex 6.83686 -1.5 13.5
    endloop
  endfacet
  facet normal 0 0 -1
    outer loop
      vertex 8.01795 -1.5 0
      vertex 9.22254 11.5 0
      vertex 9.22254 -1.5 0
    endloop
  endfacet
  facet normal 0 0 -1
    outer loop
      vertex 8.01795 -1.5 0
      vertex 8.01795 11.5 0
      vertex 9.22254 11.5 0
    endloop
  endfacet
  facet normal 0 0 -1
    outer loop
      vertex 3.3 1 0
      vertex 8.01795 11.5 0
      vertex 8.01795 -1.5 0
    endloop
  endfacet
  facet normal 0 0 -1
    outer loop
      vertex 8.01795 11.5 0
      vertex 3.3 1 0
      vertex 3.3 9 0
    endloop
  endfacet
  facet normal -1 0 0
    outer loop
      vertex 0 0 9.84853
      vertex 0 10 17.5
      vertex 0 10 9.84853
    endloop
  endfacet
  facet normal -1 -0 0
    outer loop
      vertex 0 10 17.5
      vertex 0 0 9.84853
      vertex 0 0 17.5
    endloop
  endfacet
  facet normal -1 0 0
    outer loop
      vertex 0 0 0
      vertex 0 10 8.15147
      vertex 0 10 0
    endloop
  endfacet
  facet normal -1 -0 0
    outer loop
      vertex 0 10 8.15147
      vertex 0 0 0
      vertex 0 0 8.15147
    endloop
  endfacet
  facet normal 0 0 1
    outer loop
      vertex 1.95 9 17.5
      vertex 3.15 10 17.5
      vertex 1.95 10 17.5
    endloop
  endfacet
  facet normal 0 0 1
    outer loop
      vertex 3.15 10 17.5
      vertex 1.95 9 17.5
      vertex 3.15 0 17.5
    endloop
  endfacet
  facet normal -0 0 1
    outer loop
      vertex 1.95 1 17.5
      vertex 3.15 0 17.5
      vertex 1.95 9 17.5
    endloop
  endfacet
  facet normal 0 0 1
    outer loop
      vertex 3.15 0 17.5
      vertex 1.95 1 17.5
      vertex 1.95 0 17.5
    endloop
  endfacet
  facet normal -0 0 1
    outer loop
      vertex 0 10 17.5
      vertex 1.95 9 17.5
      vertex 1.95 10 17.5
    endloop
  endfacet
  facet normal 0 0 1
    outer loop
      vertex 1.95 9 17.5
      vertex 0 10 17.5
      vertex 1.95 1 17.5
    endloop
  endfacet
  facet normal 0 0 1
    outer loop
      vertex 0 0 17.5
      vertex 1.95 1 17.5
      vertex 0 10 17.5
    endloop
  endfacet
  facet normal 0 0 1
    outer loop
      vertex 1.95 1 17.5
      vertex 0 0 17.5
      vertex 1.95 0 17.5
    endloop
  endfacet
  facet normal 1 -0 0
    outer loop
      vertex 1.95 0 17.5
      vertex 1.95 1 16.3
      vertex 1.95 1 17.5
    endloop
  endfacet
  facet normal 1 0 0
    outer loop
      vertex 1.95 1 16.3
      vertex 1.95 0 17.5
      vertex 1.95 0 16.3
    endloop
  endfacet
  facet normal 1 -0 0
    outer loop
      vertex 1.95 9 17.5
      vertex 1.95 10 16.3
      vertex 1.95 10 17.5
    endloop
  endfacet
  facet normal 1 0 0
    outer loop
      vertex 1.95 10 16.3
      vertex 1.95 9 17.5
      vertex 1.95 9 16.3
    endloop
  endfacet
  facet normal 0 1 0
    outer loop
      vertex 0.848528 10 9
      vertex 1.2 10 11.4
      vertex 1.55 10 11.4
    endloop
  endfacet
  facet normal 0 1 0
    outer loop
      vertex 1.2 10 11.4
      vertex 0.848528 10 9
      vertex 0 10 9.84853
    endloop
  endfacet
  facet normal 0 1 -0
    outer loop
      vertex 1.55 10 0
      vertex 0.848528 10 9
      vertex 1.55 10 11.4
    endloop
  endfacet
  facet normal 0 1 0
    outer loop
      vertex 1.55 10 0
      vertex 0 10 8.15147
      vertex 0.848528 10 9
    endloop
  endfacet
  facet normal 0 1 0
    outer loop
      vertex 0 10 8.15147
      vertex 1.55 10 0
      vertex 0 10 0
    endloop
  endfacet
  facet normal 0 1 0
    outer loop
      vertex 1.2 10 16.3
      vertex 1.95 10 17.5
      vertex 1.95 10 16.3
    endloop
  endfacet
  facet normal 0 1 0
    outer loop
      vertex 1.95 10 17.5
      vertex 1.2 10 16.3
      vertex 0 10 17.5
    endloop
  endfacet
  facet normal 0 1 -0
    outer loop
      vertex 1.2 10 11.4
      vertex 0 10 17.5
      vertex 1.2 10 16.3
    endloop
  endfacet
  facet normal 0 1 0
    outer loop
      vertex 0 10 17.5
      vertex 1.2 10 11.4
      vertex 0 10 9.84853
    endloop
  endfacet
  facet normal 0 0 -1
    outer loop
      vertex 0 0 0
      vertex 1.55 10 0
      vertex 1.55 0 0
    endloop
  endfacet
  facet normal -0 0 -1
    outer loop
      vertex 1.55 10 0
      vertex 0 0 0
      vertex 0 10 0
    endloop
  endfacet
  facet normal 0 -1 0
    outer loop
      vertex 0 0 17.5
      vertex 1.2 0 16.3
      vertex 1.95 0 17.5
    endloop
  endfacet
  facet normal 0 -1 0
    outer loop
      vertex 0 0 17.5
      vertex 1.2 0 11.4
      vertex 1.2 0 16.3
    endloop
  endfacet
  facet normal 0 -1 0
    outer loop
      vertex 0 0 9.84853
      vertex 1.2 0 11.4
      vertex 0 0 17.5
    endloop
  endfacet
  facet normal 0 -1 0
    outer loop
      vertex 0.848528 0 9
      vertex 1.2 0 11.4
      vertex 0 0 9.84853
    endloop
  endfacet
  facet normal 0 -1 -0
    outer loop
      vertex 1.2 0 11.4
      vertex 0.848528 0 9
      vertex 1.55 0 11.4
    endloop
  endfacet
  facet normal 0 -1 0
    outer loop
      vertex 1.55 0 0
      vertex 0 0 8.15147
      vertex 0 0 0
    endloop
  endfacet
  facet normal 0 -1 0
    outer loop
      vertex 0 0 8.15147
      vertex 1.55 0 0
      vertex 0.848528 0 9
    endloop
  endfacet
  facet normal 0 -1 0
    outer loop
      vertex 0.848528 0 9
      vertex 1.55 0 0
      vertex 1.55 0 11.4
    endloop
  endfacet
  facet normal 0 -1 -0
    outer loop
      vertex 1.95 0 17.5
      vertex 1.2 0 16.3
      vertex 1.95 0 16.3
    endloop
  endfacet
  facet normal 1 -0 0
    outer loop
      vertex 1.2 0 16.3
      vertex 1.2 10 11.4
      vertex 1.2 10 16.3
    endloop
  endfacet
  facet normal 1 0 0
    outer loop
      vertex 1.2 10 11.4
      vertex 1.2 0 16.3
      vertex 1.2 0 11.4
    endloop
  endfacet
  facet normal 0 0 -1
    outer loop
      vertex 1.95 0 16.3
      vertex 1.87394 1 16.3
      vertex 1.95 1 16.3
    endloop
  endfacet
  facet normal -0 0 -1
    outer loop
      vertex 1.87394 1 16.3
      vertex 1.2 0 16.3
      vertex 1.87394 9 16.3
    endloop
  endfacet
  facet normal 0 0 -1
    outer loop
      vertex 1.2 0 16.3
      vertex 1.87394 1 16.3
      vertex 1.95 0 16.3
    endloop
  endfacet
  facet normal 0 0 -1
    outer loop
      vertex 1.87394 9 16.3
      vertex 1.95 10 16.3
      vertex 1.95 9 16.3
    endloop
  endfacet
  facet normal 0 0 -1
    outer loop
      vertex 1.87394 9 16.3
      vertex 1.2 10 16.3
      vertex 1.95 10 16.3
    endloop
  endfacet
  facet normal 0 0 -1
    outer loop
      vertex 1.2 10 16.3
      vertex 1.87394 9 16.3
      vertex 1.2 0 16.3
    endloop
  endfacet
  facet normal -0 0 1
    outer loop
      vertex 1.2 10 11.4
      vertex 1.55 0 11.4
      vertex 1.55 10 11.4
    endloop
  endfacet
  facet normal 0 0 1
    outer loop
      vertex 1.55 0 11.4
      vertex 1.2 10 11.4
      vertex 1.2 0 11.4
    endloop
  endfacet
  facet normal 1 -0 0
    outer loop
      vertex 1.55 0 11.4
      vertex 1.55 10 0
      vertex 1.55 10 11.4
    endloop
  endfacet
  facet normal 1 0 0
    outer loop
      vertex 1.55 10 0
      vertex 1.55 0 11.4
      vertex 1.55 0 0
    endloop
  endfacet
  facet normal -1 0 0
    outer loop
      vertex 1.95 10 10.2
      vertex 1.95 9 15.4306
      vertex 1.95 10 17.5
    endloop
  endfacet
  facet normal -1 0 0
    outer loop
      vertex 1.95 10 10.2
      vertex 1.95 1 15.4306
      vertex 1.95 9 15.4306
    endloop
  endfacet
  facet normal -1 0 0
    outer loop
      vertex 1.95 0 10.2
      vertex 1.95 1 15.4306
      vertex 1.95 10 10.2
    endloop
  endfacet
  facet normal -1 0 0
    outer loop
      vertex 1.95 0 17.5
      vertex 1.95 1 15.4306
      vertex 1.95 0 10.2
    endloop
  endfacet
  facet normal -1 0 0
    outer loop
      vertex 1.95 1 15.4306
      vertex 1.95 0 17.5
      vertex 1.95 1 17.5
    endloop
  endfacet
  facet normal -1 -0 0
    outer loop
      vertex 1.95 10 17.5
      vertex 1.95 9 15.4306
      vertex 1.95 9 17.5
    endloop
  endfacet
  facet normal 1 0 0
    outer loop
      vertex 3.15 10 17.5
      vertex 3.15 9 15.483
      vertex 3.15 10 10.2
    endloop
  endfacet
  facet normal 1 0 0
    outer loop
      vertex 3.15 10 17.5
      vertex 3.15 1 15.483
      vertex 3.15 9 15.483
    endloop
  endfacet
  facet normal 1 -0 0
    outer loop
      vertex 3.15 0 17.5
      vertex 3.15 1 15.483
      vertex 3.15 10 17.5
    endloop
  endfacet
  facet normal 1 0 0
    outer loop
      vertex 3.15 0 10.2
      vertex 3.15 1 15.483
      vertex 3.15 0 17.5
    endloop
  endfacet
  facet normal 1 0 0
    outer loop
      vertex 3.15 1 15.483
      vertex 3.15 0 10.2
      vertex 3.15 1 9.2
    endloop
  endfacet
  facet normal 1 0 0
    outer loop
      vertex 3.15 10 10.2
      vertex 3.15 9 15.483
      vertex 3.15 9 9.2
    endloop
  endfacet
  facet normal 0 -1 0
    outer loop
      vertex 1.95 0 10.2
      vertex 3.15 0 17.5
      vertex 1.95 0 17.5
    endloop
  endfacet
  facet normal 0 -1 0
    outer loop
      vertex 3.15 0 10.2
      vertex 3.15 0 17.5
      vertex 1.95 0 10.2
    endloop
  endfacet
  facet normal 0 1 0
    outer loop
      vertex 3.15 10 17.5
      vertex 3.15 10 10.2
      vertex 1.95 10 17.5
    endloop
  endfacet
  facet normal 0 1 0
    outer loop
      vertex 1.95 10 17.5
      vertex 3.15 10 10.2
      vertex 1.95 10 10.2
    endloop
  endfacet
  facet normal -0.707107 3.38183e-07 -0.707107
    outer loop
      vertex 2.95 1 9.2
      vertex 1.95 0 10.2
      vertex 2.45149 1 9.69851
    endloop
  endfacet
  facet normal -0.707107 -3.38183e-07 -0.707107
    outer loop
      vertex 2.45149 9 9.69851
      vertex 1.95 10 10.2
      vertex 2.95 9 9.2
    endloop
  endfacet
  facet normal -0.707107 0 -0.707107
    outer loop
      vertex 2.45149 1 9.69851
      vertex 1.95 10 10.2
      vertex 2.45149 9 9.69851
    endloop
  endfacet
  facet normal -0.707107 -0 -0.707107
    outer loop
      vertex 1.95 10 10.2
      vertex 2.45149 1 9.69851
      vertex 1.95 0 10.2
    endloop
  endfacet
  facet normal 0 -0.707107 -0.707107
    outer loop
      vertex 2.95 1 9.2
      vertex 3.15 0 10.2
      vertex 1.95 0 10.2
    endloop
  endfacet
  facet normal 0 -0.707107 -0.707107
    outer loop
      vertex 3.15 0 10.2
      vertex 2.95 1 9.2
      vertex 3.15 1 9.2
    endloop
  endfacet
  facet normal 0 0.707106 -0.707107
    outer loop
      vertex 2.95 9 9.2
      vertex 3.15 10 10.2
      vertex 3.15 9 9.2
    endloop
  endfacet
  facet normal 0 0.707106 -0.707107
    outer loop
      vertex 3.15 10 10.2
      vertex 2.95 9 9.2
      vertex 1.95 10 10.2
    endloop
  endfacet
  facet normal 0 -1 -0
    outer loop
      vertex 1.95 1 17.5
      vertex 1.95 1 16.3
      vertex 1.95 1 15.4306
    endloop
  endfacet
  facet normal 0 -1 0
    outer loop
      vertex 1.87394 1 16.3
      vertex 1.95 1 15.4306
      vertex 1.95 1 16.3
    endloop
  endfacet
  facet normal 0 -1 0
    outer loop
      vertex 3.16927 1 1.49429
      vertex 3.15 1 9.2
      vertex 2.95 1 9.2
    endloop
  endfacet
  facet normal 0 -1 0
    outer loop
      vertex 3.16927 1 1.49429
      vertex 2.95 1 9.2
      vertex 2.45149 1 9.69851
    endloop
  endfacet
  facet normal 0 -1 0
    outer loop
      vertex 3.15 1 9.2
      vertex 3.16927 1 1.49429
      vertex 4.3647 1 1.59888
    endloop
  endfacet
  facet normal 0 -1 0
    outer loop
      vertex 3.15 1 15.483
      vertex 3.15 1 9.2
      vertex 4.3647 1 1.59888
    endloop
  endfacet
  facet normal 0 1 0
    outer loop
      vertex 1.95 9 16.3
      vertex 1.95 9 15.4306
      vertex 1.87394 9 16.3
    endloop
  endfacet
  facet normal 0 1 -0
    outer loop
      vertex 1.95 9 15.4306
      vertex 1.95 9 16.3
      vertex 1.95 9 17.5
    endloop
  endfacet
  facet normal 0 1 -0
    outer loop
      vertex 3.16927 9 1.49429
      vertex 3.15 9 9.2
      vertex 4.3647 9 1.59888
    endloop
  endfacet
  facet normal 0 1 0
    outer loop
      vertex 4.3647 9 1.59888
      vertex 3.15 9 9.2
      vertex 3.15 9 15.483
    endloop
  endfacet
  facet normal 0 1 0
    outer loop
      vertex 3.15 9 9.2
      vertex 3.16927 9 1.49429
      vertex 2.95 9 9.2
    endloop
  endfacet
  facet normal 0 1 0
    outer loop
      vertex 2.95 9 9.2
      vertex 3.16927 9 1.49429
      vertex 2.45149 9 9.69851
    endloop
  endfacet
  facet normal -0.996195 0 -0.0871558
    outer loop
      vertex 1.95 1 15.4306
      vertex 1.87394 9 16.3
      vertex 1.95 9 15.4306
    endloop
  endfacet
  facet normal -0.996195 -0 -0.0871558
    outer loop
      vertex 1.87394 9 16.3
      vertex 1.95 1 15.4306
      vertex 1.87394 1 16.3
    endloop
  endfacet
  facet normal -0.996195 0 -0.0871557
    outer loop
      vertex 3.16927 1 1.49429
      vertex 2.45149 9 9.69851
      vertex 3.16927 9 1.49429
    endloop
  endfacet
  facet normal -0.996195 -0 -0.0871557
    outer loop
      vertex 2.45149 9 9.69851
      vertex 3.16927 1 1.49429
      vertex 2.45149 1 9.69851
    endloop
  endfacet
  facet normal 0.996195 -0 0.0871557
    outer loop
      vertex 3.15 1 15.483
      vertex 4.3647 9 1.59888
      vertex 3.15 9 15.483
    endloop
  endfacet
  facet normal 0.996195 0 0.0871557
    outer loop
      vertex 4.3647 9 1.59888
      vertex 3.15 1 15.483
      vertex 4.3647 1 1.59888
    endloop
  endfacet
  facet normal -0.707107 0 -0.707107
    outer loop
      vertex 0.848528 0 9
      vertex 0 10 9.84853
      vertex 0.848528 10 9
    endloop
  endfacet
  facet normal -0.707107 -0 -0.707107
    outer loop
      vertex 0 10 9.84853
      vertex 0.848528 0 9
      vertex 0 0 9.84853
    endloop
  endfacet
  facet normal -0.707107 0 0.707106
    outer loop
      vertex 0 0 8.15147
      vertex 0.848528 10 9
      vertex 0 10 8.15147
    endloop
  endfacet
  facet normal -0.707107 0 0.707106
    outer loop
      vertex 0.848528 10 9
      vertex 0 0 8.15147
      vertex 0.848528 0 9
    endloop
  endfacet
endsolid OpenSCAD_Model
