solid OpenSCAD_Model
  facet normal 0.984808 0 0.173648
    outer loop
      vertex 16.9921 0 12
      vertex 16.9921 -3 12
      vertex 18.1991 0 5.15477
    endloop
  endfacet
  facet normal 0.984808 0 0.173648
    outer loop
      vertex 18.1991 8 5.15477
      vertex 16.9921 11 12
      vertex 16.9921 8 12
    endloop
  endfacet
  facet normal 0.984808 4.64058e-07 0.173648
    outer loop
      vertex 16.9921 11 12
      vertex 18.1991 8 5.15477
      vertex 18.8937 11 1.21554
    endloop
  endfacet
  facet normal 0.984808 -0 0.173648
    outer loop
      vertex 18.1991 0 5.15477
      vertex 18.8937 11 1.21554
      vertex 18.1991 8 5.15477
    endloop
  endfacet
  facet normal 0.984808 0 0.173648
    outer loop
      vertex 18.1991 0 5.15477
      vertex 18.8937 -3 1.21554
      vertex 18.8937 11 1.21554
    endloop
  endfacet
  facet normal 0.984808 -4.64058e-07 0.173648
    outer loop
      vertex 18.8937 -3 1.21554
      vertex 18.1991 0 5.15477
      vertex 16.9921 -3 12
    endloop
  endfacet
  facet normal 0.173648 0 -0.984808
    outer loop
      vertex 12.0224 -3 0.00395716
      vertex 18.8937 11 1.21554
      vertex 18.8937 -3 1.21554
    endloop
  endfacet
  facet normal 0.173648 0 -0.984808
    outer loop
      vertex 18.8937 11 1.21554
      vertex 12.0224 -3 0.00395716
      vertex 12.0224 11 0.00395716
    endloop
  endfacet
  facet normal 0 -1 0
    outer loop
      vertex 8.38408 -3 12
      vertex 11.6751 -3 1.97357
      vertex 9.90722 -3 12
    endloop
  endfacet
  facet normal 0 -1 -0
    outer loop
      vertex 17.0691 -3 2.92468
      vertex 12.0224 -3 0.00395716
      vertex 18.8937 -3 1.21554
    endloop
  endfacet
  facet normal 0 -1 0
    outer loop
      vertex 10.5 -3 0
      vertex 11.6751 -3 1.97357
      vertex 8.38408 -3 12
    endloop
  endfacet
  facet normal 0 -1 -0
    outer loop
      vertex 11.6751 -3 1.97357
      vertex 10.5 -3 0
      vertex 12.0224 -3 0.00395716
    endloop
  endfacet
  facet normal 0 -1 -0
    outer loop
      vertex 12.0224 -3 0.00395716
      vertex 10.5 -3 0
      vertex 12.0231 -3 0
    endloop
  endfacet
  facet normal 0 -1 0
    outer loop
      vertex 17.0691 -3 2.92468
      vertex 16.9921 -3 12
      vertex 15.4689 -3 12
    endloop
  endfacet
  facet normal 0 -1 0
    outer loop
      vertex 17.0691 -3 2.92468
      vertex 18.8937 -3 1.21554
      vertex 16.9921 -3 12
    endloop
  endfacet
  facet normal 0 -1 0
    outer loop
      vertex 12.0224 -3 0.00395716
      vertex 17.0691 -3 2.92468
      vertex 11.6751 -3 1.97357
    endloop
  endfacet
  facet normal 0 1 0
    outer loop
      vertex 16.9921 11 12
      vertex 16.0843 11 2.75103
      vertex 14.4535 11 12
    endloop
  endfacet
  facet normal 0 1 0
    outer loop
      vertex 12.0224 11 0.00395716
      vertex 16.0843 11 2.75103
      vertex 18.8937 11 1.21554
    endloop
  endfacet
  facet normal 0 1 0
    outer loop
      vertex 18.8937 11 1.21554
      vertex 16.0843 11 2.75103
      vertex 16.9921 11 12
    endloop
  endfacet
  facet normal 0 1 0
    outer loop
      vertex 11.6751 11 1.97357
      vertex 8.38408 11 12
      vertex 9.90722 11 12
    endloop
  endfacet
  facet normal 0 1 0
    outer loop
      vertex 16.0843 11 2.75103
      vertex 12.0224 11 0.00395716
      vertex 11.6751 11 1.97357
    endloop
  endfacet
  facet normal 0 1 0
    outer loop
      vertex 10.5 11 0
      vertex 11.6751 11 1.97357
      vertex 12.0224 11 0.00395716
    endloop
  endfacet
  facet normal 0 1 0
    outer loop
      vertex 10.5 11 0
      vertex 12.0224 11 0.00395716
      vertex 12.0231 11 0
    endloop
  endfacet
  facet normal 0 1 0
    outer loop
      vertex 11.6751 11 1.97357
      vertex 10.5 11 0
      vertex 8.38408 11 12
    endloop
  endfacet
  facet normal -0.984808 7.25419e-07 -0.173648
    outer loop
      vertex 17.0691 9.5 2.92468
      vertex 16.7218 8 4.8943
      vertex 15.4689 9.5 12
    endloop
  endfacet
  facet normal -0.984808 0 -0.173649
    outer loop
      vertex 17.0691 9.5 2.92468
      vertex 16.7218 0 4.8943
      vertex 16.7218 8 4.8943
    endloop
  endfacet
  facet normal -0.984808 0 -0.173649
    outer loop
      vertex 17.0691 -3 2.92468
      vertex 16.7218 0 4.8943
      vertex 17.0691 9.5 2.92468
    endloop
  endfacet
  facet normal -0.984808 -3.6271e-07 -0.173648
    outer loop
      vertex 15.4689 -3 12
      vertex 16.7218 0 4.8943
      vertex 17.0691 -3 2.92468
    endloop
  endfacet
  facet normal -0.984808 0 -0.173648
    outer loop
      vertex 16.7218 0 4.8943
      vertex 15.4689 -3 12
      vertex 15.4689 0 12
    endloop
  endfacet
  facet normal -0.984808 -0 -0.173648
    outer loop
      vertex 15.4689 9.5 12
      vertex 16.7218 8 4.8943
      vertex 15.4689 8 12
    endloop
  endfacet
  facet normal -0.173648 0 0.984808
    outer loop
      vertex 16.0843 11 2.75103
      vertex 11.6751 11 1.97357
      vertex 16.0843 9.5 2.75103
    endloop
  endfacet
  facet normal -0.173648 0 0.984808
    outer loop
      vertex 16.0843 9.5 2.75103
      vertex 17.0691 -3 2.92468
      vertex 17.0691 9.5 2.92468
    endloop
  endfacet
  facet normal -0.173648 0 0.984808
    outer loop
      vertex 11.6751 -3 1.97357
      vertex 16.0843 9.5 2.75103
      vertex 11.6751 11 1.97357
    endloop
  endfacet
  facet normal -0.173648 -6.86611e-09 0.984808
    outer loop
      vertex 16.0843 9.5 2.75103
      vertex 11.6751 -3 1.97357
      vertex 17.0691 -3 2.92468
    endloop
  endfacet
  facet normal 0 -1 0
    outer loop
      vertex 16.7218 8 4.8943
      vertex 16.9921 8 12
      vertex 15.4689 8 12
    endloop
  endfacet
  facet normal 0 -1 -0
    outer loop
      vertex 16.9921 8 12
      vertex 16.7218 8 4.8943
      vertex 18.1991 8 5.15477
    endloop
  endfacet
  facet normal -0.173648 0 0.984808
    outer loop
      vertex 16.7218 8 4.8943
      vertex 18.1991 0 5.15477
      vertex 18.1991 8 5.15477
    endloop
  endfacet
  facet normal -0.173648 0 0.984808
    outer loop
      vertex 18.1991 0 5.15477
      vertex 16.7218 8 4.8943
      vertex 16.7218 0 4.8943
    endloop
  endfacet
  facet normal 0 1 0
    outer loop
      vertex 16.7218 0 4.8943
      vertex 16.9921 0 12
      vertex 18.1991 0 5.15477
    endloop
  endfacet
  facet normal 0 1 0
    outer loop
      vertex 16.9921 0 12
      vertex 16.7218 0 4.8943
      vertex 15.4689 0 12
    endloop
  endfacet
  facet normal -0.984808 0 -0.173648
    outer loop
      vertex 16.0843 9.5 2.75103
      vertex 14.4535 11 12
      vertex 16.0843 11 2.75103
    endloop
  endfacet
  facet normal -0.984808 -0 -0.173648
    outer loop
      vertex 14.4535 11 12
      vertex 16.0843 9.5 2.75103
      vertex 14.4535 9.5 12
    endloop
  endfacet
  facet normal 0 -1 0
    outer loop
      vertex 16.0843 9.5 2.75103
      vertex 15.4689 9.5 12
      vertex 14.4535 9.5 12
    endloop
  endfacet
  facet normal 0 -1 0
    outer loop
      vertex 15.4689 9.5 12
      vertex 16.0843 9.5 2.75103
      vertex 17.0691 9.5 2.92468
    endloop
  endfacet
  facet normal 0 0 1
    outer loop
      vertex 16.9921 11 12
      vertex 15.4689 9.5 12
      vertex 16.9921 8 12
    endloop
  endfacet
  facet normal -0 0 1
    outer loop
      vertex 14.4535 11 12
      vertex 15.4689 9.5 12
      vertex 16.9921 11 12
    endloop
  endfacet
  facet normal 0 0 1
    outer loop
      vertex 15.4689 9.5 12
      vertex 14.4535 11 12
      vertex 14.4535 9.5 12
    endloop
  endfacet
  facet normal 0 0 1
    outer loop
      vertex 16.9921 8 12
      vertex 15.4689 9.5 12
      vertex 15.4689 8 12
    endloop
  endfacet
  facet normal -0 0 1
    outer loop
      vertex 15.4689 0 12
      vertex 16.9921 -3 12
      vertex 16.9921 0 12
    endloop
  endfacet
  facet normal 0 0 1
    outer loop
      vertex 16.9921 -3 12
      vertex 15.4689 0 12
      vertex 15.4689 -3 12
    endloop
  endfacet
  facet normal -1 0 0
    outer loop
      vertex 0 0 0
      vertex 0 8 12
      vertex 0 8 0
    endloop
  endfacet
  facet normal -1 -0 0
    outer loop
      vertex 0 8 12
      vertex 0 0 0
      vertex 0 0 12
    endloop
  endfacet
  facet normal 0 0 1
    outer loop
      vertex 9.90722 11 12
      vertex 9 8 12
      vertex 9.90722 -3 12
    endloop
  endfacet
  facet normal 0 0 1
    outer loop
      vertex 9.90722 11 12
      vertex 8.99803 8.06279 12
      vertex 9 8 12
    endloop
  endfacet
  facet normal 0 0 1
    outer loop
      vertex 9.90722 11 12
      vertex 8.99211 8.12533 12
      vertex 8.99803 8.06279 12
    endloop
  endfacet
  facet normal 0 0 1
    outer loop
      vertex 9.90722 11 12
      vertex 8.98229 8.18738 12
      vertex 8.99211 8.12533 12
    endloop
  endfacet
  facet normal 0 0 1
    outer loop
      vertex 9.90722 11 12
      vertex 8.96858 8.24869 12
      vertex 8.98229 8.18738 12
    endloop
  endfacet
  facet normal 0 0 1
    outer loop
      vertex 9.90722 11 12
      vertex 8.95106 8.30902 12
      vertex 8.96858 8.24869 12
    endloop
  endfacet
  facet normal 0 0 1
    outer loop
      vertex 9.90722 11 12
      vertex 8.92978 8.36812 12
      vertex 8.95106 8.30902 12
    endloop
  endfacet
  facet normal 0 0 1
    outer loop
      vertex 9.90722 11 12
      vertex 8.90483 8.42578 12
      vertex 8.92978 8.36812 12
    endloop
  endfacet
  facet normal 0 0 1
    outer loop
      vertex 9.90722 11 12
      vertex 8.87631 8.48175 12
      vertex 8.90483 8.42578 12
    endloop
  endfacet
  facet normal 0 0 1
    outer loop
      vertex 9.90722 11 12
      vertex 8.84433 8.53583 12
      vertex 8.87631 8.48175 12
    endloop
  endfacet
  facet normal 0 0 1
    outer loop
      vertex 9.90722 11 12
      vertex 8.80902 8.58778 12
      vertex 8.84433 8.53583 12
    endloop
  endfacet
  facet normal 0 0 1
    outer loop
      vertex 9.90722 11 12
      vertex 8.77051 8.63742 12
      vertex 8.80902 8.58778 12
    endloop
  endfacet
  facet normal 0 0 1
    outer loop
      vertex 9.90722 11 12
      vertex 8.72897 8.68455 12
      vertex 8.77051 8.63742 12
    endloop
  endfacet
  facet normal 0 0 1
    outer loop
      vertex 9.90722 11 12
      vertex 8.68455 8.72897 12
      vertex 8.72897 8.68455 12
    endloop
  endfacet
  facet normal 0 0 1
    outer loop
      vertex 9.90722 11 12
      vertex 8.63742 8.77051 12
      vertex 8.68455 8.72897 12
    endloop
  endfacet
  facet normal 0 0 1
    outer loop
      vertex 9.90722 11 12
      vertex 8.58778 8.80902 12
      vertex 8.63742 8.77051 12
    endloop
  endfacet
  facet normal 0 0 1
    outer loop
      vertex 9.90722 11 12
      vertex 8.53583 8.84433 12
      vertex 8.58778 8.80902 12
    endloop
  endfacet
  facet normal 0 0 1
    outer loop
      vertex 9.90722 11 12
      vertex 8.48175 8.87631 12
      vertex 8.53583 8.84433 12
    endloop
  endfacet
  facet normal -0 0 1
    outer loop
      vertex 8.38408 11 12
      vertex 8.48175 8.87631 12
      vertex 9.90722 11 12
    endloop
  endfacet
  facet normal 0 0 1
    outer loop
      vertex 8.48175 8.87631 12
      vertex 8.38408 11 12
      vertex 8.42578 8.90483 12
    endloop
  endfacet
  facet normal 0 0 1
    outer loop
      vertex 8.38408 11 12
      vertex 8.36812 8.92978 12
      vertex 8.42578 8.90483 12
    endloop
  endfacet
  facet normal 0 0 1
    outer loop
      vertex 8.38408 11 12
      vertex 8.30902 8.95106 12
      vertex 8.36812 8.92978 12
    endloop
  endfacet
  facet normal 0 0 1
    outer loop
      vertex 8.38408 11 12
      vertex 8.24869 8.96858 12
      vertex 8.30902 8.95106 12
    endloop
  endfacet
  facet normal 0 0 1
    outer loop
      vertex 8.38408 11 12
      vertex 8.18738 8.98229 12
      vertex 8.24869 8.96858 12
    endloop
  endfacet
  facet normal 0 0 1
    outer loop
      vertex 8.38408 11 12
      vertex 8.12533 8.99211 12
      vertex 8.18738 8.98229 12
    endloop
  endfacet
  facet normal 0 0 1
    outer loop
      vertex 8.38408 11 12
      vertex 8.06279 8.99803 12
      vertex 8.12533 8.99211 12
    endloop
  endfacet
  facet normal 0 0 1
    outer loop
      vertex 8.38408 11 12
      vertex 8 9 12
      vertex 8.06279 8.99803 12
    endloop
  endfacet
  facet normal 0 0 1
    outer loop
      vertex 8.38408 11 12
      vertex 7.93721 8.99803 12
      vertex 8 9 12
    endloop
  endfacet
  facet normal 0 0 1
    outer loop
      vertex 8.38408 11 12
      vertex 7.87467 8.99211 12
      vertex 7.93721 8.99803 12
    endloop
  endfacet
  facet normal 0 0 1
    outer loop
      vertex 8.38408 11 12
      vertex 7.81262 8.98229 12
      vertex 7.87467 8.99211 12
    endloop
  endfacet
  facet normal 0 0 1
    outer loop
      vertex 8.38408 11 12
      vertex 7.75131 8.96858 12
      vertex 7.81262 8.98229 12
    endloop
  endfacet
  facet normal 0 0 1
    outer loop
      vertex 8.38408 11 12
      vertex 7.69098 8.95106 12
      vertex 7.75131 8.96858 12
    endloop
  endfacet
  facet normal 0 0 1
    outer loop
      vertex 8.38408 11 12
      vertex 7.63188 8.92978 12
      vertex 7.69098 8.95106 12
    endloop
  endfacet
  facet normal 0 0 1
    outer loop
      vertex 8.38408 11 12
      vertex 7.57422 8.90483 12
      vertex 7.63188 8.92978 12
    endloop
  endfacet
  facet normal 0 0 1
    outer loop
      vertex 2.5 8 12
      vertex 7.57422 8.90483 12
      vertex 8.38408 11 12
    endloop
  endfacet
  facet normal 0 0 1
    outer loop
      vertex 7.57422 8.90483 12
      vertex 2.5 8 12
      vertex 4.57422 7.40483 12
    endloop
  endfacet
  facet normal 0 0 1
    outer loop
      vertex 4.57422 7.40483 12
      vertex 2.5 8 12
      vertex 4.51825 7.37631 12
    endloop
  endfacet
  facet normal 0 0 1
    outer loop
      vertex 4.51825 7.37631 12
      vertex 2.5 8 12
      vertex 4.46417 7.34433 12
    endloop
  endfacet
  facet normal 0 0 1
    outer loop
      vertex 4.46417 7.34433 12
      vertex 2.5 8 12
      vertex 4.41221 7.30902 12
    endloop
  endfacet
  facet normal 0 0 1
    outer loop
      vertex 4.41221 7.30902 12
      vertex 2.5 8 12
      vertex 4.36258 7.27051 12
    endloop
  endfacet
  facet normal -0 0 1
    outer loop
      vertex 0 8 12
      vertex 4 6.5 12
      vertex 2.5 8 12
    endloop
  endfacet
  facet normal 0 0 1
    outer loop
      vertex 4.00197 6.56279 12
      vertex 2.5 8 12
      vertex 4 6.5 12
    endloop
  endfacet
  facet normal 0 0 1
    outer loop
      vertex 4.00788 6.62533 12
      vertex 2.5 8 12
      vertex 4.00197 6.56279 12
    endloop
  endfacet
  facet normal 0 0 1
    outer loop
      vertex 4.01771 6.68738 12
      vertex 2.5 8 12
      vertex 4.00788 6.62533 12
    endloop
  endfacet
  facet normal 0 0 1
    outer loop
      vertex 4.03142 6.74869 12
      vertex 2.5 8 12
      vertex 4.01771 6.68738 12
    endloop
  endfacet
  facet normal 0 0 1
    outer loop
      vertex 4.04894 6.80902 12
      vertex 2.5 8 12
      vertex 4.03142 6.74869 12
    endloop
  endfacet
  facet normal 0 0 1
    outer loop
      vertex 4.07022 6.86812 12
      vertex 2.5 8 12
      vertex 4.04894 6.80902 12
    endloop
  endfacet
  facet normal 0 0 1
    outer loop
      vertex 4.09517 6.92578 12
      vertex 2.5 8 12
      vertex 4.07022 6.86812 12
    endloop
  endfacet
  facet normal 0 0 1
    outer loop
      vertex 4.12369 6.98175 12
      vertex 2.5 8 12
      vertex 4.09517 6.92578 12
    endloop
  endfacet
  facet normal 0 0 1
    outer loop
      vertex 4.15567 7.03583 12
      vertex 2.5 8 12
      vertex 4.12369 6.98175 12
    endloop
  endfacet
  facet normal 0 0 1
    outer loop
      vertex 4.19098 7.08778 12
      vertex 2.5 8 12
      vertex 4.15567 7.03583 12
    endloop
  endfacet
  facet normal 0 0 1
    outer loop
      vertex 4.22949 7.13742 12
      vertex 2.5 8 12
      vertex 4.19098 7.08778 12
    endloop
  endfacet
  facet normal 0 0 1
    outer loop
      vertex 4.27103 7.18455 12
      vertex 2.5 8 12
      vertex 4.22949 7.13742 12
    endloop
  endfacet
  facet normal 0 0 1
    outer loop
      vertex 4.31545 7.22897 12
      vertex 2.5 8 12
      vertex 4.27103 7.18455 12
    endloop
  endfacet
  facet normal 0 0 1
    outer loop
      vertex 4.36258 7.27051 12
      vertex 2.5 8 12
      vertex 4.31545 7.22897 12
    endloop
  endfacet
  facet normal -0 0 1
    outer loop
      vertex 9 0 12
      vertex 9.90722 -3 12
      vertex 9 8 12
    endloop
  endfacet
  facet normal -0 0 1
    outer loop
      vertex 8.99803 -0.0627899 12
      vertex 9.90722 -3 12
      vertex 9 0 12
    endloop
  endfacet
  facet normal -0 0 1
    outer loop
      vertex 8.99211 -0.125333 12
      vertex 9.90722 -3 12
      vertex 8.99803 -0.0627899 12
    endloop
  endfacet
  facet normal -0 0 1
    outer loop
      vertex 8.98229 -0.187381 12
      vertex 9.90722 -3 12
      vertex 8.99211 -0.125333 12
    endloop
  endfacet
  facet normal -0 0 1
    outer loop
      vertex 8.96858 -0.24869 12
      vertex 9.90722 -3 12
      vertex 8.98229 -0.187381 12
    endloop
  endfacet
  facet normal -0 0 1
    outer loop
      vertex 8.95106 -0.309016 12
      vertex 9.90722 -3 12
      vertex 8.96858 -0.24869 12
    endloop
  endfacet
  facet normal -0 0 1
    outer loop
      vertex 8.92978 -0.368124 12
      vertex 9.90722 -3 12
      vertex 8.95106 -0.309016 12
    endloop
  endfacet
  facet normal -0 0 1
    outer loop
      vertex 8.90483 -0.425778 12
      vertex 9.90722 -3 12
      vertex 8.92978 -0.368124 12
    endloop
  endfacet
  facet normal -0 0 1
    outer loop
      vertex 8.87631 -0.481753 12
      vertex 9.90722 -3 12
      vertex 8.90483 -0.425778 12
    endloop
  endfacet
  facet normal -0 0 1
    outer loop
      vertex 8.84433 -0.535827 12
      vertex 9.90722 -3 12
      vertex 8.87631 -0.481753 12
    endloop
  endfacet
  facet normal -0 0 1
    outer loop
      vertex 8.80902 -0.587785 12
      vertex 9.90722 -3 12
      vertex 8.84433 -0.535827 12
    endloop
  endfacet
  facet normal -0 0 1
    outer loop
      vertex 8.77051 -0.637424 12
      vertex 9.90722 -3 12
      vertex 8.80902 -0.587785 12
    endloop
  endfacet
  facet normal -0 0 1
    outer loop
      vertex 8.72897 -0.684546 12
      vertex 9.90722 -3 12
      vertex 8.77051 -0.637424 12
    endloop
  endfacet
  facet normal -0 0 1
    outer loop
      vertex 8.68455 -0.728969 12
      vertex 9.90722 -3 12
      vertex 8.72897 -0.684546 12
    endloop
  endfacet
  facet normal -0 0 1
    outer loop
      vertex 8.63742 -0.770513 12
      vertex 9.90722 -3 12
      vertex 8.68455 -0.728969 12
    endloop
  endfacet
  facet normal -0 0 1
    outer loop
      vertex 8.58778 -0.809016 12
      vertex 9.90722 -3 12
      vertex 8.63742 -0.770513 12
    endloop
  endfacet
  facet normal -0 0 1
    outer loop
      vertex 8.53583 -0.844327 12
      vertex 9.90722 -3 12
      vertex 8.58778 -0.809016 12
    endloop
  endfacet
  facet normal -0 0 1
    outer loop
      vertex 8.48175 -0.876307 12
      vertex 9.90722 -3 12
      vertex 8.53583 -0.844327 12
    endloop
  endfacet
  facet normal 0 0 1
    outer loop
      vertex 8.38408 -3 12
      vertex 8.48175 -0.876307 12
      vertex 8.42578 -0.904826 12
    endloop
  endfacet
  facet normal 0 0 1
    outer loop
      vertex 8.48175 -0.876307 12
      vertex 8.38408 -3 12
      vertex 9.90722 -3 12
    endloop
  endfacet
  facet normal -0 0 1
    outer loop
      vertex 8.36812 -0.929776 12
      vertex 8.38408 -3 12
      vertex 8.42578 -0.904826 12
    endloop
  endfacet
  facet normal -0 0 1
    outer loop
      vertex 8.30902 -0.951056 12
      vertex 8.38408 -3 12
      vertex 8.36812 -0.929776 12
    endloop
  endfacet
  facet normal -0 0 1
    outer loop
      vertex 8.24869 -0.968583 12
      vertex 8.38408 -3 12
      vertex 8.30902 -0.951056 12
    endloop
  endfacet
  facet normal -0 0 1
    outer loop
      vertex 8.18738 -0.982286 12
      vertex 8.38408 -3 12
      vertex 8.24869 -0.968583 12
    endloop
  endfacet
  facet normal -0 0 1
    outer loop
      vertex 8.12533 -0.992114 12
      vertex 8.38408 -3 12
      vertex 8.18738 -0.982286 12
    endloop
  endfacet
  facet normal -0 0 1
    outer loop
      vertex 8.06279 -0.998026 12
      vertex 8.38408 -3 12
      vertex 8.12533 -0.992114 12
    endloop
  endfacet
  facet normal -0 0 1
    outer loop
      vertex 8 -1 12
      vertex 8.38408 -3 12
      vertex 8.06279 -0.998026 12
    endloop
  endfacet
  facet normal 0 0 1
    outer loop
      vertex 7.93721 -0.998026 12
      vertex 8.38408 -3 12
      vertex 8 -1 12
    endloop
  endfacet
  facet normal 0 0 1
    outer loop
      vertex 7.87467 -0.992114 12
      vertex 8.38408 -3 12
      vertex 7.93721 -0.998026 12
    endloop
  endfacet
  facet normal 0 0 1
    outer loop
      vertex 7.81262 -0.982286 12
      vertex 8.38408 -3 12
      vertex 7.87467 -0.992114 12
    endloop
  endfacet
  facet normal 0 0 1
    outer loop
      vertex 7.75131 -0.968583 12
      vertex 8.38408 -3 12
      vertex 7.81262 -0.982286 12
    endloop
  endfacet
  facet normal 0 0 1
    outer loop
      vertex 7.69098 -0.951056 12
      vertex 8.38408 -3 12
      vertex 7.75131 -0.968583 12
    endloop
  endfacet
  facet normal 0 0 1
    outer loop
      vertex 7.63188 -0.929776 12
      vertex 8.38408 -3 12
      vertex 7.69098 -0.951056 12
    endloop
  endfacet
  facet normal 0 0 1
    outer loop
      vertex 7.57422 -0.904826 12
      vertex 8.38408 -3 12
      vertex 7.63188 -0.929776 12
    endloop
  endfacet
  facet normal -0 0 1
    outer loop
      vertex 2.5 0 12
      vertex 7.57422 -0.904826 12
      vertex 4.57422 0.595173 12
    endloop
  endfacet
  facet normal 0 0 1
    outer loop
      vertex 2.5 0 12
      vertex 4.57422 0.595173 12
      vertex 4.51825 0.623693 12
    endloop
  endfacet
  facet normal 0 0 1
    outer loop
      vertex 2.5 0 12
      vertex 4.51825 0.623693 12
      vertex 4.46417 0.655672 12
    endloop
  endfacet
  facet normal 0 0 1
    outer loop
      vertex 2.5 0 12
      vertex 4.46417 0.655672 12
      vertex 4.41221 0.690983 12
    endloop
  endfacet
  facet normal 0 0 1
    outer loop
      vertex 2.5 0 12
      vertex 4.41221 0.690983 12
      vertex 4.36258 0.729486 12
    endloop
  endfacet
  facet normal 0 0 1
    outer loop
      vertex 2.5 0 12
      vertex 4.36258 0.729486 12
      vertex 4.31545 0.77103 12
    endloop
  endfacet
  facet normal 0 0 1
    outer loop
      vertex 4 6.5 12
      vertex 0 8 12
      vertex 4 1.5 12
    endloop
  endfacet
  facet normal 0 0 1
    outer loop
      vertex 0 0 12
      vertex 4 1.5 12
      vertex 0 8 12
    endloop
  endfacet
  facet normal 0 -0 1
    outer loop
      vertex 2.5 0 12
      vertex 4 1.5 12
      vertex 0 0 12
    endloop
  endfacet
  facet normal 0 0 1
    outer loop
      vertex 4 1.5 12
      vertex 2.5 0 12
      vertex 4.00197 1.43721 12
    endloop
  endfacet
  facet normal 0 0 1
    outer loop
      vertex 7.57422 -0.904826 12
      vertex 2.5 0 12
      vertex 8.38408 -3 12
    endloop
  endfacet
  facet normal 0 0 1
    outer loop
      vertex 4.27103 0.815453 12
      vertex 2.5 0 12
      vertex 4.31545 0.77103 12
    endloop
  endfacet
  facet normal 0 0 1
    outer loop
      vertex 4.22949 0.862576 12
      vertex 2.5 0 12
      vertex 4.27103 0.815453 12
    endloop
  endfacet
  facet normal 0 0 1
    outer loop
      vertex 4.19098 0.912214 12
      vertex 2.5 0 12
      vertex 4.22949 0.862576 12
    endloop
  endfacet
  facet normal 0 0 1
    outer loop
      vertex 4.15567 0.964172 12
      vertex 2.5 0 12
      vertex 4.19098 0.912214 12
    endloop
  endfacet
  facet normal 0 0 1
    outer loop
      vertex 4.12369 1.01825 12
      vertex 2.5 0 12
      vertex 4.15567 0.964172 12
    endloop
  endfacet
  facet normal 0 0 1
    outer loop
      vertex 4.09517 1.07422 12
      vertex 2.5 0 12
      vertex 4.12369 1.01825 12
    endloop
  endfacet
  facet normal 0 0 1
    outer loop
      vertex 4.07022 1.13188 12
      vertex 2.5 0 12
      vertex 4.09517 1.07422 12
    endloop
  endfacet
  facet normal 0 0 1
    outer loop
      vertex 4.04894 1.19098 12
      vertex 2.5 0 12
      vertex 4.07022 1.13188 12
    endloop
  endfacet
  facet normal 0 0 1
    outer loop
      vertex 4.03142 1.25131 12
      vertex 2.5 0 12
      vertex 4.04894 1.19098 12
    endloop
  endfacet
  facet normal 0 0 1
    outer loop
      vertex 4.00197 1.43721 12
      vertex 2.5 0 12
      vertex 4.00788 1.37467 12
    endloop
  endfacet
  facet normal 0 0 1
    outer loop
      vertex 4.00788 1.37467 12
      vertex 2.5 0 12
      vertex 4.01771 1.31262 12
    endloop
  endfacet
  facet normal 0 0 1
    outer loop
      vertex 4.01771 1.31262 12
      vertex 2.5 0 12
      vertex 4.03142 1.25131 12
    endloop
  endfacet
  facet normal -1 0 0
    outer loop
      vertex 2.5 0 0
      vertex 2.5 8 10.5
      vertex 2.5 8 0
    endloop
  endfacet
  facet normal -1 -0 0
    outer loop
      vertex 2.5 8 10.5
      vertex 2.5 0 0
      vertex 2.5 0 10.5
    endloop
  endfacet
  facet normal 0 1 0
    outer loop
      vertex 2 8 5.9
      vertex 2 8 0
      vertex 1.5 8 5.9
    endloop
  endfacet
  facet normal 0 1 0
    outer loop
      vertex 1.5 8 10.5
      vertex 2.5 8 12
      vertex 2.5 8 10.5
    endloop
  endfacet
  facet normal 0 1 0
    outer loop
      vertex 2.5 8 12
      vertex 1.5 8 10.5
      vertex 0 8 12
    endloop
  endfacet
  facet normal 0 1 -0
    outer loop
      vertex 1.5 8 5.9
      vertex 0 8 12
      vertex 1.5 8 10.5
    endloop
  endfacet
  facet normal 0 1 0
    outer loop
      vertex 0 8 0
      vertex 1.5 8 5.9
      vertex 2 8 0
    endloop
  endfacet
  facet normal 0 1 0
    outer loop
      vertex 1.5 8 5.9
      vertex 0 8 0
      vertex 0 8 12
    endloop
  endfacet
  facet normal 0 0 -1
    outer loop
      vertex 0 0 0
      vertex 2 8 0
      vertex 2 0 0
    endloop
  endfacet
  facet normal -0 0 -1
    outer loop
      vertex 2 8 0
      vertex 0 0 0
      vertex 0 8 0
    endloop
  endfacet
  facet normal 0 -1 0
    outer loop
      vertex 0 0 12
      vertex 1.5 0 10.5
      vertex 2.5 0 12
    endloop
  endfacet
  facet normal 0 -1 0
    outer loop
      vertex 0 0 12
      vertex 1.5 0 5.9
      vertex 1.5 0 10.5
    endloop
  endfacet
  facet normal 0 -1 0
    outer loop
      vertex 0 0 0
      vertex 1.5 0 5.9
      vertex 0 0 12
    endloop
  endfacet
  facet normal 0 -1 0
    outer loop
      vertex 2 0 0
      vertex 1.5 0 5.9
      vertex 0 0 0
    endloop
  endfacet
  facet normal 0 -1 0
    outer loop
      vertex 1.5 0 5.9
      vertex 2 0 0
      vertex 2 0 5.9
    endloop
  endfacet
  facet normal 0 -1 -0
    outer loop
      vertex 2.5 0 12
      vertex 1.5 0 10.5
      vertex 2.5 0 10.5
    endloop
  endfacet
  facet normal 1 -0 0
    outer loop
      vertex 1.5 0 10.5
      vertex 1.5 8 5.9
      vertex 1.5 8 10.5
    endloop
  endfacet
  facet normal 1 0 0
    outer loop
      vertex 1.5 8 5.9
      vertex 1.5 0 10.5
      vertex 1.5 0 5.9
    endloop
  endfacet
  facet normal 0 0 -1
    outer loop
      vertex 1.5 0 10.5
      vertex 2.5 8 10.5
      vertex 2.5 0 10.5
    endloop
  endfacet
  facet normal -0 0 -1
    outer loop
      vertex 2.5 8 10.5
      vertex 1.5 0 10.5
      vertex 1.5 8 10.5
    endloop
  endfacet
  facet normal -0 0 1
    outer loop
      vertex 1.5 8 5.9
      vertex 2 0 5.9
      vertex 2 8 5.9
    endloop
  endfacet
  facet normal 0 0 1
    outer loop
      vertex 2 0 5.9
      vertex 1.5 8 5.9
      vertex 1.5 0 5.9
    endloop
  endfacet
  facet normal 1 -0 0
    outer loop
      vertex 2 0 5.9
      vertex 2 8 0
      vertex 2 8 5.9
    endloop
  endfacet
  facet normal 1 0 0
    outer loop
      vertex 2 8 0
      vertex 2 0 5.9
      vertex 2 0 0
    endloop
  endfacet
  facet normal -0.45422 -0.890889 0
    outer loop
      vertex 2.5 0 10.5
      vertex 8.38408 -3 12
      vertex 2.5 0 12
    endloop
  endfacet
  facet normal -0.45422 -0.890889 0
    outer loop
      vertex 8.38408 -3 12
      vertex 2.5 0 10.5
      vertex 2.5 0 0
    endloop
  endfacet
  facet normal -0.45422 0.890889 0
    outer loop
      vertex 8.38408 11 12
      vertex 2.5 8 10.5
      vertex 2.5 8 12
    endloop
  endfacet
  facet normal -0.45422 0.890889 0
    outer loop
      vertex 2.5 8 10.5
      vertex 8.38408 11 12
      vertex 2.5 8 0
    endloop
  endfacet
  facet normal 0 0 -1
    outer loop
      vertex 8.96858 -0.24869 0
      vertex 12.0231 -3 0
      vertex 10.5 -3 0
    endloop
  endfacet
  facet normal 0 0 -1
    outer loop
      vertex 12.0231 -3 0
      vertex 9 0 0
      vertex 12.0231 11 0
    endloop
  endfacet
  facet normal 0 0 -1
    outer loop
      vertex 9 8 0
      vertex 12.0231 11 0
      vertex 9 0 0
    endloop
  endfacet
  facet normal 0 0 -1
    outer loop
      vertex 12.0231 -3 0
      vertex 8.99803 -0.0627899 0
      vertex 9 0 0
    endloop
  endfacet
  facet normal 0 0 -1
    outer loop
      vertex 12.0231 -3 0
      vertex 8.99211 -0.125333 0
      vertex 8.99803 -0.0627899 0
    endloop
  endfacet
  facet normal 0 0 -1
    outer loop
      vertex 12.0231 -3 0
      vertex 8.98229 -0.187381 0
      vertex 8.99211 -0.125333 0
    endloop
  endfacet
  facet normal 0 0 -1
    outer loop
      vertex 12.0231 -3 0
      vertex 8.96858 -0.24869 0
      vertex 8.98229 -0.187381 0
    endloop
  endfacet
  facet normal 0 0 -1
    outer loop
      vertex 10.5 -3 0
      vertex 8.95106 -0.309016 0
      vertex 8.96858 -0.24869 0
    endloop
  endfacet
  facet normal 0 0 -1
    outer loop
      vertex 10.5 -3 0
      vertex 8.92978 -0.368124 0
      vertex 8.95106 -0.309016 0
    endloop
  endfacet
  facet normal 0 0 -1
    outer loop
      vertex 10.5 -3 0
      vertex 8.90483 -0.425778 0
      vertex 8.92978 -0.368124 0
    endloop
  endfacet
  facet normal 0 0 -1
    outer loop
      vertex 10.5 -3 0
      vertex 8.87631 -0.481753 0
      vertex 8.90483 -0.425778 0
    endloop
  endfacet
  facet normal 0 0 -1
    outer loop
      vertex 10.5 -3 0
      vertex 8.84433 -0.535827 0
      vertex 8.87631 -0.481753 0
    endloop
  endfacet
  facet normal 0 0 -1
    outer loop
      vertex 10.5 -3 0
      vertex 8.80902 -0.587785 0
      vertex 8.84433 -0.535827 0
    endloop
  endfacet
  facet normal 0 0 -1
    outer loop
      vertex 10.5 -3 0
      vertex 8.77051 -0.637424 0
      vertex 8.80902 -0.587785 0
    endloop
  endfacet
  facet normal 0 0 -1
    outer loop
      vertex 10.5 -3 0
      vertex 8.72897 -0.684546 0
      vertex 8.77051 -0.637424 0
    endloop
  endfacet
  facet normal 0 0 -1
    outer loop
      vertex 10.5 -3 0
      vertex 8.68455 -0.728969 0
      vertex 8.72897 -0.684546 0
    endloop
  endfacet
  facet normal 0 0 -1
    outer loop
      vertex 10.5 -3 0
      vertex 8.63742 -0.770513 0
      vertex 8.68455 -0.728969 0
    endloop
  endfacet
  facet normal 0 0 -1
    outer loop
      vertex 10.5 -3 0
      vertex 8.58778 -0.809016 0
      vertex 8.63742 -0.770513 0
    endloop
  endfacet
  facet normal 0 0 -1
    outer loop
      vertex 10.5 -3 0
      vertex 8.53583 -0.844327 0
      vertex 8.58778 -0.809016 0
    endloop
  endfacet
  facet normal 0 0 -1
    outer loop
      vertex 10.5 -3 0
      vertex 8.48175 -0.876307 0
      vertex 8.53583 -0.844327 0
    endloop
  endfacet
  facet normal 0 0 -1
    outer loop
      vertex 10.5 -3 0
      vertex 8.42578 -0.904826 0
      vertex 8.48175 -0.876307 0
    endloop
  endfacet
  facet normal 0 0 -1
    outer loop
      vertex 10.5 -3 0
      vertex 8.36812 -0.929776 0
      vertex 8.42578 -0.904826 0
    endloop
  endfacet
  facet normal 0 0 -1
    outer loop
      vertex 10.5 -3 0
      vertex 8.30902 -0.951056 0
      vertex 8.36812 -0.929776 0
    endloop
  endfacet
  facet normal 0 0 -1
    outer loop
      vertex 10.5 -3 0
      vertex 8.24869 -0.968583 0
      vertex 8.30902 -0.951056 0
    endloop
  endfacet
  facet normal 0 0 -1
    outer loop
      vertex 10.5 -3 0
      vertex 8.18738 -0.982286 0
      vertex 8.24869 -0.968583 0
    endloop
  endfacet
  facet normal 0 0 -1
    outer loop
      vertex 10.5 -3 0
      vertex 8.12533 -0.992114 0
      vertex 8.18738 -0.982286 0
    endloop
  endfacet
  facet normal 0 0 -1
    outer loop
      vertex 10.5 -3 0
      vertex 8.06279 -0.998026 0
      vertex 8.12533 -0.992114 0
    endloop
  endfacet
  facet normal 0 0 -1
    outer loop
      vertex 10.5 -3 0
      vertex 8 -1 0
      vertex 8.06279 -0.998026 0
    endloop
  endfacet
  facet normal 0 0 -1
    outer loop
      vertex 10.5 -3 0
      vertex 7.93721 -0.998026 0
      vertex 8 -1 0
    endloop
  endfacet
  facet normal 0 0 -1
    outer loop
      vertex 10.5 -3 0
      vertex 7.87467 -0.992114 0
      vertex 7.93721 -0.998026 0
    endloop
  endfacet
  facet normal 0 0 -1
    outer loop
      vertex 10.5 -3 0
      vertex 7.81262 -0.982286 0
      vertex 7.87467 -0.992114 0
    endloop
  endfacet
  facet normal 0 0 -1
    outer loop
      vertex 10.5 -3 0
      vertex 7.75131 -0.968583 0
      vertex 7.81262 -0.982286 0
    endloop
  endfacet
  facet normal 0 0 -1
    outer loop
      vertex 10.5 -3 0
      vertex 7.69098 -0.951056 0
      vertex 7.75131 -0.968583 0
    endloop
  endfacet
  facet normal 0 0 -1
    outer loop
      vertex 10.5 -3 0
      vertex 7.63188 -0.929776 0
      vertex 7.69098 -0.951056 0
    endloop
  endfacet
  facet normal 0 0 -1
    outer loop
      vertex 10.5 -3 0
      vertex 7.57422 -0.904826 0
      vertex 7.63188 -0.929776 0
    endloop
  endfacet
  facet normal 0 0 -1
    outer loop
      vertex 2.5 0 0
      vertex 7.57422 -0.904826 0
      vertex 10.5 -3 0
    endloop
  endfacet
  facet normal 0 0 -1
    outer loop
      vertex 7.57422 -0.904826 0
      vertex 2.5 0 0
      vertex 4.57422 0.595173 0
    endloop
  endfacet
  facet normal -0 0 -1
    outer loop
      vertex 4.57422 0.595173 0
      vertex 2.5 0 0
      vertex 4.51825 0.623693 0
    endloop
  endfacet
  facet normal -0 0 -1
    outer loop
      vertex 4 1.5 0
      vertex 2.5 0 0
      vertex 4 6.5 0
    endloop
  endfacet
  facet normal -0 0 -1
    outer loop
      vertex 4.00197 1.43721 0
      vertex 2.5 0 0
      vertex 4 1.5 0
    endloop
  endfacet
  facet normal -0 0 -1
    outer loop
      vertex 4.00788 1.37467 0
      vertex 2.5 0 0
      vertex 4.00197 1.43721 0
    endloop
  endfacet
  facet normal -0 0 -1
    outer loop
      vertex 4.01771 1.31262 0
      vertex 2.5 0 0
      vertex 4.00788 1.37467 0
    endloop
  endfacet
  facet normal -0 0 -1
    outer loop
      vertex 4.03142 1.25131 0
      vertex 2.5 0 0
      vertex 4.01771 1.31262 0
    endloop
  endfacet
  facet normal -0 0 -1
    outer loop
      vertex 4.04894 1.19098 0
      vertex 2.5 0 0
      vertex 4.03142 1.25131 0
    endloop
  endfacet
  facet normal -0 0 -1
    outer loop
      vertex 4.07022 1.13188 0
      vertex 2.5 0 0
      vertex 4.04894 1.19098 0
    endloop
  endfacet
  facet normal -0 0 -1
    outer loop
      vertex 4.09517 1.07422 0
      vertex 2.5 0 0
      vertex 4.07022 1.13188 0
    endloop
  endfacet
  facet normal -0 0 -1
    outer loop
      vertex 4.12369 1.01825 0
      vertex 2.5 0 0
      vertex 4.09517 1.07422 0
    endloop
  endfacet
  facet normal -0 0 -1
    outer loop
      vertex 4.15567 0.964172 0
      vertex 2.5 0 0
      vertex 4.12369 1.01825 0
    endloop
  endfacet
  facet normal -0 0 -1
    outer loop
      vertex 4.19098 0.912214 0
      vertex 2.5 0 0
      vertex 4.15567 0.964172 0
    endloop
  endfacet
  facet normal -0 0 -1
    outer loop
      vertex 4.22949 0.862576 0
      vertex 2.5 0 0
      vertex 4.19098 0.912214 0
    endloop
  endfacet
  facet normal -0 0 -1
    outer loop
      vertex 4.27103 0.815453 0
      vertex 2.5 0 0
      vertex 4.22949 0.862576 0
    endloop
  endfacet
  facet normal -0 0 -1
    outer loop
      vertex 4.31545 0.77103 0
      vertex 2.5 0 0
      vertex 4.27103 0.815453 0
    endloop
  endfacet
  facet normal -0 0 -1
    outer loop
      vertex 4.36258 0.729486 0
      vertex 2.5 0 0
      vertex 4.31545 0.77103 0
    endloop
  endfacet
  facet normal -0 0 -1
    outer loop
      vertex 4.41221 0.690983 0
      vertex 2.5 0 0
      vertex 4.36258 0.729486 0
    endloop
  endfacet
  facet normal -0 0 -1
    outer loop
      vertex 4.46417 0.655672 0
      vertex 2.5 0 0
      vertex 4.41221 0.690983 0
    endloop
  endfacet
  facet normal -0 0 -1
    outer loop
      vertex 4.51825 0.623693 0
      vertex 2.5 0 0
      vertex 4.46417 0.655672 0
    endloop
  endfacet
  facet normal 0 0 -1
    outer loop
      vertex 8.99803 8.06279 0
      vertex 12.0231 11 0
      vertex 9 8 0
    endloop
  endfacet
  facet normal 0 0 -1
    outer loop
      vertex 8.99211 8.12533 0
      vertex 12.0231 11 0
      vertex 8.99803 8.06279 0
    endloop
  endfacet
  facet normal 0 0 -1
    outer loop
      vertex 8.98229 8.18738 0
      vertex 12.0231 11 0
      vertex 8.99211 8.12533 0
    endloop
  endfacet
  facet normal 0 0 -1
    outer loop
      vertex 8.96858 8.24869 0
      vertex 12.0231 11 0
      vertex 8.98229 8.18738 0
    endloop
  endfacet
  facet normal -0 0 -1
    outer loop
      vertex 12.0231 11 0
      vertex 8.96858 8.24869 0
      vertex 10.5 11 0
    endloop
  endfacet
  facet normal 0 0 -1
    outer loop
      vertex 8.95106 8.30902 0
      vertex 10.5 11 0
      vertex 8.96858 8.24869 0
    endloop
  endfacet
  facet normal 0 0 -1
    outer loop
      vertex 8.92978 8.36812 0
      vertex 10.5 11 0
      vertex 8.95106 8.30902 0
    endloop
  endfacet
  facet normal 0 0 -1
    outer loop
      vertex 8.90483 8.42578 0
      vertex 10.5 11 0
      vertex 8.92978 8.36812 0
    endloop
  endfacet
  facet normal 0 0 -1
    outer loop
      vertex 8.87631 8.48175 0
      vertex 10.5 11 0
      vertex 8.90483 8.42578 0
    endloop
  endfacet
  facet normal 0 0 -1
    outer loop
      vertex 8.84433 8.53583 0
      vertex 10.5 11 0
      vertex 8.87631 8.48175 0
    endloop
  endfacet
  facet normal 0 0 -1
    outer loop
      vertex 8.80902 8.58778 0
      vertex 10.5 11 0
      vertex 8.84433 8.53583 0
    endloop
  endfacet
  facet normal 0 0 -1
    outer loop
      vertex 8.77051 8.63742 0
      vertex 10.5 11 0
      vertex 8.80902 8.58778 0
    endloop
  endfacet
  facet normal 0 0 -1
    outer loop
      vertex 8.72897 8.68455 0
      vertex 10.5 11 0
      vertex 8.77051 8.63742 0
    endloop
  endfacet
  facet normal 0 0 -1
    outer loop
      vertex 8.68455 8.72897 0
      vertex 10.5 11 0
      vertex 8.72897 8.68455 0
    endloop
  endfacet
  facet normal 0 0 -1
    outer loop
      vertex 8.63742 8.77051 0
      vertex 10.5 11 0
      vertex 8.68455 8.72897 0
    endloop
  endfacet
  facet normal 0 0 -1
    outer loop
      vertex 8.58778 8.80902 0
      vertex 10.5 11 0
      vertex 8.63742 8.77051 0
    endloop
  endfacet
  facet normal 0 0 -1
    outer loop
      vertex 8.53583 8.84433 0
      vertex 10.5 11 0
      vertex 8.58778 8.80902 0
    endloop
  endfacet
  facet normal 0 0 -1
    outer loop
      vertex 8.48175 8.87631 0
      vertex 10.5 11 0
      vertex 8.53583 8.84433 0
    endloop
  endfacet
  facet normal 0 0 -1
    outer loop
      vertex 8.42578 8.90483 0
      vertex 10.5 11 0
      vertex 8.48175 8.87631 0
    endloop
  endfacet
  facet normal 0 0 -1
    outer loop
      vertex 8.36812 8.92978 0
      vertex 10.5 11 0
      vertex 8.42578 8.90483 0
    endloop
  endfacet
  facet normal 0 0 -1
    outer loop
      vertex 8.30902 8.95106 0
      vertex 10.5 11 0
      vertex 8.36812 8.92978 0
    endloop
  endfacet
  facet normal 0 0 -1
    outer loop
      vertex 8.24869 8.96858 0
      vertex 10.5 11 0
      vertex 8.30902 8.95106 0
    endloop
  endfacet
  facet normal 0 0 -1
    outer loop
      vertex 8.18738 8.98229 0
      vertex 10.5 11 0
      vertex 8.24869 8.96858 0
    endloop
  endfacet
  facet normal 0 0 -1
    outer loop
      vertex 8.12533 8.99211 0
      vertex 10.5 11 0
      vertex 8.18738 8.98229 0
    endloop
  endfacet
  facet normal 0 0 -1
    outer loop
      vertex 8.06279 8.99803 0
      vertex 10.5 11 0
      vertex 8.12533 8.99211 0
    endloop
  endfacet
  facet normal 0 0 -1
    outer loop
      vertex 8 9 0
      vertex 10.5 11 0
      vertex 8.06279 8.99803 0
    endloop
  endfacet
  facet normal 0 0 -1
    outer loop
      vertex 7.93721 8.99803 0
      vertex 10.5 11 0
      vertex 8 9 0
    endloop
  endfacet
  facet normal 0 0 -1
    outer loop
      vertex 7.87467 8.99211 0
      vertex 10.5 11 0
      vertex 7.93721 8.99803 0
    endloop
  endfacet
  facet normal 0 0 -1
    outer loop
      vertex 7.81262 8.98229 0
      vertex 10.5 11 0
      vertex 7.87467 8.99211 0
    endloop
  endfacet
  facet normal 0 0 -1
    outer loop
      vertex 7.75131 8.96858 0
      vertex 10.5 11 0
      vertex 7.81262 8.98229 0
    endloop
  endfacet
  facet normal 0 0 -1
    outer loop
      vertex 7.69098 8.95106 0
      vertex 10.5 11 0
      vertex 7.75131 8.96858 0
    endloop
  endfacet
  facet normal 0 0 -1
    outer loop
      vertex 7.63188 8.92978 0
      vertex 10.5 11 0
      vertex 7.69098 8.95106 0
    endloop
  endfacet
  facet normal 0 0 -1
    outer loop
      vertex 7.57422 8.90483 0
      vertex 10.5 11 0
      vertex 7.63188 8.92978 0
    endloop
  endfacet
  facet normal 0 0 -1
    outer loop
      vertex 2.5 8 0
      vertex 7.57422 8.90483 0
      vertex 4.57422 7.40483 0
    endloop
  endfacet
  facet normal 0 0 -1
    outer loop
      vertex 2.5 8 0
      vertex 4.57422 7.40483 0
      vertex 4.51825 7.37631 0
    endloop
  endfacet
  facet normal 0 0 -1
    outer loop
      vertex 2.5 8 0
      vertex 4.51825 7.37631 0
      vertex 4.46417 7.34433 0
    endloop
  endfacet
  facet normal 0 0 -1
    outer loop
      vertex 2.5 8 0
      vertex 4 6.5 0
      vertex 2.5 0 0
    endloop
  endfacet
  facet normal 0 0 -1
    outer loop
      vertex 4 6.5 0
      vertex 2.5 8 0
      vertex 4.00197 6.56279 0
    endloop
  endfacet
  facet normal 0 0 -1
    outer loop
      vertex 4.00197 6.56279 0
      vertex 2.5 8 0
      vertex 4.00788 6.62533 0
    endloop
  endfacet
  facet normal 0 0 -1
    outer loop
      vertex 4.00788 6.62533 0
      vertex 2.5 8 0
      vertex 4.01771 6.68738 0
    endloop
  endfacet
  facet normal -0 0 -1
    outer loop
      vertex 7.57422 8.90483 0
      vertex 2.5 8 0
      vertex 10.5 11 0
    endloop
  endfacet
  facet normal 0 0 -1
    outer loop
      vertex 4.41221 7.30902 0
      vertex 2.5 8 0
      vertex 4.46417 7.34433 0
    endloop
  endfacet
  facet normal 0 0 -1
    outer loop
      vertex 4.36258 7.27051 0
      vertex 2.5 8 0
      vertex 4.41221 7.30902 0
    endloop
  endfacet
  facet normal 0 0 -1
    outer loop
      vertex 4.31545 7.22897 0
      vertex 2.5 8 0
      vertex 4.36258 7.27051 0
    endloop
  endfacet
  facet normal 0 0 -1
    outer loop
      vertex 4.27103 7.18455 0
      vertex 2.5 8 0
      vertex 4.31545 7.22897 0
    endloop
  endfacet
  facet normal 0 0 -1
    outer loop
      vertex 4.22949 7.13742 0
      vertex 2.5 8 0
      vertex 4.27103 7.18455 0
    endloop
  endfacet
  facet normal 0 0 -1
    outer loop
      vertex 4.19098 7.08778 0
      vertex 2.5 8 0
      vertex 4.22949 7.13742 0
    endloop
  endfacet
  facet normal 0 0 -1
    outer loop
      vertex 4.15567 7.03583 0
      vertex 2.5 8 0
      vertex 4.19098 7.08778 0
    endloop
  endfacet
  facet normal 0 0 -1
    outer loop
      vertex 4.12369 6.98175 0
      vertex 2.5 8 0
      vertex 4.15567 7.03583 0
    endloop
  endfacet
  facet normal 0 0 -1
    outer loop
      vertex 4.09517 6.92578 0
      vertex 2.5 8 0
      vertex 4.12369 6.98175 0
    endloop
  endfacet
  facet normal 0 0 -1
    outer loop
      vertex 4.07022 6.86812 0
      vertex 2.5 8 0
      vertex 4.09517 6.92578 0
    endloop
  endfacet
  facet normal 0 0 -1
    outer loop
      vertex 4.04894 6.80902 0
      vertex 2.5 8 0
      vertex 4.07022 6.86812 0
    endloop
  endfacet
  facet normal 0 0 -1
    outer loop
      vertex 4.03142 6.74869 0
      vertex 2.5 8 0
      vertex 4.04894 6.80902 0
    endloop
  endfacet
  facet normal 0 0 -1
    outer loop
      vertex 4.01771 6.68738 0
      vertex 2.5 8 0
      vertex 4.03142 6.74869 0
    endloop
  endfacet
  facet normal 0.984794 -0 0.173729
    outer loop
      vertex 12.0224 -3 0.00395716
      vertex 12.0231 11 0
      vertex 12.0224 11 0.00395716
    endloop
  endfacet
  facet normal 0.984794 0 0.173729
    outer loop
      vertex 12.0231 11 0
      vertex 12.0224 -3 0.00395716
      vertex 12.0231 -3 0
    endloop
  endfacet
  facet normal 0.984808 -0 0.173648
    outer loop
      vertex 9.90722 -3 12
      vertex 11.6751 11 1.97357
      vertex 9.90722 11 12
    endloop
  endfacet
  facet normal 0.984808 0 0.173648
    outer loop
      vertex 11.6751 11 1.97357
      vertex 9.90722 -3 12
      vertex 11.6751 -3 1.97357
    endloop
  endfacet
  facet normal -0.350452 -0.93454 -0.0617942
    outer loop
      vertex 8.38408 -3 12
      vertex 2.5 0 0
      vertex 10.5 -3 0
    endloop
  endfacet
  facet normal -0.350452 0.93454 -0.0617942
    outer loop
      vertex 10.5 11 0
      vertex 2.5 8 0
      vertex 8.38408 11 12
    endloop
  endfacet
  facet normal 1 -0 0
    outer loop
      vertex 4 1.5 12
      vertex 4 6.5 0
      vertex 4 6.5 12
    endloop
  endfacet
  facet normal 1 0 0
    outer loop
      vertex 4 6.5 0
      vertex 4 1.5 12
      vertex 4 1.5 0
    endloop
  endfacet
  facet normal 0.562084 0.82708 -0
    outer loop
      vertex 4.46417 0.655672 0
      vertex 4.41221 0.690983 12
      vertex 4.46417 0.655672 12
    endloop
  endfacet
  facet normal 0.562084 0.82708 0
    outer loop
      vertex 4.41221 0.690983 12
      vertex 4.46417 0.655672 0
      vertex 4.41221 0.690983 0
    endloop
  endfacet
  facet normal 0.999507 -0.0314092 0
    outer loop
      vertex 4 6.5 12
      vertex 4.00197 6.56279 0
      vertex 4.00197 6.56279 12
    endloop
  endfacet
  facet normal 0.999507 -0.0314092 0
    outer loop
      vertex 4.00197 6.56279 0
      vertex 4 6.5 12
      vertex 4 6.5 0
    endloop
  endfacet
  facet normal -0.987688 -0.156437 0
    outer loop
      vertex 8.99211 8.12533 0
      vertex 8.98229 8.18738 12
      vertex 8.98229 8.18738 0
    endloop
  endfacet
  facet normal -0.987688 -0.156437 0
    outer loop
      vertex 8.98229 8.18738 12
      vertex 8.99211 8.12533 0
      vertex 8.99211 8.12533 12
    endloop
  endfacet
  facet normal -0.999506 0.0314243 0
    outer loop
      vertex 8.99803 -0.0627899 0
      vertex 9 0 12
      vertex 9 0 0
    endloop
  endfacet
  facet normal -0.999506 0.0314243 0
    outer loop
      vertex 9 0 12
      vertex 8.99803 -0.0627899 0
      vertex 8.99803 -0.0627899 12
    endloop
  endfacet
  facet normal -1 0 0
    outer loop
      vertex 9 0 0
      vertex 9 8 12
      vertex 9 8 0
    endloop
  endfacet
  facet normal -1 -0 0
    outer loop
      vertex 9 8 12
      vertex 9 0 0
      vertex 9 0 12
    endloop
  endfacet
  facet normal 0.91775 -0.397158 0
    outer loop
      vertex 4.07022 6.86812 12
      vertex 4.09517 6.92578 0
      vertex 4.09517 6.92578 12
    endloop
  endfacet
  facet normal 0.91775 -0.397158 0
    outer loop
      vertex 4.09517 6.92578 0
      vertex 4.07022 6.86812 12
      vertex 4.07022 6.86812 0
    endloop
  endfacet
  facet normal 0.447213 0.894427 -0
    outer loop
      vertex 7.57422 -0.904826 0
      vertex 4.57422 0.595173 12
      vertex 7.57422 -0.904826 12
    endloop
  endfacet
  facet normal 0.447213 0.894427 0
    outer loop
      vertex 4.57422 0.595173 12
      vertex 7.57422 -0.904826 0
      vertex 4.57422 0.595173 0
    endloop
  endfacet
  facet normal -0.790156 0.612906 0
    outer loop
      vertex 8.77051 -0.637424 0
      vertex 8.80902 -0.587785 12
      vertex 8.80902 -0.587785 0
    endloop
  endfacet
  facet normal -0.790156 0.612906 0
    outer loop
      vertex 8.80902 -0.587785 12
      vertex 8.77051 -0.637424 0
      vertex 8.77051 -0.637424 12
    endloop
  endfacet
  facet normal 0.453977 -0.891013 0
    outer loop
      vertex 4.51825 7.37631 0
      vertex 4.57422 7.40483 12
      vertex 4.51825 7.37631 12
    endloop
  endfacet
  facet normal 0.453977 -0.891013 0
    outer loop
      vertex 4.57422 7.40483 12
      vertex 4.51825 7.37631 0
      vertex 4.57422 7.40483 0
    endloop
  endfacet
  facet normal 0.750115 0.661307 0
    outer loop
      vertex 4.27103 0.815453 12
      vertex 4.22949 0.862576 0
      vertex 4.22949 0.862576 12
    endloop
  endfacet
  facet normal 0.750115 0.661307 0
    outer loop
      vertex 4.22949 0.862576 0
      vertex 4.27103 0.815453 12
      vertex 4.27103 0.815453 0
    endloop
  endfacet
  facet normal -0.891013 -0.453977 0
    outer loop
      vertex 8.90483 8.42578 0
      vertex 8.87631 8.48175 12
      vertex 8.87631 8.48175 0
    endloop
  endfacet
  facet normal -0.891013 -0.453977 0
    outer loop
      vertex 8.87631 8.48175 12
      vertex 8.90483 8.42578 0
      vertex 8.90483 8.42578 12
    endloop
  endfacet
  facet normal 0.397158 -0.91775 0
    outer loop
      vertex 7.57422 8.90483 0
      vertex 7.63188 8.92978 12
      vertex 7.57422 8.90483 12
    endloop
  endfacet
  facet normal 0.397158 -0.91775 0
    outer loop
      vertex 7.63188 8.92978 12
      vertex 7.57422 8.90483 0
      vertex 7.63188 8.92978 0
    endloop
  endfacet
  facet normal 0.33874 -0.94088 0
    outer loop
      vertex 7.63188 8.92978 0
      vertex 7.69098 8.95106 12
      vertex 7.63188 8.92978 12
    endloop
  endfacet
  facet normal 0.33874 -0.94088 0
    outer loop
      vertex 7.69098 8.95106 12
      vertex 7.63188 8.92978 0
      vertex 7.69098 8.95106 0
    endloop
  endfacet
  facet normal 0.999507 0.0314087 0
    outer loop
      vertex 4.00197 1.43721 12
      vertex 4 1.5 0
      vertex 4 1.5 12
    endloop
  endfacet
  facet normal 0.999507 0.0314087 0
    outer loop
      vertex 4 1.5 0
      vertex 4.00197 1.43721 12
      vertex 4.00197 1.43721 0
    endloop
  endfacet
  facet normal 0.987688 0.156437 0
    outer loop
      vertex 4.01771 1.31262 12
      vertex 4.00788 1.37467 0
      vertex 4.00788 1.37467 12
    endloop
  endfacet
  facet normal 0.987688 0.156437 0
    outer loop
      vertex 4.00788 1.37467 0
      vertex 4.01771 1.31262 12
      vertex 4.01771 1.31262 0
    endloop
  endfacet
  facet normal 0.91775 0.397158 0
    outer loop
      vertex 4.09517 1.07422 12
      vertex 4.07022 1.13188 0
      vertex 4.07022 1.13188 12
    endloop
  endfacet
  facet normal 0.91775 0.397158 0
    outer loop
      vertex 4.07022 1.13188 0
      vertex 4.09517 1.07422 12
      vertex 4.09517 1.07422 0
    endloop
  endfacet
  facet normal 0.960293 0.278993 0
    outer loop
      vertex 4.04894 1.19098 12
      vertex 4.03142 1.25131 0
      vertex 4.03142 1.25131 12
    endloop
  endfacet
  facet normal 0.960293 0.278993 0
    outer loop
      vertex 4.03142 1.25131 0
      vertex 4.04894 1.19098 12
      vertex 4.04894 1.19098 0
    endloop
  endfacet
  facet normal 0.707107 0.707107 0
    outer loop
      vertex 4.31545 0.77103 12
      vertex 4.27103 0.815453 0
      vertex 4.27103 0.815453 12
    endloop
  endfacet
  facet normal 0.707107 0.707107 0
    outer loop
      vertex 4.27103 0.815453 0
      vertex 4.31545 0.77103 12
      vertex 4.31545 0.77103 0
    endloop
  endfacet
  facet normal 0.612906 0.790156 -0
    outer loop
      vertex 4.41221 0.690983 0
      vertex 4.36258 0.729486 12
      vertex 4.41221 0.690983 12
    endloop
  endfacet
  facet normal 0.612906 0.790156 0
    outer loop
      vertex 4.36258 0.729486 12
      vertex 4.41221 0.690983 0
      vertex 4.36258 0.729486 0
    endloop
  endfacet
  facet normal 0.790156 0.612906 0
    outer loop
      vertex 4.22949 0.862576 12
      vertex 4.19098 0.912214 0
      vertex 4.19098 0.912214 12
    endloop
  endfacet
  facet normal 0.790156 0.612906 0
    outer loop
      vertex 4.19098 0.912214 0
      vertex 4.22949 0.862576 12
      vertex 4.22949 0.862576 0
    endloop
  endfacet
  facet normal 0.860737 0.509049 0
    outer loop
      vertex 4.15567 0.964172 12
      vertex 4.12369 1.01825 0
      vertex 4.12369 1.01825 12
    endloop
  endfacet
  facet normal 0.860737 0.509049 0
    outer loop
      vertex 4.12369 1.01825 0
      vertex 4.15567 0.964172 12
      vertex 4.15567 0.964172 0
    endloop
  endfacet
  facet normal 0.453977 0.891013 -0
    outer loop
      vertex 4.57422 0.595173 0
      vertex 4.51825 0.623693 12
      vertex 4.57422 0.595173 12
    endloop
  endfacet
  facet normal 0.453977 0.891013 0
    outer loop
      vertex 4.51825 0.623693 12
      vertex 4.57422 0.595173 0
      vertex 4.51825 0.623693 0
    endloop
  endfacet
  facet normal 0.509049 0.860737 -0
    outer loop
      vertex 4.51825 0.623693 0
      vertex 4.46417 0.655672 12
      vertex 4.51825 0.623693 12
    endloop
  endfacet
  facet normal 0.509049 0.860737 0
    outer loop
      vertex 4.46417 0.655672 12
      vertex 4.51825 0.623693 0
      vertex 4.46417 0.655672 0
    endloop
  endfacet
  facet normal -0.82708 0.562084 0
    outer loop
      vertex 8.80902 -0.587785 0
      vertex 8.84433 -0.535827 12
      vertex 8.84433 -0.535827 0
    endloop
  endfacet
  facet normal -0.82708 0.562084 0
    outer loop
      vertex 8.84433 -0.535827 12
      vertex 8.80902 -0.587785 0
      vertex 8.80902 -0.587785 12
    endloop
  endfacet
  facet normal -0.612906 0.790156 0
    outer loop
      vertex 8.63742 -0.770513 0
      vertex 8.58778 -0.809016 12
      vertex 8.63742 -0.770513 12
    endloop
  endfacet
  facet normal -0.612906 0.790156 0
    outer loop
      vertex 8.58778 -0.809016 12
      vertex 8.63742 -0.770513 0
      vertex 8.58778 -0.809016 0
    endloop
  endfacet
  facet normal 0.33874 0.94088 -0
    outer loop
      vertex 7.69098 -0.951056 0
      vertex 7.63188 -0.929776 12
      vertex 7.69098 -0.951056 12
    endloop
  endfacet
  facet normal 0.33874 0.94088 0
    outer loop
      vertex 7.63188 -0.929776 12
      vertex 7.69098 -0.951056 0
      vertex 7.63188 -0.929776 0
    endloop
  endfacet
  facet normal 0.397158 0.91775 -0
    outer loop
      vertex 7.63188 -0.929776 0
      vertex 7.57422 -0.904826 12
      vertex 7.63188 -0.929776 12
    endloop
  endfacet
  facet normal 0.397158 0.91775 0
    outer loop
      vertex 7.57422 -0.904826 12
      vertex 7.63188 -0.929776 0
      vertex 7.57422 -0.904826 0
    endloop
  endfacet
  facet normal -0.91775 0.397158 0
    outer loop
      vertex 8.90483 -0.425778 0
      vertex 8.92978 -0.368124 12
      vertex 8.92978 -0.368124 0
    endloop
  endfacet
  facet normal -0.91775 0.397158 0
    outer loop
      vertex 8.92978 -0.368124 12
      vertex 8.90483 -0.425778 0
      vertex 8.90483 -0.425778 12
    endloop
  endfacet
  facet normal 0.278993 -0.960293 0
    outer loop
      vertex 7.69098 8.95106 0
      vertex 7.75131 8.96858 12
      vertex 7.69098 8.95106 12
    endloop
  endfacet
  facet normal 0.278993 -0.960293 0
    outer loop
      vertex 7.75131 8.96858 12
      vertex 7.69098 8.95106 0
      vertex 7.75131 8.96858 0
    endloop
  endfacet
  facet normal -0.975919 0.218131 0
    outer loop
      vertex 8.96858 -0.24869 0
      vertex 8.98229 -0.187381 12
      vertex 8.98229 -0.187381 0
    endloop
  endfacet
  facet normal -0.975919 0.218131 0
    outer loop
      vertex 8.98229 -0.187381 12
      vertex 8.96858 -0.24869 0
      vertex 8.96858 -0.24869 12
    endloop
  endfacet
  facet normal -0.995562 0.0941049 0
    outer loop
      vertex 8.99211 -0.125333 0
      vertex 8.99803 -0.0627899 12
      vertex 8.99803 -0.0627899 0
    endloop
  endfacet
  facet normal -0.995562 0.0941049 0
    outer loop
      vertex 8.99803 -0.0627899 12
      vertex 8.99211 -0.125333 0
      vertex 8.99211 -0.125333 12
    endloop
  endfacet
  facet normal -0.987688 0.156437 0
    outer loop
      vertex 8.98229 -0.187381 0
      vertex 8.99211 -0.125333 12
      vertex 8.99211 -0.125333 0
    endloop
  endfacet
  facet normal -0.987688 0.156437 0
    outer loop
      vertex 8.99211 -0.125333 12
      vertex 8.98229 -0.187381 0
      vertex 8.98229 -0.187381 12
    endloop
  endfacet
  facet normal -0.960293 0.278993 0
    outer loop
      vertex 8.95106 -0.309016 0
      vertex 8.96858 -0.24869 12
      vertex 8.96858 -0.24869 0
    endloop
  endfacet
  facet normal -0.960293 0.278993 0
    outer loop
      vertex 8.96858 -0.24869 12
      vertex 8.95106 -0.309016 0
      vertex 8.95106 -0.309016 12
    endloop
  endfacet
  facet normal 0.987688 -0.156437 0
    outer loop
      vertex 4.00788 6.62533 12
      vertex 4.01771 6.68738 0
      vertex 4.01771 6.68738 12
    endloop
  endfacet
  facet normal 0.987688 -0.156437 0
    outer loop
      vertex 4.01771 6.68738 0
      vertex 4.00788 6.62533 12
      vertex 4.00788 6.62533 0
    endloop
  endfacet
  facet normal 0.975919 -0.218131 0
    outer loop
      vertex 4.01771 6.68738 12
      vertex 4.03142 6.74869 0
      vertex 4.03142 6.74869 12
    endloop
  endfacet
  facet normal 0.975919 -0.218131 0
    outer loop
      vertex 4.03142 6.74869 0
      vertex 4.01771 6.68738 12
      vertex 4.01771 6.68738 0
    endloop
  endfacet
  facet normal 0.82708 -0.562084 0
    outer loop
      vertex 4.15567 7.03583 12
      vertex 4.19098 7.08778 0
      vertex 4.19098 7.08778 12
    endloop
  endfacet
  facet normal 0.82708 -0.562084 0
    outer loop
      vertex 4.19098 7.08778 0
      vertex 4.15567 7.03583 12
      vertex 4.15567 7.03583 0
    endloop
  endfacet
  facet normal 0.860737 -0.509049 0
    outer loop
      vertex 4.12369 6.98175 12
      vertex 4.15567 7.03583 0
      vertex 4.15567 7.03583 12
    endloop
  endfacet
  facet normal 0.860737 -0.509049 0
    outer loop
      vertex 4.15567 7.03583 0
      vertex 4.12369 6.98175 12
      vertex 4.12369 6.98175 0
    endloop
  endfacet
  facet normal 0.790156 -0.612906 0
    outer loop
      vertex 4.19098 7.08778 12
      vertex 4.22949 7.13742 0
      vertex 4.22949 7.13742 12
    endloop
  endfacet
  facet normal 0.790156 -0.612906 0
    outer loop
      vertex 4.22949 7.13742 0
      vertex 4.19098 7.08778 12
      vertex 4.19098 7.08778 0
    endloop
  endfacet
  facet normal 0.891013 -0.453977 0
    outer loop
      vertex 4.09517 6.92578 12
      vertex 4.12369 6.98175 0
      vertex 4.12369 6.98175 12
    endloop
  endfacet
  facet normal 0.891013 -0.453977 0
    outer loop
      vertex 4.12369 6.98175 0
      vertex 4.09517 6.92578 12
      vertex 4.09517 6.92578 0
    endloop
  endfacet
  facet normal 0.707107 -0.707107 0
    outer loop
      vertex 4.27103 7.18455 12
      vertex 4.31545 7.22897 0
      vertex 4.31545 7.22897 12
    endloop
  endfacet
  facet normal 0.707107 -0.707107 0
    outer loop
      vertex 4.31545 7.22897 0
      vertex 4.27103 7.18455 12
      vertex 4.27103 7.18455 0
    endloop
  endfacet
  facet normal 0.447214 -0.894427 0
    outer loop
      vertex 4.57422 7.40483 0
      vertex 7.57422 8.90483 12
      vertex 4.57422 7.40483 12
    endloop
  endfacet
  facet normal 0.447214 -0.894427 0
    outer loop
      vertex 7.57422 8.90483 12
      vertex 4.57422 7.40483 0
      vertex 7.57422 8.90483 0
    endloop
  endfacet
  facet normal 0.995562 0.0941049 0
    outer loop
      vertex 4.00788 1.37467 12
      vertex 4.00197 1.43721 0
      vertex 4.00197 1.43721 12
    endloop
  endfacet
  facet normal 0.995562 0.0941049 0
    outer loop
      vertex 4.00197 1.43721 0
      vertex 4.00788 1.37467 12
      vertex 4.00788 1.37467 0
    endloop
  endfacet
  facet normal 0.975919 0.218131 0
    outer loop
      vertex 4.03142 1.25131 12
      vertex 4.01771 1.31262 0
      vertex 4.01771 1.31262 12
    endloop
  endfacet
  facet normal 0.975919 0.218131 0
    outer loop
      vertex 4.01771 1.31262 0
      vertex 4.03142 1.25131 12
      vertex 4.03142 1.25131 0
    endloop
  endfacet
  facet normal 0.891013 0.453977 0
    outer loop
      vertex 4.12369 1.01825 12
      vertex 4.09517 1.07422 0
      vertex 4.09517 1.07422 12
    endloop
  endfacet
  facet normal 0.891013 0.453977 0
    outer loop
      vertex 4.09517 1.07422 0
      vertex 4.12369 1.01825 12
      vertex 4.12369 1.01825 0
    endloop
  endfacet
  facet normal 0.94088 0.33874 0
    outer loop
      vertex 4.07022 1.13188 12
      vertex 4.04894 1.19098 0
      vertex 4.04894 1.19098 12
    endloop
  endfacet
  facet normal 0.94088 0.33874 0
    outer loop
      vertex 4.04894 1.19098 0
      vertex 4.07022 1.13188 12
      vertex 4.07022 1.13188 0
    endloop
  endfacet
  facet normal 0.661307 0.750115 -0
    outer loop
      vertex 4.36258 0.729486 0
      vertex 4.31545 0.77103 12
      vertex 4.36258 0.729486 12
    endloop
  endfacet
  facet normal 0.661307 0.750115 0
    outer loop
      vertex 4.31545 0.77103 12
      vertex 4.36258 0.729486 0
      vertex 4.31545 0.77103 0
    endloop
  endfacet
  facet normal 0.82708 0.562084 0
    outer loop
      vertex 4.19098 0.912214 12
      vertex 4.15567 0.964172 0
      vertex 4.15567 0.964172 12
    endloop
  endfacet
  facet normal 0.82708 0.562084 0
    outer loop
      vertex 4.15567 0.964172 0
      vertex 4.19098 0.912214 12
      vertex 4.19098 0.912214 0
    endloop
  endfacet
  facet normal -0.860737 0.509049 0
    outer loop
      vertex 8.84433 -0.535827 0
      vertex 8.87631 -0.481753 12
      vertex 8.87631 -0.481753 0
    endloop
  endfacet
  facet normal -0.860737 0.509049 0
    outer loop
      vertex 8.87631 -0.481753 12
      vertex 8.84433 -0.535827 0
      vertex 8.84433 -0.535827 12
    endloop
  endfacet
  facet normal -0.891013 0.453977 0
    outer loop
      vertex 8.87631 -0.481753 0
      vertex 8.90483 -0.425778 12
      vertex 8.90483 -0.425778 0
    endloop
  endfacet
  facet normal -0.891013 0.453977 0
    outer loop
      vertex 8.90483 -0.425778 12
      vertex 8.87631 -0.481753 0
      vertex 8.87631 -0.481753 12
    endloop
  endfacet
  facet normal 0.218131 0.975919 -0
    outer loop
      vertex 7.81262 -0.982286 0
      vertex 7.75131 -0.968583 12
      vertex 7.81262 -0.982286 12
    endloop
  endfacet
  facet normal 0.218131 0.975919 0
    outer loop
      vertex 7.75131 -0.968583 12
      vertex 7.81262 -0.982286 0
      vertex 7.75131 -0.968583 0
    endloop
  endfacet
  facet normal -0.707107 0.707107 0
    outer loop
      vertex 8.68455 -0.728969 0
      vertex 8.72897 -0.684546 12
      vertex 8.72897 -0.684546 0
    endloop
  endfacet
  facet normal -0.707107 0.707107 0
    outer loop
      vertex 8.72897 -0.684546 12
      vertex 8.68455 -0.728969 0
      vertex 8.68455 -0.728969 12
    endloop
  endfacet
  facet normal -0.94088 0.33874 0
    outer loop
      vertex 8.92978 -0.368124 0
      vertex 8.95106 -0.309016 12
      vertex 8.95106 -0.309016 0
    endloop
  endfacet
  facet normal -0.94088 0.33874 0
    outer loop
      vertex 8.95106 -0.309016 12
      vertex 8.92978 -0.368124 0
      vertex 8.92978 -0.368124 12
    endloop
  endfacet
  facet normal -0.707107 -0.707107 0
    outer loop
      vertex 8.72897 8.68455 0
      vertex 8.68455 8.72897 12
      vertex 8.68455 8.72897 0
    endloop
  endfacet
  facet normal -0.707107 -0.707107 0
    outer loop
      vertex 8.68455 8.72897 12
      vertex 8.72897 8.68455 0
      vertex 8.72897 8.68455 12
    endloop
  endfacet
  facet normal -0.750115 -0.661307 0
    outer loop
      vertex 8.77051 8.63742 0
      vertex 8.72897 8.68455 12
      vertex 8.72897 8.68455 0
    endloop
  endfacet
  facet normal -0.750115 -0.661307 0
    outer loop
      vertex 8.72897 8.68455 12
      vertex 8.77051 8.63742 0
      vertex 8.77051 8.63742 12
    endloop
  endfacet
  facet normal -0.453977 -0.891013 0
    outer loop
      vertex 8.42578 8.90483 0
      vertex 8.48175 8.87631 12
      vertex 8.42578 8.90483 12
    endloop
  endfacet
  facet normal -0.453977 -0.891013 -0
    outer loop
      vertex 8.48175 8.87631 12
      vertex 8.42578 8.90483 0
      vertex 8.48175 8.87631 0
    endloop
  endfacet
  facet normal 0.0941049 -0.995562 0
    outer loop
      vertex 7.87467 8.99211 0
      vertex 7.93721 8.99803 12
      vertex 7.87467 8.99211 12
    endloop
  endfacet
  facet normal 0.0941049 -0.995562 0
    outer loop
      vertex 7.93721 8.99803 12
      vertex 7.87467 8.99211 0
      vertex 7.93721 8.99803 0
    endloop
  endfacet
  facet normal -0.975919 -0.218131 0
    outer loop
      vertex 8.98229 8.18738 0
      vertex 8.96858 8.24869 12
      vertex 8.96858 8.24869 0
    endloop
  endfacet
  facet normal -0.975919 -0.218131 0
    outer loop
      vertex 8.96858 8.24869 12
      vertex 8.98229 8.18738 0
      vertex 8.98229 8.18738 12
    endloop
  endfacet
  facet normal -0.995562 -0.0941049 0
    outer loop
      vertex 8.99803 8.06279 0
      vertex 8.99211 8.12533 12
      vertex 8.99211 8.12533 0
    endloop
  endfacet
  facet normal -0.995562 -0.0941049 0
    outer loop
      vertex 8.99211 8.12533 12
      vertex 8.99803 8.06279 0
      vertex 8.99803 8.06279 12
    endloop
  endfacet
  facet normal -0.999506 -0.0314243 0
    outer loop
      vertex 9 8 0
      vertex 8.99803 8.06279 12
      vertex 8.99803 8.06279 0
    endloop
  endfacet
  facet normal -0.999506 -0.0314243 0
    outer loop
      vertex 8.99803 8.06279 12
      vertex 9 8 0
      vertex 9 8 12
    endloop
  endfacet
  facet normal 0.995562 -0.0941049 0
    outer loop
      vertex 4.00197 6.56279 12
      vertex 4.00788 6.62533 0
      vertex 4.00788 6.62533 12
    endloop
  endfacet
  facet normal 0.995562 -0.0941049 0
    outer loop
      vertex 4.00788 6.62533 0
      vertex 4.00197 6.56279 12
      vertex 4.00197 6.56279 0
    endloop
  endfacet
  facet normal 0.960293 -0.278993 0
    outer loop
      vertex 4.03142 6.74869 12
      vertex 4.04894 6.80902 0
      vertex 4.04894 6.80902 12
    endloop
  endfacet
  facet normal 0.960293 -0.278993 0
    outer loop
      vertex 4.04894 6.80902 0
      vertex 4.03142 6.74869 12
      vertex 4.03142 6.74869 0
    endloop
  endfacet
  facet normal 0.94088 -0.33874 0
    outer loop
      vertex 4.04894 6.80902 12
      vertex 4.07022 6.86812 0
      vertex 4.07022 6.86812 12
    endloop
  endfacet
  facet normal 0.94088 -0.33874 0
    outer loop
      vertex 4.07022 6.86812 0
      vertex 4.04894 6.80902 12
      vertex 4.04894 6.80902 0
    endloop
  endfacet
  facet normal 0.750115 -0.661307 0
    outer loop
      vertex 4.22949 7.13742 12
      vertex 4.27103 7.18455 0
      vertex 4.27103 7.18455 12
    endloop
  endfacet
  facet normal 0.750115 -0.661307 0
    outer loop
      vertex 4.27103 7.18455 0
      vertex 4.22949 7.13742 12
      vertex 4.22949 7.13742 0
    endloop
  endfacet
  facet normal 0.612906 -0.790156 0
    outer loop
      vertex 4.36258 7.27051 0
      vertex 4.41221 7.30902 12
      vertex 4.36258 7.27051 12
    endloop
  endfacet
  facet normal 0.612906 -0.790156 0
    outer loop
      vertex 4.41221 7.30902 12
      vertex 4.36258 7.27051 0
      vertex 4.41221 7.30902 0
    endloop
  endfacet
  facet normal 0.661307 -0.750115 0
    outer loop
      vertex 4.31545 7.22897 0
      vertex 4.36258 7.27051 12
      vertex 4.31545 7.22897 12
    endloop
  endfacet
  facet normal 0.661307 -0.750115 0
    outer loop
      vertex 4.36258 7.27051 12
      vertex 4.31545 7.22897 0
      vertex 4.36258 7.27051 0
    endloop
  endfacet
  facet normal 0.156437 0.987688 -0
    outer loop
      vertex 7.87467 -0.992114 0
      vertex 7.81262 -0.982286 12
      vertex 7.87467 -0.992114 12
    endloop
  endfacet
  facet normal 0.156437 0.987688 0
    outer loop
      vertex 7.81262 -0.982286 12
      vertex 7.87467 -0.992114 0
      vertex 7.81262 -0.982286 0
    endloop
  endfacet
  facet normal -0.156437 0.987688 0
    outer loop
      vertex 8.18738 -0.982286 0
      vertex 8.12533 -0.992114 12
      vertex 8.18738 -0.982286 12
    endloop
  endfacet
  facet normal -0.156437 0.987688 0
    outer loop
      vertex 8.12533 -0.992114 12
      vertex 8.18738 -0.982286 0
      vertex 8.12533 -0.992114 0
    endloop
  endfacet
  facet normal -0.0314243 0.999506 0
    outer loop
      vertex 8.06279 -0.998026 0
      vertex 8 -1 12
      vertex 8.06279 -0.998026 12
    endloop
  endfacet
  facet normal -0.0314243 0.999506 0
    outer loop
      vertex 8 -1 12
      vertex 8.06279 -0.998026 0
      vertex 8 -1 0
    endloop
  endfacet
  facet normal -0.0941049 0.995562 0
    outer loop
      vertex 8.12533 -0.992114 0
      vertex 8.06279 -0.998026 12
      vertex 8.12533 -0.992114 12
    endloop
  endfacet
  facet normal -0.0941049 0.995562 0
    outer loop
      vertex 8.06279 -0.998026 12
      vertex 8.12533 -0.992114 0
      vertex 8.06279 -0.998026 0
    endloop
  endfacet
  facet normal -0.509049 0.860737 0
    outer loop
      vertex 8.53583 -0.844327 0
      vertex 8.48175 -0.876307 12
      vertex 8.53583 -0.844327 12
    endloop
  endfacet
  facet normal -0.509049 0.860737 0
    outer loop
      vertex 8.48175 -0.876307 12
      vertex 8.53583 -0.844327 0
      vertex 8.48175 -0.876307 0
    endloop
  endfacet
  facet normal -0.397158 0.91775 0
    outer loop
      vertex 8.42578 -0.904826 0
      vertex 8.36812 -0.929776 12
      vertex 8.42578 -0.904826 12
    endloop
  endfacet
  facet normal -0.397158 0.91775 0
    outer loop
      vertex 8.36812 -0.929776 12
      vertex 8.42578 -0.904826 0
      vertex 8.36812 -0.929776 0
    endloop
  endfacet
  facet normal -0.750115 0.661307 0
    outer loop
      vertex 8.72897 -0.684546 0
      vertex 8.77051 -0.637424 12
      vertex 8.77051 -0.637424 0
    endloop
  endfacet
  facet normal -0.750115 0.661307 0
    outer loop
      vertex 8.77051 -0.637424 12
      vertex 8.72897 -0.684546 0
      vertex 8.72897 -0.684546 12
    endloop
  endfacet
  facet normal -0.661307 0.750115 0
    outer loop
      vertex 8.68455 -0.728969 0
      vertex 8.63742 -0.770513 12
      vertex 8.68455 -0.728969 12
    endloop
  endfacet
  facet normal -0.661307 0.750115 0
    outer loop
      vertex 8.63742 -0.770513 12
      vertex 8.68455 -0.728969 0
      vertex 8.63742 -0.770513 0
    endloop
  endfacet
  facet normal 0.278993 0.960293 -0
    outer loop
      vertex 7.75131 -0.968583 0
      vertex 7.69098 -0.951056 12
      vertex 7.75131 -0.968583 12
    endloop
  endfacet
  facet normal 0.278993 0.960293 0
    outer loop
      vertex 7.69098 -0.951056 12
      vertex 7.75131 -0.968583 0
      vertex 7.69098 -0.951056 0
    endloop
  endfacet
  facet normal -0.661307 -0.750115 0
    outer loop
      vertex 8.63742 8.77051 0
      vertex 8.68455 8.72897 12
      vertex 8.63742 8.77051 12
    endloop
  endfacet
  facet normal -0.661307 -0.750115 -0
    outer loop
      vertex 8.68455 8.72897 12
      vertex 8.63742 8.77051 0
      vertex 8.68455 8.72897 0
    endloop
  endfacet
  facet normal -0.82708 -0.562084 0
    outer loop
      vertex 8.84433 8.53583 0
      vertex 8.80902 8.58778 12
      vertex 8.80902 8.58778 0
    endloop
  endfacet
  facet normal -0.82708 -0.562084 0
    outer loop
      vertex 8.80902 8.58778 12
      vertex 8.84433 8.53583 0
      vertex 8.84433 8.53583 12
    endloop
  endfacet
  facet normal -0.612906 -0.790156 0
    outer loop
      vertex 8.58778 8.80902 0
      vertex 8.63742 8.77051 12
      vertex 8.58778 8.80902 12
    endloop
  endfacet
  facet normal -0.612906 -0.790156 -0
    outer loop
      vertex 8.63742 8.77051 12
      vertex 8.58778 8.80902 0
      vertex 8.63742 8.77051 0
    endloop
  endfacet
  facet normal 0.0314239 -0.999506 0
    outer loop
      vertex 7.93721 8.99803 0
      vertex 8 9 12
      vertex 7.93721 8.99803 12
    endloop
  endfacet
  facet normal 0.0314239 -0.999506 0
    outer loop
      vertex 8 9 12
      vertex 7.93721 8.99803 0
      vertex 8 9 0
    endloop
  endfacet
  facet normal -0.0314243 -0.999506 0
    outer loop
      vertex 8 9 0
      vertex 8.06279 8.99803 12
      vertex 8 9 12
    endloop
  endfacet
  facet normal -0.0314243 -0.999506 -0
    outer loop
      vertex 8.06279 8.99803 12
      vertex 8 9 0
      vertex 8.06279 8.99803 0
    endloop
  endfacet
  facet normal -0.0941049 -0.995562 0
    outer loop
      vertex 8.06279 8.99803 0
      vertex 8.12533 8.99211 12
      vertex 8.06279 8.99803 12
    endloop
  endfacet
  facet normal -0.0941049 -0.995562 -0
    outer loop
      vertex 8.12533 8.99211 12
      vertex 8.06279 8.99803 0
      vertex 8.12533 8.99211 0
    endloop
  endfacet
  facet normal 0.218131 -0.975919 0
    outer loop
      vertex 7.75131 8.96858 0
      vertex 7.81262 8.98229 12
      vertex 7.75131 8.96858 12
    endloop
  endfacet
  facet normal 0.218131 -0.975919 0
    outer loop
      vertex 7.81262 8.98229 12
      vertex 7.75131 8.96858 0
      vertex 7.81262 8.98229 0
    endloop
  endfacet
  facet normal 0.156437 -0.987688 0
    outer loop
      vertex 7.81262 8.98229 0
      vertex 7.87467 8.99211 12
      vertex 7.81262 8.98229 12
    endloop
  endfacet
  facet normal 0.156437 -0.987688 0
    outer loop
      vertex 7.87467 8.99211 12
      vertex 7.81262 8.98229 0
      vertex 7.87467 8.99211 0
    endloop
  endfacet
  facet normal 0.562084 -0.82708 0
    outer loop
      vertex 4.41221 7.30902 0
      vertex 4.46417 7.34433 12
      vertex 4.41221 7.30902 12
    endloop
  endfacet
  facet normal 0.562084 -0.82708 0
    outer loop
      vertex 4.46417 7.34433 12
      vertex 4.41221 7.30902 0
      vertex 4.46417 7.34433 0
    endloop
  endfacet
  facet normal 0.509049 -0.860737 0
    outer loop
      vertex 4.46417 7.34433 0
      vertex 4.51825 7.37631 12
      vertex 4.46417 7.34433 12
    endloop
  endfacet
  facet normal 0.509049 -0.860737 0
    outer loop
      vertex 4.51825 7.37631 12
      vertex 4.46417 7.34433 0
      vertex 4.51825 7.37631 0
    endloop
  endfacet
  facet normal -0.218131 0.975919 0
    outer loop
      vertex 8.24869 -0.968583 0
      vertex 8.18738 -0.982286 12
      vertex 8.24869 -0.968583 12
    endloop
  endfacet
  facet normal -0.218131 0.975919 0
    outer loop
      vertex 8.18738 -0.982286 12
      vertex 8.24869 -0.968583 0
      vertex 8.18738 -0.982286 0
    endloop
  endfacet
  facet normal 0.0314239 0.999506 -0
    outer loop
      vertex 8 -1 0
      vertex 7.93721 -0.998026 12
      vertex 8 -1 12
    endloop
  endfacet
  facet normal 0.0314239 0.999506 0
    outer loop
      vertex 7.93721 -0.998026 12
      vertex 8 -1 0
      vertex 7.93721 -0.998026 0
    endloop
  endfacet
  facet normal 0.0941049 0.995562 -0
    outer loop
      vertex 7.93721 -0.998026 0
      vertex 7.87467 -0.992114 12
      vertex 7.93721 -0.998026 12
    endloop
  endfacet
  facet normal 0.0941049 0.995562 0
    outer loop
      vertex 7.87467 -0.992114 12
      vertex 7.93721 -0.998026 0
      vertex 7.87467 -0.992114 0
    endloop
  endfacet
  facet normal -0.453977 0.891013 0
    outer loop
      vertex 8.48175 -0.876307 0
      vertex 8.42578 -0.904826 12
      vertex 8.48175 -0.876307 12
    endloop
  endfacet
  facet normal -0.453977 0.891013 0
    outer loop
      vertex 8.42578 -0.904826 12
      vertex 8.48175 -0.876307 0
      vertex 8.42578 -0.904826 0
    endloop
  endfacet
  facet normal -0.562084 0.82708 0
    outer loop
      vertex 8.58778 -0.809016 0
      vertex 8.53583 -0.844327 12
      vertex 8.58778 -0.809016 12
    endloop
  endfacet
  facet normal -0.562084 0.82708 0
    outer loop
      vertex 8.53583 -0.844327 12
      vertex 8.58778 -0.809016 0
      vertex 8.53583 -0.844327 0
    endloop
  endfacet
  facet normal -0.33874 0.94088 0
    outer loop
      vertex 8.36812 -0.929776 0
      vertex 8.30902 -0.951056 12
      vertex 8.36812 -0.929776 12
    endloop
  endfacet
  facet normal -0.33874 0.94088 0
    outer loop
      vertex 8.30902 -0.951056 12
      vertex 8.36812 -0.929776 0
      vertex 8.30902 -0.951056 0
    endloop
  endfacet
  facet normal -0.278993 0.960293 0
    outer loop
      vertex 8.30902 -0.951056 0
      vertex 8.24869 -0.968583 12
      vertex 8.30902 -0.951056 12
    endloop
  endfacet
  facet normal -0.278993 0.960293 0
    outer loop
      vertex 8.24869 -0.968583 12
      vertex 8.30902 -0.951056 0
      vertex 8.24869 -0.968583 0
    endloop
  endfacet
  facet normal -0.91775 -0.397158 0
    outer loop
      vertex 8.92978 8.36812 0
      vertex 8.90483 8.42578 12
      vertex 8.90483 8.42578 0
    endloop
  endfacet
  facet normal -0.91775 -0.397158 0
    outer loop
      vertex 8.90483 8.42578 12
      vertex 8.92978 8.36812 0
      vertex 8.92978 8.36812 12
    endloop
  endfacet
  facet normal -0.94088 -0.33874 0
    outer loop
      vertex 8.95106 8.30902 0
      vertex 8.92978 8.36812 12
      vertex 8.92978 8.36812 0
    endloop
  endfacet
  facet normal -0.94088 -0.33874 0
    outer loop
      vertex 8.92978 8.36812 12
      vertex 8.95106 8.30902 0
      vertex 8.95106 8.30902 12
    endloop
  endfacet
  facet normal -0.960293 -0.278993 0
    outer loop
      vertex 8.96858 8.24869 0
      vertex 8.95106 8.30902 12
      vertex 8.95106 8.30902 0
    endloop
  endfacet
  facet normal -0.960293 -0.278993 0
    outer loop
      vertex 8.95106 8.30902 12
      vertex 8.96858 8.24869 0
      vertex 8.96858 8.24869 12
    endloop
  endfacet
  facet normal -0.790156 -0.612906 0
    outer loop
      vertex 8.80902 8.58778 0
      vertex 8.77051 8.63742 12
      vertex 8.77051 8.63742 0
    endloop
  endfacet
  facet normal -0.790156 -0.612906 0
    outer loop
      vertex 8.77051 8.63742 12
      vertex 8.80902 8.58778 0
      vertex 8.80902 8.58778 12
    endloop
  endfacet
  facet normal -0.860737 -0.509049 0
    outer loop
      vertex 8.87631 8.48175 0
      vertex 8.84433 8.53583 12
      vertex 8.84433 8.53583 0
    endloop
  endfacet
  facet normal -0.860737 -0.509049 0
    outer loop
      vertex 8.84433 8.53583 12
      vertex 8.87631 8.48175 0
      vertex 8.87631 8.48175 12
    endloop
  endfacet
  facet normal -0.218131 -0.975919 0
    outer loop
      vertex 8.18738 8.98229 0
      vertex 8.24869 8.96858 12
      vertex 8.18738 8.98229 12
    endloop
  endfacet
  facet normal -0.218131 -0.975919 -0
    outer loop
      vertex 8.24869 8.96858 12
      vertex 8.18738 8.98229 0
      vertex 8.24869 8.96858 0
    endloop
  endfacet
  facet normal -0.156437 -0.987688 0
    outer loop
      vertex 8.12533 8.99211 0
      vertex 8.18738 8.98229 12
      vertex 8.12533 8.99211 12
    endloop
  endfacet
  facet normal -0.156437 -0.987688 -0
    outer loop
      vertex 8.18738 8.98229 12
      vertex 8.12533 8.99211 0
      vertex 8.18738 8.98229 0
    endloop
  endfacet
  facet normal -0.397158 -0.91775 0
    outer loop
      vertex 8.36812 8.92978 0
      vertex 8.42578 8.90483 12
      vertex 8.36812 8.92978 12
    endloop
  endfacet
  facet normal -0.397158 -0.91775 -0
    outer loop
      vertex 8.42578 8.90483 12
      vertex 8.36812 8.92978 0
      vertex 8.42578 8.90483 0
    endloop
  endfacet
  facet normal -0.509049 -0.860737 0
    outer loop
      vertex 8.48175 8.87631 0
      vertex 8.53583 8.84433 12
      vertex 8.48175 8.87631 12
    endloop
  endfacet
  facet normal -0.509049 -0.860737 -0
    outer loop
      vertex 8.53583 8.84433 12
      vertex 8.48175 8.87631 0
      vertex 8.53583 8.84433 0
    endloop
  endfacet
  facet normal -0.562084 -0.82708 0
    outer loop
      vertex 8.53583 8.84433 0
      vertex 8.58778 8.80902 12
      vertex 8.53583 8.84433 12
    endloop
  endfacet
  facet normal -0.562084 -0.82708 -0
    outer loop
      vertex 8.58778 8.80902 12
      vertex 8.53583 8.84433 0
      vertex 8.58778 8.80902 0
    endloop
  endfacet
  facet normal -0.278993 -0.960293 0
    outer loop
      vertex 8.24869 8.96858 0
      vertex 8.30902 8.95106 12
      vertex 8.24869 8.96858 12
    endloop
  endfacet
  facet normal -0.278993 -0.960293 -0
    outer loop
      vertex 8.30902 8.95106 12
      vertex 8.24869 8.96858 0
      vertex 8.30902 8.95106 0
    endloop
  endfacet
  facet normal -0.33874 -0.94088 0
    outer loop
      vertex 8.30902 8.95106 0
      vertex 8.36812 8.92978 12
      vertex 8.30902 8.95106 12
    endloop
  endfacet
  facet normal -0.33874 -0.94088 -0
    outer loop
      vertex 8.36812 8.92978 12
      vertex 8.30902 8.95106 0
      vertex 8.36812 8.92978 0
    endloop
  endfacet
endsolid OpenSCAD_Model
