solid OpenSCAD_Model
  facet normal 0.996195 0 0.0871558
    outer loop
      vertex 8.42547 1 13.7
      vertex 8.42547 -1.5 13.7
      vertex 9.29713 1 3.7369
    endloop
  endfacet
  facet normal 0.996195 0 0.0871558
    outer loop
      vertex 9.29713 9 3.7369
      vertex 8.42547 11.5 13.7
      vertex 8.42547 9 13.7
    endloop
  endfacet
  facet normal 0.996195 4.3232e-08 0.0871558
    outer loop
      vertex 8.42547 11.5 13.7
      vertex 9.29713 9 3.7369
      vertex 9.62406 11.5 0
    endloop
  endfacet
  facet normal 0.996195 -0 0.0871557
    outer loop
      vertex 9.29713 1 3.7369
      vertex 9.62406 11.5 0
      vertex 9.29713 9 3.7369
    endloop
  endfacet
  facet normal 0.996195 0 0.0871557
    outer loop
      vertex 9.29713 1 3.7369
      vertex 9.62406 -1.5 0
      vertex 9.62406 11.5 0
    endloop
  endfacet
  facet normal 0.996195 -4.3232e-08 0.0871558
    outer loop
      vertex 9.62406 -1.5 0
      vertex 9.29713 1 3.7369
      vertex 8.42547 -1.5 13.7
    endloop
  endfacet
  facet normal 0 1 0
    outer loop
      vertex 8.41948 11.5 0
      vertex 8.42547 11.5 13.7
      vertex 9.62406 11.5 0
    endloop
  endfacet
  facet normal 0 1 0
    outer loop
      vertex 8.42547 11.5 13.7
      vertex 8.41948 11.5 0
      vertex 7.22089 11.5 13.7
    endloop
  endfacet
  facet normal -0.438482 -0.897921 -0.0383622
    outer loop
      vertex 3.3 1 0
      vertex 8.27601 -1.5 1.63993
      vertex 3.19541 1 1.19543
    endloop
  endfacet
  facet normal -0.438482 -0.897921 -0.0383621
    outer loop
      vertex 8.27601 -1.5 1.63993
      vertex 3.3 1 0
      vertex 8.41948 -1.5 0
    endloop
  endfacet
  facet normal -0.996195 0 -0.0871557
    outer loop
      vertex 3.3 7 0
      vertex 3.19541 9 1.19543
      vertex 3.3 9 0
    endloop
  endfacet
  facet normal -0.996195 1.70856e-08 -0.0871557
    outer loop
      vertex 2.31726 7 11.2327
      vertex 3.19541 9 1.19543
      vertex 3.3 7 0
    endloop
  endfacet
  facet normal -0.996195 0 -0.0871557
    outer loop
      vertex 3.19541 9 1.19543
      vertex 2.31726 7 11.2327
      vertex 2.31726 9 11.2327
    endloop
  endfacet
  facet normal -0.996195 0 -0.0871557
    outer loop
      vertex 3.19541 1 1.19543
      vertex 3.3 3 0
      vertex 3.3 1 0
    endloop
  endfacet
  facet normal -0.996195 -1.70856e-08 -0.0871557
    outer loop
      vertex 3.3 3 0
      vertex 3.19541 1 1.19543
      vertex 2.31726 3 11.2327
    endloop
  endfacet
  facet normal -0.996195 -0 -0.0871557
    outer loop
      vertex 2.31726 3 11.2327
      vertex 3.19541 1 1.19543
      vertex 2.31726 1 11.2327
    endloop
  endfacet
  facet normal -0.438482 0.897921 -0.0383622
    outer loop
      vertex 7.22089 11.5 13.7
      vertex 7.08057 10.9118 1.53534
      vertex 6.0163 10.9118 13.7
    endloop
  endfacet
  facet normal -0.438482 0.897921 -0.0383622
    outer loop
      vertex 8.41948 11.5 0
      vertex 7.08057 10.9118 1.53534
      vertex 7.22089 11.5 13.7
    endloop
  endfacet
  facet normal -0.438482 0.897921 -0.0383624
    outer loop
      vertex 3.3 9 0
      vertex 7.08057 10.9118 1.53534
      vertex 8.41948 11.5 0
    endloop
  endfacet
  facet normal -0.438482 0.897921 -0.0383622
    outer loop
      vertex 7.08057 10.9118 1.53534
      vertex 3.3 9 0
      vertex 3.19541 9 1.19543
    endloop
  endfacet
  facet normal 0 -1 0
    outer loop
      vertex 8.27601 -1.5 1.63993
      vertex 8.42547 -1.5 13.7
      vertex 7.22089 -1.5 13.7
    endloop
  endfacet
  facet normal 0 -1 0
    outer loop
      vertex 9.62406 -1.5 0
      vertex 8.27601 -1.5 1.63993
      vertex 8.41948 -1.5 0
    endloop
  endfacet
  facet normal 0 -1 0
    outer loop
      vertex 8.27601 -1.5 1.63993
      vertex 9.62406 -1.5 0
      vertex 8.42547 -1.5 13.7
    endloop
  endfacet
  facet normal -0.996195 0 -0.0871554
    outer loop
      vertex 8.27601 0.9375 1.63993
      vertex 8.27601 9.0625 1.63993
      vertex 8.41948 9.0625 0
    endloop
  endfacet
  facet normal -0.996195 -0 -0.0871558
    outer loop
      vertex 8.27601 9.0625 1.63993
      vertex 8.27601 0.9375 1.63993
      vertex 8.10169 9 3.63232
    endloop
  endfacet
  facet normal -0.996195 0 -0.0871554
    outer loop
      vertex 8.27601 0.9375 1.63993
      vertex 8.41948 9.0625 0
      vertex 8.41948 0.9375 0
    endloop
  endfacet
  facet normal -0.996195 -0 -0.0871558
    outer loop
      vertex 8.10169 9 3.63232
      vertex 8.27601 0.9375 1.63993
      vertex 8.10169 1 3.63232
    endloop
  endfacet
  facet normal -0.996195 0 -0.0871558
    outer loop
      vertex 8.27601 -1.5 1.63993
      vertex 8.10169 1 3.63232
      vertex 8.27601 0.9375 1.63993
    endloop
  endfacet
  facet normal -0.996195 -3.67115e-08 -0.0871558
    outer loop
      vertex 7.22089 -1.5 13.7
      vertex 8.10169 1 3.63232
      vertex 8.27601 -1.5 1.63993
    endloop
  endfacet
  facet normal -0.996195 0 -0.0871558
    outer loop
      vertex 8.10169 1 3.63232
      vertex 7.22089 -1.5 13.7
      vertex 7.22089 1 13.7
    endloop
  endfacet
  facet normal -0.996195 0 -0.0871558
    outer loop
      vertex 8.10169 9 3.63232
      vertex 8.27601 10.3 1.63993
      vertex 8.27601 9.0625 1.63993
    endloop
  endfacet
  facet normal -0.996195 7.05991e-08 -0.0871558
    outer loop
      vertex 8.27601 10.3 1.63993
      vertex 8.10169 9 3.63232
      vertex 7.22089 10.3 13.7
    endloop
  endfacet
  facet normal -0.996195 -0 -0.0871558
    outer loop
      vertex 7.22089 10.3 13.7
      vertex 8.10169 9 3.63232
      vertex 7.22089 9 13.7
    endloop
  endfacet
  facet normal 0.475213 0.878888 0.0415757
    outer loop
      vertex 4.50458 3 0
      vertex 8.17639 0.9375 1.63121
      vertex 8.3191 0.9375 0
    endloop
  endfacet
  facet normal 0.475213 0.878888 0.0415758
    outer loop
      vertex 8.17639 0.9375 1.63121
      vertex 4.50458 3 0
      vertex 4.39085 3 1.30002
    endloop
  endfacet
  facet normal 0.475213 -0.878888 0.0415758
    outer loop
      vertex 4.50458 7 0
      vertex 8.17639 9.0625 1.63121
      vertex 4.39085 7 1.30002
    endloop
  endfacet
  facet normal 0.475213 -0.878888 0.0415757
    outer loop
      vertex 8.17639 9.0625 1.63121
      vertex 4.50458 7 0
      vertex 8.3191 9.0625 0
    endloop
  endfacet
  facet normal 0 -1 0
    outer loop
      vertex 8.3191 9.0625 0
      vertex 8.27601 9.0625 1.63993
      vertex 8.17639 9.0625 1.63121
    endloop
  endfacet
  facet normal 0 -1 0
    outer loop
      vertex 8.27601 9.0625 1.63993
      vertex 8.3191 9.0625 0
      vertex 8.41948 9.0625 0
    endloop
  endfacet
  facet normal 0 1 -0
    outer loop
      vertex 8.3191 0.9375 0
      vertex 8.27601 0.9375 1.63993
      vertex 8.41948 0.9375 0
    endloop
  endfacet
  facet normal 0 1 0
    outer loop
      vertex 8.27601 0.9375 1.63993
      vertex 8.3191 0.9375 0
      vertex 8.17639 0.9375 1.63121
    endloop
  endfacet
  facet normal 0 1 -0
    outer loop
      vertex 1.95 3 15.4306
      vertex 1.95 3 16.5
      vertex 1.95 3 17.7
    endloop
  endfacet
  facet normal 0 1 -0
    outer loop
      vertex 3.3 3 0
      vertex 3.15 3 10.4
      vertex 4.39085 3 1.30002
    endloop
  endfacet
  facet normal 0 1 0
    outer loop
      vertex 3.3 3 0
      vertex 4.39085 3 1.30002
      vertex 4.50458 3 0
    endloop
  endfacet
  facet normal 0 1 0
    outer loop
      vertex 3.15 3 10.4
      vertex 3.3 3 0
      vertex 2.31726 3 11.2327
    endloop
  endfacet
  facet normal 0 1 0
    outer loop
      vertex 3.15 3 15.483
      vertex 4.39085 3 1.30002
      vertex 3.15 3 10.4
    endloop
  endfacet
  facet normal 0 -1 0
    outer loop
      vertex 1.95 7 16.5
      vertex 1.95 7 15.4306
      vertex 1.95 7 17.7
    endloop
  endfacet
  facet normal 0 -1 0
    outer loop
      vertex 3.3 7 0
      vertex 3.15 7 10.4
      vertex 2.31726 7 11.2327
    endloop
  endfacet
  facet normal 0 -1 0
    outer loop
      vertex 3.15 7 10.4
      vertex 3.3 7 0
      vertex 4.39085 7 1.30002
    endloop
  endfacet
  facet normal 0 -1 -0
    outer loop
      vertex 4.39085 7 1.30002
      vertex 3.3 7 0
      vertex 4.50458 7 0
    endloop
  endfacet
  facet normal 0 -1 0
    outer loop
      vertex 3.15 7 15.483
      vertex 3.15 7 10.4
      vertex 4.39085 7 1.30002
    endloop
  endfacet
  facet normal 0 -1 0
    outer loop
      vertex 7.08057 10.3 1.53534
      vertex 7.22089 10.3 13.7
      vertex 6.0163 10.3 13.7
    endloop
  endfacet
  facet normal 0 -1 -0
    outer loop
      vertex 7.22089 10.3 13.7
      vertex 7.08057 10.3 1.53534
      vertex 8.27601 10.3 1.63993
    endloop
  endfacet
  facet normal -0.0871557 0 0.996195
    outer loop
      vertex 7.08057 10.9118 1.53534
      vertex 4.39085 9 1.30002
      vertex 7.08057 10.3 1.53534
    endloop
  endfacet
  facet normal -0.0871557 -4.19285e-08 0.996195
    outer loop
      vertex 4.39085 9 1.30002
      vertex 7.08057 10.9118 1.53534
      vertex 3.19541 9 1.19543
    endloop
  endfacet
  facet normal -0.0871568 0 0.996195
    outer loop
      vertex 8.27601 10.3 1.63993
      vertex 8.17639 9.0625 1.63121
      vertex 8.27601 9.0625 1.63993
    endloop
  endfacet
  facet normal -0.0871558 -7.91654e-08 0.996195
    outer loop
      vertex 7.08057 10.3 1.53534
      vertex 8.17639 9.0625 1.63121
      vertex 8.27601 10.3 1.63993
    endloop
  endfacet
  facet normal -0.0871557 -1.23163e-08 0.996195
    outer loop
      vertex 4.39085 9 1.30002
      vertex 8.17639 9.0625 1.63121
      vertex 7.08057 10.3 1.53534
    endloop
  endfacet
  facet normal -0.0871557 0 0.996195
    outer loop
      vertex 8.17639 9.0625 1.63121
      vertex 4.39085 9 1.30002
      vertex 4.39085 7 1.30002
    endloop
  endfacet
  facet normal -0.0871568 0 0.996195
    outer loop
      vertex 8.17639 0.9375 1.63121
      vertex 8.27601 -1.5 1.63993
      vertex 8.27601 0.9375 1.63993
    endloop
  endfacet
  facet normal -0.0871557 0 0.996195
    outer loop
      vertex 4.39085 1 1.30002
      vertex 8.17639 0.9375 1.63121
      vertex 4.39085 3 1.30002
    endloop
  endfacet
  facet normal -0.0871557 4.32979e-08 0.996195
    outer loop
      vertex 8.17639 0.9375 1.63121
      vertex 4.39085 1 1.30002
      vertex 8.27601 -1.5 1.63993
    endloop
  endfacet
  facet normal -0.0871557 7.95652e-08 0.996195
    outer loop
      vertex 8.27601 -1.5 1.63993
      vertex 4.39085 1 1.30002
      vertex 3.19541 1 1.19543
    endloop
  endfacet
  facet normal -0.996195 0 -0.0871558
    outer loop
      vertex 7.08057 10.3 1.53534
      vertex 6.0163 10.9118 13.7
      vertex 7.08057 10.9118 1.53534
    endloop
  endfacet
  facet normal -0.996195 -0 -0.0871558
    outer loop
      vertex 6.0163 10.9118 13.7
      vertex 7.08057 10.3 1.53534
      vertex 6.0163 10.3 13.7
    endloop
  endfacet
  facet normal 0 -1 0
    outer loop
      vertex 8.10169 9 3.63232
      vertex 8.42547 9 13.7
      vertex 7.22089 9 13.7
    endloop
  endfacet
  facet normal 0 -1 -0
    outer loop
      vertex 8.42547 9 13.7
      vertex 8.10169 9 3.63232
      vertex 9.29713 9 3.7369
    endloop
  endfacet
  facet normal -0.0871557 0 0.996195
    outer loop
      vertex 8.10169 9 3.63232
      vertex 9.29713 1 3.7369
      vertex 9.29713 9 3.7369
    endloop
  endfacet
  facet normal -0.0871557 0 0.996195
    outer loop
      vertex 9.29713 1 3.7369
      vertex 8.10169 9 3.63232
      vertex 8.10169 1 3.63232
    endloop
  endfacet
  facet normal 0 1 0
    outer loop
      vertex 8.10169 1 3.63232
      vertex 8.42547 1 13.7
      vertex 9.29713 1 3.7369
    endloop
  endfacet
  facet normal 0 1 0
    outer loop
      vertex 8.42547 1 13.7
      vertex 8.10169 1 3.63232
      vertex 7.22089 1 13.7
    endloop
  endfacet
  facet normal -0 0 1
    outer loop
      vertex 6.0163 10.9118 13.7
      vertex 7.22089 10.3 13.7
      vertex 7.22089 11.5 13.7
    endloop
  endfacet
  facet normal 0 0 1
    outer loop
      vertex 7.22089 10.3 13.7
      vertex 6.0163 10.9118 13.7
      vertex 6.0163 10.3 13.7
    endloop
  endfacet
  facet normal 0 0 1
    outer loop
      vertex 7.22089 10.3 13.7
      vertex 8.42547 11.5 13.7
      vertex 7.22089 11.5 13.7
    endloop
  endfacet
  facet normal 0 0 1
    outer loop
      vertex 8.42547 11.5 13.7
      vertex 7.22089 10.3 13.7
      vertex 8.42547 9 13.7
    endloop
  endfacet
  facet normal 0 0 1
    outer loop
      vertex 8.42547 9 13.7
      vertex 7.22089 10.3 13.7
      vertex 7.22089 9 13.7
    endloop
  endfacet
  facet normal -0 0 1
    outer loop
      vertex 7.22089 1 13.7
      vertex 8.42547 -1.5 13.7
      vertex 8.42547 1 13.7
    endloop
  endfacet
  facet normal 0 0 1
    outer loop
      vertex 8.42547 -1.5 13.7
      vertex 7.22089 1 13.7
      vertex 7.22089 -1.5 13.7
    endloop
  endfacet
  facet normal 0 0 -1
    outer loop
      vertex 8.41948 -1.5 0
      vertex 8.3191 0.9375 0
      vertex 8.41948 0.9375 0
    endloop
  endfacet
  facet normal 0 0 -1
    outer loop
      vertex 3.3 1 0
      vertex 8.3191 0.9375 0
      vertex 8.41948 -1.5 0
    endloop
  endfacet
  facet normal 0 0 -1
    outer loop
      vertex 8.3191 0.9375 0
      vertex 3.3 1 0
      vertex 4.50458 3 0
    endloop
  endfacet
  facet normal -0 0 -1
    outer loop
      vertex 4.50458 3 0
      vertex 3.3 1 0
      vertex 3.3 3 0
    endloop
  endfacet
  facet normal 0 0 -1
    outer loop
      vertex 8.41948 0.9375 0
      vertex 9.62406 -1.5 0
      vertex 8.41948 -1.5 0
    endloop
  endfacet
  facet normal 0 0 -1
    outer loop
      vertex 9.62406 -1.5 0
      vertex 8.41948 0.9375 0
      vertex 9.62406 11.5 0
    endloop
  endfacet
  facet normal 0 0 -1
    outer loop
      vertex 8.41948 9.0625 0
      vertex 9.62406 11.5 0
      vertex 8.41948 0.9375 0
    endloop
  endfacet
  facet normal 0 0 -1
    outer loop
      vertex 8.41948 9.0625 0
      vertex 8.41948 11.5 0
      vertex 9.62406 11.5 0
    endloop
  endfacet
  facet normal 0 0 -1
    outer loop
      vertex 8.3191 9.0625 0
      vertex 8.41948 11.5 0
      vertex 8.41948 9.0625 0
    endloop
  endfacet
  facet normal 0 0 -1
    outer loop
      vertex 3.3 9 0
      vertex 8.3191 9.0625 0
      vertex 4.50458 7 0
    endloop
  endfacet
  facet normal 0 0 -1
    outer loop
      vertex 3.3 9 0
      vertex 4.50458 7 0
      vertex 3.3 7 0
    endloop
  endfacet
  facet normal -0 0 -1
    outer loop
      vertex 8.3191 9.0625 0
      vertex 3.3 9 0
      vertex 8.41948 11.5 0
    endloop
  endfacet
  facet normal -1 0 0
    outer loop
      vertex 0 2.4 11.6085
      vertex 0 0 11.6085
      vertex 0 2.4 16.5
    endloop
  endfacet
  facet normal -1 0 0
    outer loop
      vertex 0 7.6 16.5
      vertex 0 10 11.6085
      vertex 0 7.6 11.6085
    endloop
  endfacet
  facet normal -1 0 0
    outer loop
      vertex 0 10 11.6085
      vertex 0 7.6 16.5
      vertex 0 10 17.7
    endloop
  endfacet
  facet normal -1 0 0
    outer loop
      vertex 0 2.4 16.5
      vertex 0 10 17.7
      vertex 0 7.6 16.5
    endloop
  endfacet
  facet normal -1 0 0
    outer loop
      vertex 0 2.4 16.5
      vertex 0 0 17.7
      vertex 0 10 17.7
    endloop
  endfacet
  facet normal -1 0 0
    outer loop
      vertex 0 0 17.7
      vertex 0 2.4 16.5
      vertex 0 0 11.6085
    endloop
  endfacet
  facet normal -1 0 0
    outer loop
      vertex 0 7.6 0
      vertex 0 10 9.91147
      vertex 0 10 0
    endloop
  endfacet
  facet normal -1 -0 0
    outer loop
      vertex 0 10 9.91147
      vertex 0 7.6 0
      vertex 0 7.6 9.91147
    endloop
  endfacet
  facet normal -1 0 0
    outer loop
      vertex 0 0 0
      vertex 0 2.4 9.91147
      vertex 0 2.4 0
    endloop
  endfacet
  facet normal -1 -0 0
    outer loop
      vertex 0 2.4 9.91147
      vertex 0 0 0
      vertex 0 0 9.91147
    endloop
  endfacet
  facet normal -0 0 1
    outer loop
      vertex 1.95 3 17.7
      vertex 2.95603 1 17.7
      vertex 2.95603 3 17.7
    endloop
  endfacet
  facet normal 0 0 1
    outer loop
      vertex 2.95603 1 17.7
      vertex 1.95 3 17.7
      vertex 1.95 1 17.7
    endloop
  endfacet
  facet normal -0 0 1
    outer loop
      vertex 1.95 9 17.7
      vertex 2.95603 7 17.7
      vertex 2.95603 9 17.7
    endloop
  endfacet
  facet normal 0 0 1
    outer loop
      vertex 2.95603 7 17.7
      vertex 1.95 9 17.7
      vertex 1.95 7 17.7
    endloop
  endfacet
  facet normal -0 0 1
    outer loop
      vertex 0 10 17.7
      vertex 1.95 9 17.7
      vertex 1.95 10 17.7
    endloop
  endfacet
  facet normal 0 0 1
    outer loop
      vertex 1.95 9 17.7
      vertex 0 10 17.7
      vertex 1.95 7 17.7
    endloop
  endfacet
  facet normal 0 0 1
    outer loop
      vertex 1.95 7 17.7
      vertex 0 10 17.7
      vertex 1.95 3 17.7
    endloop
  endfacet
  facet normal 0 0 1
    outer loop
      vertex 0 0 17.7
      vertex 1.95 3 17.7
      vertex 0 10 17.7
    endloop
  endfacet
  facet normal 0 0 1
    outer loop
      vertex 1.95 3 17.7
      vertex 0 0 17.7
      vertex 1.95 1 17.7
    endloop
  endfacet
  facet normal 0 0 1
    outer loop
      vertex 1.95 1 17.7
      vertex 0 0 17.7
      vertex 1.95 0 17.7
    endloop
  endfacet
  facet normal 1 -0 0
    outer loop
      vertex 1.95 0 17.7
      vertex 1.95 1 16.5
      vertex 1.95 1 17.7
    endloop
  endfacet
  facet normal 1 0 0
    outer loop
      vertex 1.95 1 16.5
      vertex 1.95 0 17.7
      vertex 1.95 0 16.5
    endloop
  endfacet
  facet normal 1 -0 0
    outer loop
      vertex 1.95 9 17.7
      vertex 1.95 10 16.5
      vertex 1.95 10 17.7
    endloop
  endfacet
  facet normal 1 0 0
    outer loop
      vertex 1.95 10 16.5
      vertex 1.95 9 17.7
      vertex 1.95 9 16.5
    endloop
  endfacet
  facet normal 1 -0 0
    outer loop
      vertex 1.95 3 17.7
      vertex 1.95 7 16.5
      vertex 1.95 7 17.7
    endloop
  endfacet
  facet normal 1 0 0
    outer loop
      vertex 1.95 7 16.5
      vertex 1.95 3 17.7
      vertex 1.95 3 16.5
    endloop
  endfacet
  facet normal -1 0 0
    outer loop
      vertex 1.95 1 15.4306
      vertex 1.95 3 16.5
      vertex 1.95 3 15.4306
    endloop
  endfacet
  facet normal -1 -0 0
    outer loop
      vertex 1.95 3 16.5
      vertex 1.95 1 15.4306
      vertex 1.95 1 16.5
    endloop
  endfacet
  facet normal -1 0 0
    outer loop
      vertex 1.95 7 15.4306
      vertex 1.95 9 16.5
      vertex 1.95 9 15.4306
    endloop
  endfacet
  facet normal -1 -0 0
    outer loop
      vertex 1.95 9 16.5
      vertex 1.95 7 15.4306
      vertex 1.95 7 16.5
    endloop
  endfacet
  facet normal 0 1 0
    outer loop
      vertex 1.55 10 11.6
      vertex 0.848528 10 10.76
      vertex 1.2 10 11.6
    endloop
  endfacet
  facet normal 0 1 -0
    outer loop
      vertex 1.55 10 0
      vertex 0.848528 10 10.76
      vertex 1.55 10 11.6
    endloop
  endfacet
  facet normal 0 1 0
    outer loop
      vertex 1.55 10 0
      vertex 0 10 9.91147
      vertex 0.848528 10 10.76
    endloop
  endfacet
  facet normal 0 1 0
    outer loop
      vertex 0 10 9.91147
      vertex 1.55 10 0
      vertex 0 10 0
    endloop
  endfacet
  facet normal 0 1 0
    outer loop
      vertex 1.2 10 16.5
      vertex 1.95 10 17.7
      vertex 1.95 10 16.5
    endloop
  endfacet
  facet normal 0 1 0
    outer loop
      vertex 1.95 10 17.7
      vertex 1.2 10 16.5
      vertex 0 10 17.7
    endloop
  endfacet
  facet normal 0 1 0
    outer loop
      vertex 1.2 10 16.5
      vertex 0 10 11.6085
      vertex 0 10 17.7
    endloop
  endfacet
  facet normal 0 1 -0
    outer loop
      vertex 1.2 10 11.6
      vertex 0 10 11.6085
      vertex 1.2 10 16.5
    endloop
  endfacet
  facet normal 0 1 0
    outer loop
      vertex 0 10 11.6085
      vertex 1.2 10 11.6
      vertex 0.848528 10 10.76
    endloop
  endfacet
  facet normal 0 0 -1
    outer loop
      vertex 0 7.6 0
      vertex 1.55 10 0
      vertex 1.55 7.6 0
    endloop
  endfacet
  facet normal -0 0 -1
    outer loop
      vertex 1.55 10 0
      vertex 0 7.6 0
      vertex 0 10 0
    endloop
  endfacet
  facet normal 0 0 -1
    outer loop
      vertex 0 0 0
      vertex 1.55 2.4 0
      vertex 1.55 0 0
    endloop
  endfacet
  facet normal -0 0 -1
    outer loop
      vertex 1.55 2.4 0
      vertex 0 0 0
      vertex 0 2.4 0
    endloop
  endfacet
  facet normal 0 -1 0
    outer loop
      vertex 0 0 17.7
      vertex 1.2 0 16.5
      vertex 1.95 0 17.7
    endloop
  endfacet
  facet normal 0 -1 0
    outer loop
      vertex 0 0 11.6085
      vertex 1.2 0 16.5
      vertex 0 0 17.7
    endloop
  endfacet
  facet normal 0 -1 0
    outer loop
      vertex 0 0 11.6085
      vertex 1.2 0 11.6
      vertex 1.2 0 16.5
    endloop
  endfacet
  facet normal 0 -1 0
    outer loop
      vertex 0.848528 0 10.76
      vertex 1.2 0 11.6
      vertex 0 0 11.6085
    endloop
  endfacet
  facet normal 0 -1 0
    outer loop
      vertex 0.848528 0 10.76
      vertex 1.55 0 11.6
      vertex 1.2 0 11.6
    endloop
  endfacet
  facet normal 0 -1 0
    outer loop
      vertex 1.55 0 0
      vertex 0 0 9.91147
      vertex 0 0 0
    endloop
  endfacet
  facet normal 0 -1 0
    outer loop
      vertex 0 0 9.91147
      vertex 1.55 0 0
      vertex 0.848528 0 10.76
    endloop
  endfacet
  facet normal 0 -1 0
    outer loop
      vertex 0.848528 0 10.76
      vertex 1.55 0 0
      vertex 1.55 0 11.6
    endloop
  endfacet
  facet normal 0 -1 -0
    outer loop
      vertex 1.95 0 17.7
      vertex 1.2 0 16.5
      vertex 1.95 0 16.5
    endloop
  endfacet
  facet normal 1 -0 0
    outer loop
      vertex 1.55 7.6 11.6
      vertex 1.55 10 0
      vertex 1.55 10 11.6
    endloop
  endfacet
  facet normal 1 0 0
    outer loop
      vertex 1.55 10 0
      vertex 1.55 7.6 11.6
      vertex 1.55 7.6 0
    endloop
  endfacet
  facet normal 1 -0 0
    outer loop
      vertex 1.55 0 11.6
      vertex 1.55 2.4 0
      vertex 1.55 2.4 11.6
    endloop
  endfacet
  facet normal 1 0 0
    outer loop
      vertex 1.55 2.4 0
      vertex 1.55 0 11.6
      vertex 1.55 0 0
    endloop
  endfacet
  facet normal -1 0 0
    outer loop
      vertex 1.95 10 11.6
      vertex 1.95 9 15.4306
      vertex 1.95 10 17.7
    endloop
  endfacet
  facet normal -1 0 0
    outer loop
      vertex 1.95 10 11.6
      vertex 1.95 7 15.4306
      vertex 1.95 9 15.4306
    endloop
  endfacet
  facet normal -1 0 0
    outer loop
      vertex 1.95 7 15.4306
      vertex 1.95 3 15.4306
      vertex 1.95 7 17.7
    endloop
  endfacet
  facet normal -1 0 0
    outer loop
      vertex 1.95 10 11.6
      vertex 1.95 3 15.4306
      vertex 1.95 7 15.4306
    endloop
  endfacet
  facet normal -1 0 0
    outer loop
      vertex 1.95 0 11.6
      vertex 1.95 3 15.4306
      vertex 1.95 10 11.6
    endloop
  endfacet
  facet normal -1 -0 0
    outer loop
      vertex 1.95 3 15.4306
      vertex 1.95 0 11.6
      vertex 1.95 1 15.4306
    endloop
  endfacet
  facet normal -1 0 0
    outer loop
      vertex 1.95 0 17.7
      vertex 1.95 1 15.4306
      vertex 1.95 0 11.6
    endloop
  endfacet
  facet normal -1 0 0
    outer loop
      vertex 1.95 1 15.4306
      vertex 1.95 0 17.7
      vertex 1.95 1 17.7
    endloop
  endfacet
  facet normal -1 -0 0
    outer loop
      vertex 1.95 10 17.7
      vertex 1.95 9 15.4306
      vertex 1.95 9 17.7
    endloop
  endfacet
  facet normal -1 -0 0
    outer loop
      vertex 1.95 7 17.7
      vertex 1.95 3 15.4306
      vertex 1.95 3 17.7
    endloop
  endfacet
  facet normal -0 0 1
    outer loop
      vertex 1.95 7 17.7
      vertex 2.95603 3 17.7
      vertex 2.95603 7 17.7
    endloop
  endfacet
  facet normal 0 0 1
    outer loop
      vertex 2.95603 3 17.7
      vertex 1.95 7 17.7
      vertex 1.95 3 17.7
    endloop
  endfacet
  facet normal 0 0 1
    outer loop
      vertex 2.95603 7 17.7
      vertex 3.15 10 17.7
      vertex 2.95603 9 17.7
    endloop
  endfacet
  facet normal -0 0 1
    outer loop
      vertex 1.95 10 17.7
      vertex 2.95603 9 17.7
      vertex 3.15 10 17.7
    endloop
  endfacet
  facet normal 0 0 1
    outer loop
      vertex 2.95603 9 17.7
      vertex 1.95 10 17.7
      vertex 1.95 9 17.7
    endloop
  endfacet
  facet normal 0 0 1
    outer loop
      vertex 3.15 10 17.7
      vertex 2.95603 7 17.7
      vertex 3.15 0 17.7
    endloop
  endfacet
  facet normal -0 0 1
    outer loop
      vertex 2.95603 3 17.7
      vertex 3.15 0 17.7
      vertex 2.95603 7 17.7
    endloop
  endfacet
  facet normal -0 0 1
    outer loop
      vertex 2.95603 1 17.7
      vertex 3.15 0 17.7
      vertex 2.95603 3 17.7
    endloop
  endfacet
  facet normal 0 0 1
    outer loop
      vertex 1.95 0 17.7
      vertex 2.95603 1 17.7
      vertex 1.95 1 17.7
    endloop
  endfacet
  facet normal 0 0 1
    outer loop
      vertex 2.95603 1 17.7
      vertex 1.95 0 17.7
      vertex 3.15 0 17.7
    endloop
  endfacet
  facet normal 1 0 0
    outer loop
      vertex 3.15 10 17.7
      vertex 3.15 9 15.483
      vertex 3.15 10 11.6
    endloop
  endfacet
  facet normal 1 0 0
    outer loop
      vertex 3.15 10 17.7
      vertex 3.15 7 15.483
      vertex 3.15 9 15.483
    endloop
  endfacet
  facet normal 1 0 0
    outer loop
      vertex 3.15 7 15.483
      vertex 3.15 3 15.483
      vertex 3.15 7 10.4
    endloop
  endfacet
  facet normal 1 0 0
    outer loop
      vertex 3.15 10 17.7
      vertex 3.15 3 15.483
      vertex 3.15 7 15.483
    endloop
  endfacet
  facet normal 1 -0 0
    outer loop
      vertex 3.15 0 17.7
      vertex 3.15 3 15.483
      vertex 3.15 10 17.7
    endloop
  endfacet
  facet normal 1 0 0
    outer loop
      vertex 3.15 3 15.483
      vertex 3.15 0 17.7
      vertex 3.15 1 15.483
    endloop
  endfacet
  facet normal 1 0 0
    outer loop
      vertex 3.15 0 11.6
      vertex 3.15 1 15.483
      vertex 3.15 0 17.7
    endloop
  endfacet
  facet normal 1 0 0
    outer loop
      vertex 3.15 1 15.483
      vertex 3.15 0 11.6
      vertex 3.15 1 10.6
    endloop
  endfacet
  facet normal 1 0 0
    outer loop
      vertex 3.15 10 11.6
      vertex 3.15 9 15.483
      vertex 3.15 9 10.6
    endloop
  endfacet
  facet normal 1 0 0
    outer loop
      vertex 3.15 7 10.4
      vertex 3.15 3 15.483
      vertex 3.15 3 10.4
    endloop
  endfacet
  facet normal 0 1 -0
    outer loop
      vertex 3.15 10 11.6
      vertex 1.95 10 17.7
      vertex 3.15 10 17.7
    endloop
  endfacet
  facet normal 0 1 0
    outer loop
      vertex 1.95 10 17.7
      vertex 3.15 10 11.6
      vertex 1.95 10 11.6
    endloop
  endfacet
  facet normal 0 -1 0
    outer loop
      vertex 1.95 0 11.6
      vertex 3.15 0 17.7
      vertex 1.95 0 17.7
    endloop
  endfacet
  facet normal 0 -1 -0
    outer loop
      vertex 3.15 0 17.7
      vertex 1.95 0 11.6
      vertex 3.15 0 11.6
    endloop
  endfacet
  facet normal -0.707107 0 -0.707107
    outer loop
      vertex 2.95 1 10.6
      vertex 1.95 0 11.6
      vertex 2.31726 1 11.2327
    endloop
  endfacet
  facet normal -0.707107 -0 -0.707107
    outer loop
      vertex 3.15 7 10.4
      vertex 3.15 3 10.4
      vertex 2.31726 7 11.2327
    endloop
  endfacet
  facet normal -0.707107 0 -0.707107
    outer loop
      vertex 2.31726 9 11.2327
      vertex 1.95 10 11.6
      vertex 2.95 9 10.6
    endloop
  endfacet
  facet normal -0.707107 0 -0.707107
    outer loop
      vertex 2.31726 7 11.2327
      vertex 1.95 10 11.6
      vertex 2.31726 9 11.2327
    endloop
  endfacet
  facet normal -0.707107 0 -0.707107
    outer loop
      vertex 2.31726 3 11.2327
      vertex 2.31726 7 11.2327
      vertex 3.15 3 10.4
    endloop
  endfacet
  facet normal -0.707107 0 -0.707107
    outer loop
      vertex 2.31726 3 11.2327
      vertex 1.95 10 11.6
      vertex 2.31726 7 11.2327
    endloop
  endfacet
  facet normal -0.707107 0 -0.707107
    outer loop
      vertex 1.95 0 11.6
      vertex 2.31726 3 11.2327
      vertex 2.31726 1 11.2327
    endloop
  endfacet
  facet normal -0.707107 0 -0.707107
    outer loop
      vertex 2.31726 3 11.2327
      vertex 1.95 0 11.6
      vertex 1.95 10 11.6
    endloop
  endfacet
  facet normal 0 -0.707107 -0.707107
    outer loop
      vertex 2.95 1 10.6
      vertex 3.15 0 11.6
      vertex 1.95 0 11.6
    endloop
  endfacet
  facet normal 0 -0.707107 -0.707107
    outer loop
      vertex 3.15 0 11.6
      vertex 2.95 1 10.6
      vertex 3.15 1 10.6
    endloop
  endfacet
  facet normal 0 0.707106 -0.707107
    outer loop
      vertex 2.95 9 10.6
      vertex 3.15 10 11.6
      vertex 3.15 9 10.6
    endloop
  endfacet
  facet normal 0 0.707106 -0.707107
    outer loop
      vertex 3.15 10 11.6
      vertex 2.95 9 10.6
      vertex 1.95 10 11.6
    endloop
  endfacet
  facet normal 0.996195 -0 0.0871558
    outer loop
      vertex 3.15 1 15.483
      vertex 4.39085 3 1.30002
      vertex 3.15 3 15.483
    endloop
  endfacet
  facet normal 0.996195 0 0.0871558
    outer loop
      vertex 4.39085 3 1.30002
      vertex 3.15 1 15.483
      vertex 4.39085 1 1.30002
    endloop
  endfacet
  facet normal 0.996195 -0 0.0871558
    outer loop
      vertex 3.15 7 15.483
      vertex 4.39085 9 1.30002
      vertex 3.15 9 15.483
    endloop
  endfacet
  facet normal 0.996195 0 0.0871558
    outer loop
      vertex 4.39085 9 1.30002
      vertex 3.15 7 15.483
      vertex 4.39085 7 1.30002
    endloop
  endfacet
  facet normal 0 1 -0
    outer loop
      vertex 1.95 9 15.4306
      vertex 1.95 9 16.5
      vertex 1.95 9 17.7
    endloop
  endfacet
  facet normal 0 1 -0
    outer loop
      vertex 3.19541 9 1.19543
      vertex 3.15 9 10.6
      vertex 4.39085 9 1.30002
    endloop
  endfacet
  facet normal 0 1 0
    outer loop
      vertex 4.39085 9 1.30002
      vertex 3.15 9 10.6
      vertex 3.15 9 15.483
    endloop
  endfacet
  facet normal 0 1 0
    outer loop
      vertex 3.15 9 10.6
      vertex 3.19541 9 1.19543
      vertex 2.95 9 10.6
    endloop
  endfacet
  facet normal 0 1 0
    outer loop
      vertex 2.95 9 10.6
      vertex 3.19541 9 1.19543
      vertex 2.31726 9 11.2327
    endloop
  endfacet
  facet normal 0 -1 0
    outer loop
      vertex 1.95 1 16.5
      vertex 1.95 1 15.4306
      vertex 1.95 1 17.7
    endloop
  endfacet
  facet normal 0 -1 0
    outer loop
      vertex 3.19541 1 1.19543
      vertex 3.15 1 10.6
      vertex 2.95 1 10.6
    endloop
  endfacet
  facet normal 0 -1 0
    outer loop
      vertex 3.19541 1 1.19543
      vertex 2.95 1 10.6
      vertex 2.31726 1 11.2327
    endloop
  endfacet
  facet normal 0 -1 0
    outer loop
      vertex 3.15 1 10.6
      vertex 3.19541 1 1.19543
      vertex 4.39085 1 1.30002
    endloop
  endfacet
  facet normal 0 -1 0
    outer loop
      vertex 3.15 1 15.483
      vertex 3.15 1 10.6
      vertex 4.39085 1 1.30002
    endloop
  endfacet
  facet normal 1 -0 0
    outer loop
      vertex 1.2 7.6 16.5
      vertex 1.2 10 11.6
      vertex 1.2 10 16.5
    endloop
  endfacet
  facet normal 1 0 0
    outer loop
      vertex 1.2 10 11.6
      vertex 1.2 7.6 16.5
      vertex 1.2 7.6 11.6
    endloop
  endfacet
  facet normal 1 -0 0
    outer loop
      vertex 1.2 0 16.5
      vertex 1.2 2.4 11.6
      vertex 1.2 2.4 16.5
    endloop
  endfacet
  facet normal 1 0 0
    outer loop
      vertex 1.2 2.4 11.6
      vertex 1.2 0 16.5
      vertex 1.2 0 11.6
    endloop
  endfacet
  facet normal 0 0 -1
    outer loop
      vertex 0 7.6 16.5
      vertex 1.95 7 16.5
      vertex 0 2.4 16.5
    endloop
  endfacet
  facet normal 0 0 -1
    outer loop
      vertex 1.95 7 16.5
      vertex 0 7.6 16.5
      vertex 1.2 7.6 16.5
    endloop
  endfacet
  facet normal 0 0 -1
    outer loop
      vertex 1.2 0 16.5
      vertex 1.95 1 16.5
      vertex 1.95 0 16.5
    endloop
  endfacet
  facet normal 0 0 -1
    outer loop
      vertex 1.95 1 16.5
      vertex 1.2 2.4 16.5
      vertex 1.95 3 16.5
    endloop
  endfacet
  facet normal 0 0 -1
    outer loop
      vertex 0 2.4 16.5
      vertex 1.95 3 16.5
      vertex 1.2 2.4 16.5
    endloop
  endfacet
  facet normal -0 0 -1
    outer loop
      vertex 1.95 3 16.5
      vertex 0 2.4 16.5
      vertex 1.95 7 16.5
    endloop
  endfacet
  facet normal -0 0 -1
    outer loop
      vertex 1.95 1 16.5
      vertex 1.2 0 16.5
      vertex 1.2 2.4 16.5
    endloop
  endfacet
  facet normal 0 0 -1
    outer loop
      vertex 1.95 7 16.5
      vertex 1.2 7.6 16.5
      vertex 1.95 9 16.5
    endloop
  endfacet
  facet normal 0 0 -1
    outer loop
      vertex 1.2 10 16.5
      vertex 1.95 9 16.5
      vertex 1.2 7.6 16.5
    endloop
  endfacet
  facet normal 0 0 -1
    outer loop
      vertex 1.95 9 16.5
      vertex 1.2 10 16.5
      vertex 1.95 10 16.5
    endloop
  endfacet
  facet normal -0 0 1
    outer loop
      vertex 1.2 10 11.6
      vertex 1.55 7.6 11.6
      vertex 1.55 10 11.6
    endloop
  endfacet
  facet normal 0 0 1
    outer loop
      vertex 1.55 7.6 11.6
      vertex 1.2 10 11.6
      vertex 1.2 7.6 11.6
    endloop
  endfacet
  facet normal -0 0 1
    outer loop
      vertex 1.2 2.4 11.6
      vertex 1.55 0 11.6
      vertex 1.55 2.4 11.6
    endloop
  endfacet
  facet normal 0 0 1
    outer loop
      vertex 1.55 0 11.6
      vertex 1.2 2.4 11.6
      vertex 1.2 0 11.6
    endloop
  endfacet
  facet normal 0 -1 0
    outer loop
      vertex 0 7.6 11.6085
      vertex 1.2 7.6 16.5
      vertex 0 7.6 16.5
    endloop
  endfacet
  facet normal 0 -1 0
    outer loop
      vertex 0 7.6 11.6085
      vertex 1.2 7.6 11.6
      vertex 1.2 7.6 16.5
    endloop
  endfacet
  facet normal 0 -1 0
    outer loop
      vertex 0.848528 7.6 10.76
      vertex 1.2 7.6 11.6
      vertex 0 7.6 11.6085
    endloop
  endfacet
  facet normal 0 -1 0
    outer loop
      vertex 0.848528 7.6 10.76
      vertex 1.55 7.6 11.6
      vertex 1.2 7.6 11.6
    endloop
  endfacet
  facet normal 0 -1 0
    outer loop
      vertex 1.55 7.6 0
      vertex 0 7.6 9.91147
      vertex 0 7.6 0
    endloop
  endfacet
  facet normal 0 -1 0
    outer loop
      vertex 0 7.6 9.91147
      vertex 1.55 7.6 0
      vertex 0.848528 7.6 10.76
    endloop
  endfacet
  facet normal 0 -1 0
    outer loop
      vertex 0.848528 7.6 10.76
      vertex 1.55 7.6 0
      vertex 1.55 7.6 11.6
    endloop
  endfacet
  facet normal 0 1 0
    outer loop
      vertex 1.55 2.4 11.6
      vertex 0.848528 2.4 10.76
      vertex 1.2 2.4 11.6
    endloop
  endfacet
  facet normal 0 1 -0
    outer loop
      vertex 1.55 2.4 0
      vertex 0.848528 2.4 10.76
      vertex 1.55 2.4 11.6
    endloop
  endfacet
  facet normal 0 1 0
    outer loop
      vertex 1.55 2.4 0
      vertex 0 2.4 9.91147
      vertex 0.848528 2.4 10.76
    endloop
  endfacet
  facet normal 0 1 0
    outer loop
      vertex 0 2.4 9.91147
      vertex 1.55 2.4 0
      vertex 0 2.4 0
    endloop
  endfacet
  facet normal 0 1 0
    outer loop
      vertex 1.2 2.4 16.5
      vertex 0 2.4 11.6085
      vertex 0 2.4 16.5
    endloop
  endfacet
  facet normal 0 1 -0
    outer loop
      vertex 1.2 2.4 11.6
      vertex 0 2.4 11.6085
      vertex 1.2 2.4 16.5
    endloop
  endfacet
  facet normal 0 1 0
    outer loop
      vertex 0 2.4 11.6085
      vertex 1.2 2.4 11.6
      vertex 0.848528 2.4 10.76
    endloop
  endfacet
  facet normal -0.707107 0 -0.707106
    outer loop
      vertex 0.848528 0 10.76
      vertex 0 2.4 11.6085
      vertex 0.848528 2.4 10.76
    endloop
  endfacet
  facet normal -0.707107 -0 -0.707106
    outer loop
      vertex 0 2.4 11.6085
      vertex 0.848528 0 10.76
      vertex 0 0 11.6085
    endloop
  endfacet
  facet normal -0.707107 0 -0.707106
    outer loop
      vertex 0.848528 7.6 10.76
      vertex 0 10 11.6085
      vertex 0.848528 10 10.76
    endloop
  endfacet
  facet normal -0.707107 -0 -0.707106
    outer loop
      vertex 0 10 11.6085
      vertex 0.848528 7.6 10.76
      vertex 0 7.6 11.6085
    endloop
  endfacet
  facet normal -0.707107 0 0.707107
    outer loop
      vertex 0 0 9.91147
      vertex 0.848528 2.4 10.76
      vertex 0 2.4 9.91147
    endloop
  endfacet
  facet normal -0.707107 0 0.707107
    outer loop
      vertex 0.848528 2.4 10.76
      vertex 0 0 9.91147
      vertex 0.848528 0 10.76
    endloop
  endfacet
  facet normal -0.707107 0 0.707107
    outer loop
      vertex 0 7.6 9.91147
      vertex 0.848528 10 10.76
      vertex 0 10 9.91147
    endloop
  endfacet
  facet normal -0.707107 0 0.707107
    outer loop
      vertex 0.848528 10 10.76
      vertex 0 7.6 9.91147
      vertex 0.848528 7.6 10.76
    endloop
  endfacet
endsolid OpenSCAD_Model
