solid OpenSCAD_Model
  facet normal -0.996195 0 -0.0871557
    outer loop
      vertex 3.31284 1 0.996195
      vertex 2.55149 9 9.69851
      vertex 3.31284 9 0.996195
    endloop
  endfacet
  facet normal -0.996195 -0 -0.0871557
    outer loop
      vertex 2.55149 9 9.69851
      vertex 3.31284 1 0.996195
      vertex 2.55149 1 9.69851
    endloop
  endfacet
  facet normal 0.996195 -0 0.0871557
    outer loop
      vertex 2.97537 1 17.4746
      vertex 4.40866 9 1.09207
      vertex 2.97537 9 17.4746
    endloop
  endfacet
  facet normal 0.996195 0 0.0871557
    outer loop
      vertex 4.40866 9 1.09207
      vertex 2.97537 1 17.4746
      vertex 4.40866 1 1.09207
    endloop
  endfacet
  facet normal 0 1 0
    outer loop
      vertex 2.97537 9 17.4746
      vertex 2.95 9 9.4
      vertex 2.95 9 17.5
    endloop
  endfacet
  facet normal 0 1 -0
    outer loop
      vertex 3.31284 9 0.996195
      vertex 2.95 9 9.4
      vertex 4.40866 9 1.09207
    endloop
  endfacet
  facet normal 0 1 0
    outer loop
      vertex 4.40866 9 1.09207
      vertex 2.95 9 9.4
      vertex 2.97537 9 17.4746
    endloop
  endfacet
  facet normal 0 1 0
    outer loop
      vertex 2.95 9 9.4
      vertex 3.31284 9 0.996195
      vertex 2.85 9 9.4
    endloop
  endfacet
  facet normal 0 1 0
    outer loop
      vertex 2.85 9 9.4
      vertex 3.31284 9 0.996195
      vertex 2.55149 9 9.69851
    endloop
  endfacet
  facet normal 0 -1 0
    outer loop
      vertex 3.31284 1 0.996195
      vertex 2.95 1 9.4
      vertex 2.85 1 9.4
    endloop
  endfacet
  facet normal 0 -1 0
    outer loop
      vertex 3.31284 1 0.996195
      vertex 2.85 1 9.4
      vertex 2.55149 1 9.69851
    endloop
  endfacet
  facet normal 0 -1 0
    outer loop
      vertex 2.95 1 9.4
      vertex 3.31284 1 0.996195
      vertex 4.40866 1 1.09207
    endloop
  endfacet
  facet normal 0 -1 0
    outer loop
      vertex 2.95 1 9.4
      vertex 2.97537 1 17.4746
      vertex 2.95 1 17.5
    endloop
  endfacet
  facet normal 0 -1 -0
    outer loop
      vertex 2.97537 1 17.4746
      vertex 2.95 1 9.4
      vertex 4.40866 1 1.09207
    endloop
  endfacet
  facet normal -0 0 1
    outer loop
      vertex 1.86895 9 17.5
      vertex 2.95 1 17.5
      vertex 2.95 9 17.5
    endloop
  endfacet
  facet normal 0 0 1
    outer loop
      vertex 2.95 1 17.5
      vertex 1.86895 9 17.5
      vertex 1.86895 1 17.5
    endloop
  endfacet
  facet normal 0 0 -1
    outer loop
      vertex 8.51948 -1.5 0
      vertex 9.62368 11.5 0
      vertex 9.62368 -1.5 0
    endloop
  endfacet
  facet normal 0 0 -1
    outer loop
      vertex 8.51948 -1.5 0
      vertex 8.51948 11.5 0
      vertex 9.62368 11.5 0
    endloop
  endfacet
  facet normal 0 0 -1
    outer loop
      vertex 3.4 1 0
      vertex 8.51948 11.5 0
      vertex 8.51948 -1.5 0
    endloop
  endfacet
  facet normal 0 0 -1
    outer loop
      vertex 8.51948 11.5 0
      vertex 3.4 1 0
      vertex 3.4 9 0
    endloop
  endfacet
  facet normal 0.996195 0 0.0871557
    outer loop
      vertex 8.44259 0.95 13.5
      vertex 8.44259 -1.5 13.5
      vertex 9.31494 0.95 3.52895
    endloop
  endfacet
  facet normal 0.996195 0 0.0871557
    outer loop
      vertex 9.31494 9.05 3.52895
      vertex 8.44259 11.5 13.5
      vertex 8.44259 9.05 13.5
    endloop
  endfacet
  facet normal 0.996195 -1.47025e-07 0.0871557
    outer loop
      vertex 8.44259 11.5 13.5
      vertex 9.31494 9.05 3.52895
      vertex 9.62368 11.5 0
    endloop
  endfacet
  facet normal 0.996195 -0 0.0871558
    outer loop
      vertex 9.31494 0.95 3.52895
      vertex 9.62368 11.5 0
      vertex 9.31494 9.05 3.52895
    endloop
  endfacet
  facet normal 0.996195 0 0.0871558
    outer loop
      vertex 9.31494 0.95 3.52895
      vertex 9.62368 -1.5 0
      vertex 9.62368 11.5 0
    endloop
  endfacet
  facet normal 0.996195 1.47025e-07 0.0871557
    outer loop
      vertex 9.62368 -1.5 0
      vertex 9.31494 0.95 3.52895
      vertex 8.44259 -1.5 13.5
    endloop
  endfacet
  facet normal 0 1 -0
    outer loop
      vertex 8.51948 11.5 0
      vertex 8.44259 11.5 13.5
      vertex 9.62368 11.5 0
    endloop
  endfacet
  facet normal 0 1 0
    outer loop
      vertex 8.44259 11.5 13.5
      vertex 8.51948 11.5 0
      vertex 7.33838 11.5 13.5
    endloop
  endfacet
  facet normal -0.438482 -0.897921 -0.0383623
    outer loop
      vertex 3.4 1 0
      vertex 8.39344 -1.5 1.44069
      vertex 3.31284 1 0.996195
    endloop
  endfacet
  facet normal -0.438482 -0.897921 -0.0383623
    outer loop
      vertex 8.39344 -1.5 1.44069
      vertex 3.4 1 0
      vertex 8.51948 -1.5 0
    endloop
  endfacet
  facet normal -0.996195 0 -0.0871558
    outer loop
      vertex 3.4 1 0
      vertex 3.31284 9 0.996195
      vertex 3.4 9 0
    endloop
  endfacet
  facet normal -0.996195 -0 -0.0871558
    outer loop
      vertex 3.31284 9 0.996195
      vertex 3.4 1 0
      vertex 3.31284 1 0.996195
    endloop
  endfacet
  facet normal -0.438482 0.897921 -0.0383622
    outer loop
      vertex 7.33838 11.5 13.5
      vertex 7.09838 10.8627 1.32739
      vertex 6.03342 10.8627 13.5
    endloop
  endfacet
  facet normal -0.438482 0.897921 -0.0383622
    outer loop
      vertex 8.51948 11.5 0
      vertex 7.09838 10.8627 1.32739
      vertex 7.33838 11.5 13.5
    endloop
  endfacet
  facet normal -0.438482 0.897921 -0.0383625
    outer loop
      vertex 3.4 9 0
      vertex 7.09838 10.8627 1.32739
      vertex 8.51948 11.5 0
    endloop
  endfacet
  facet normal -0.438482 0.897921 -0.0383623
    outer loop
      vertex 7.09838 10.8627 1.32739
      vertex 3.4 9 0
      vertex 3.31284 9 0.996195
    endloop
  endfacet
  facet normal 0 -1 0
    outer loop
      vertex 8.39344 -1.5 1.44069
      vertex 8.44259 -1.5 13.5
      vertex 7.33838 -1.5 13.5
    endloop
  endfacet
  facet normal 0 -1 0
    outer loop
      vertex 9.62368 -1.5 0
      vertex 8.39344 -1.5 1.44069
      vertex 8.51948 -1.5 0
    endloop
  endfacet
  facet normal 0 -1 0
    outer loop
      vertex 8.39344 -1.5 1.44069
      vertex 9.62368 -1.5 0
      vertex 8.44259 -1.5 13.5
    endloop
  endfacet
  facet normal -0.996195 1.59315e-07 -0.0871557
    outer loop
      vertex 8.39344 10.3 1.44069
      vertex 8.21912 9.05 3.43308
      vertex 7.33838 10.3 13.5
    endloop
  endfacet
  facet normal -0.996195 0 -0.0871558
    outer loop
      vertex 8.39344 10.3 1.44069
      vertex 8.21912 0.95 3.43308
      vertex 8.21912 9.05 3.43308
    endloop
  endfacet
  facet normal -0.996195 0 -0.0871558
    outer loop
      vertex 8.39344 -1.5 1.44069
      vertex 8.21912 0.95 3.43308
      vertex 8.39344 10.3 1.44069
    endloop
  endfacet
  facet normal -0.996195 -8.12834e-08 -0.0871557
    outer loop
      vertex 7.33838 -1.5 13.5
      vertex 8.21912 0.95 3.43308
      vertex 8.39344 -1.5 1.44069
    endloop
  endfacet
  facet normal -0.996195 0 -0.0871557
    outer loop
      vertex 8.21912 0.95 3.43308
      vertex 7.33838 -1.5 13.5
      vertex 7.33838 0.95 13.5
    endloop
  endfacet
  facet normal -0.996195 -0 -0.0871557
    outer loop
      vertex 7.33838 10.3 13.5
      vertex 8.21912 9.05 3.43308
      vertex 7.33838 9.05 13.5
    endloop
  endfacet
  facet normal 0 -1 0
    outer loop
      vertex 7.09838 10.3 1.32739
      vertex 7.33838 10.3 13.5
      vertex 6.03342 10.3 13.5
    endloop
  endfacet
  facet normal 0 -1 -0
    outer loop
      vertex 7.33838 10.3 13.5
      vertex 7.09838 10.3 1.32739
      vertex 8.39344 10.3 1.44069
    endloop
  endfacet
  facet normal -0.0871557 0 0.996195
    outer loop
      vertex 7.09838 10.8627 1.32739
      vertex 4.40866 9 1.09207
      vertex 7.09838 10.3 1.32739
    endloop
  endfacet
  facet normal -0.0871558 8.0846e-08 0.996195
    outer loop
      vertex 4.40866 9 1.09207
      vertex 7.09838 10.8627 1.32739
      vertex 3.31284 9 0.996195
    endloop
  endfacet
  facet normal -0.0871558 4.42705e-08 0.996195
    outer loop
      vertex 4.40866 9 1.09207
      vertex 8.39344 10.3 1.44069
      vertex 7.09838 10.3 1.32739
    endloop
  endfacet
  facet normal -0.0871557 0 0.996195
    outer loop
      vertex 8.39344 10.3 1.44069
      vertex 4.40866 9 1.09207
      vertex 4.40866 1 1.09207
    endloop
  endfacet
  facet normal -0.0871557 0 0.996195
    outer loop
      vertex 8.39344 10.3 1.44069
      vertex 4.40866 1 1.09207
      vertex 8.39344 -1.5 1.44069
    endloop
  endfacet
  facet normal -0.0871558 -7.81577e-08 0.996195
    outer loop
      vertex 8.39344 -1.5 1.44069
      vertex 4.40866 1 1.09207
      vertex 3.31284 1 0.996195
    endloop
  endfacet
  facet normal -0.996195 0 -0.0871557
    outer loop
      vertex 7.09838 10.3 1.32739
      vertex 6.03342 10.8627 13.5
      vertex 7.09838 10.8627 1.32739
    endloop
  endfacet
  facet normal -0.996195 -0 -0.0871557
    outer loop
      vertex 6.03342 10.8627 13.5
      vertex 7.09838 10.3 1.32739
      vertex 6.03342 10.3 13.5
    endloop
  endfacet
  facet normal 0 -1 0
    outer loop
      vertex 8.21912 9.05 3.43308
      vertex 8.44259 9.05 13.5
      vertex 7.33838 9.05 13.5
    endloop
  endfacet
  facet normal 0 -1 -0
    outer loop
      vertex 8.44259 9.05 13.5
      vertex 8.21912 9.05 3.43308
      vertex 9.31494 9.05 3.52895
    endloop
  endfacet
  facet normal -0.0871558 0 0.996195
    outer loop
      vertex 8.21912 9.05 3.43308
      vertex 9.31494 0.95 3.52895
      vertex 9.31494 9.05 3.52895
    endloop
  endfacet
  facet normal -0.0871558 0 0.996195
    outer loop
      vertex 9.31494 0.95 3.52895
      vertex 8.21912 9.05 3.43308
      vertex 8.21912 0.95 3.43308
    endloop
  endfacet
  facet normal 0 1 0
    outer loop
      vertex 8.21912 0.95 3.43308
      vertex 8.44259 0.95 13.5
      vertex 9.31494 0.95 3.52895
    endloop
  endfacet
  facet normal 0 1 0
    outer loop
      vertex 8.44259 0.95 13.5
      vertex 8.21912 0.95 3.43308
      vertex 7.33838 0.95 13.5
    endloop
  endfacet
  facet normal -0 0 1
    outer loop
      vertex 6.03342 10.8627 13.5
      vertex 7.33838 10.3 13.5
      vertex 7.33838 11.5 13.5
    endloop
  endfacet
  facet normal 0 0 1
    outer loop
      vertex 7.33838 10.3 13.5
      vertex 6.03342 10.8627 13.5
      vertex 6.03342 10.3 13.5
    endloop
  endfacet
  facet normal 0 0 1
    outer loop
      vertex 7.33838 10.3 13.5
      vertex 8.44259 11.5 13.5
      vertex 7.33838 11.5 13.5
    endloop
  endfacet
  facet normal 0 0 1
    outer loop
      vertex 8.44259 11.5 13.5
      vertex 7.33838 10.3 13.5
      vertex 8.44259 9.05 13.5
    endloop
  endfacet
  facet normal 0 0 1
    outer loop
      vertex 8.44259 9.05 13.5
      vertex 7.33838 10.3 13.5
      vertex 7.33838 9.05 13.5
    endloop
  endfacet
  facet normal -0 0 1
    outer loop
      vertex 7.33838 0.95 13.5
      vertex 8.44259 -1.5 13.5
      vertex 8.44259 0.95 13.5
    endloop
  endfacet
  facet normal 0 0 1
    outer loop
      vertex 8.44259 -1.5 13.5
      vertex 7.33838 0.95 13.5
      vertex 7.33838 -1.5 13.5
    endloop
  endfacet
  facet normal -1 0 0
    outer loop
      vertex 0 0 10.0778
      vertex 0 10 17.5
      vertex 0 10 10.0778
    endloop
  endfacet
  facet normal -1 -0 0
    outer loop
      vertex 0 10 17.5
      vertex 0 0 10.0778
      vertex 0 0 17.5
    endloop
  endfacet
  facet normal -1 0 0
    outer loop
      vertex 0 0 0
      vertex 0 10 8.52218
      vertex 0 10 0
    endloop
  endfacet
  facet normal -1 -0 0
    outer loop
      vertex 0 10 8.52218
      vertex 0 0 0
      vertex 0 0 8.52218
    endloop
  endfacet
  facet normal -0 0 1
    outer loop
      vertex 0 10 17.5
      vertex 1.85 0 17.5
      vertex 1.85 10 17.5
    endloop
  endfacet
  facet normal 0 0 1
    outer loop
      vertex 1.85 0 17.5
      vertex 0 10 17.5
      vertex 0 0 17.5
    endloop
  endfacet
  facet normal 1 -0 0
    outer loop
      vertex 1.85 0 17.5
      vertex 1.85 10 16.4
      vertex 1.85 10 17.5
    endloop
  endfacet
  facet normal 1 0 0
    outer loop
      vertex 1.85 10 16.4
      vertex 1.85 0 17.5
      vertex 1.85 0 16.4
    endloop
  endfacet
  facet normal 0 1 0
    outer loop
      vertex 0.777817 10 9.3
      vertex 1.1 10 11.5
      vertex 1.45 10 11.5
    endloop
  endfacet
  facet normal 0 1 0
    outer loop
      vertex 1.1 10 11.5
      vertex 0.777817 10 9.3
      vertex 0 10 10.0778
    endloop
  endfacet
  facet normal 0 1 -0
    outer loop
      vertex 1.45 10 0
      vertex 0.777817 10 9.3
      vertex 1.45 10 11.5
    endloop
  endfacet
  facet normal 0 1 0
    outer loop
      vertex 1.45 10 0
      vertex 0 10 8.52218
      vertex 0.777817 10 9.3
    endloop
  endfacet
  facet normal 0 1 0
    outer loop
      vertex 0 10 8.52218
      vertex 1.45 10 0
      vertex 0 10 0
    endloop
  endfacet
  facet normal 0 1 0
    outer loop
      vertex 1.1 10 16.4
      vertex 1.85 10 17.5
      vertex 1.85 10 16.4
    endloop
  endfacet
  facet normal 0 1 0
    outer loop
      vertex 1.85 10 17.5
      vertex 1.1 10 16.4
      vertex 0 10 17.5
    endloop
  endfacet
  facet normal 0 1 -0
    outer loop
      vertex 1.1 10 11.5
      vertex 0 10 17.5
      vertex 1.1 10 16.4
    endloop
  endfacet
  facet normal 0 1 0
    outer loop
      vertex 0 10 17.5
      vertex 1.1 10 11.5
      vertex 0 10 10.0778
    endloop
  endfacet
  facet normal 0 0 -1
    outer loop
      vertex 0 0 0
      vertex 1.45 10 0
      vertex 1.45 0 0
    endloop
  endfacet
  facet normal -0 0 -1
    outer loop
      vertex 1.45 10 0
      vertex 0 0 0
      vertex 0 10 0
    endloop
  endfacet
  facet normal 0 -1 0
    outer loop
      vertex 0 0 17.5
      vertex 1.1 0 16.4
      vertex 1.85 0 17.5
    endloop
  endfacet
  facet normal 0 -1 0
    outer loop
      vertex 0 0 17.5
      vertex 1.1 0 11.5
      vertex 1.1 0 16.4
    endloop
  endfacet
  facet normal 0 -1 0
    outer loop
      vertex 0 0 10.0778
      vertex 1.1 0 11.5
      vertex 0 0 17.5
    endloop
  endfacet
  facet normal 0 -1 0
    outer loop
      vertex 0.777817 0 9.3
      vertex 1.1 0 11.5
      vertex 0 0 10.0778
    endloop
  endfacet
  facet normal 0 -1 -0
    outer loop
      vertex 1.1 0 11.5
      vertex 0.777817 0 9.3
      vertex 1.45 0 11.5
    endloop
  endfacet
  facet normal 0 -1 0
    outer loop
      vertex 1.45 0 0
      vertex 0 0 8.52218
      vertex 0 0 0
    endloop
  endfacet
  facet normal 0 -1 0
    outer loop
      vertex 0 0 8.52218
      vertex 1.45 0 0
      vertex 0.777817 0 9.3
    endloop
  endfacet
  facet normal 0 -1 0
    outer loop
      vertex 0.777817 0 9.3
      vertex 1.45 0 0
      vertex 1.45 0 11.5
    endloop
  endfacet
  facet normal 0 -1 -0
    outer loop
      vertex 1.85 0 17.5
      vertex 1.1 0 16.4
      vertex 1.85 0 16.4
    endloop
  endfacet
  facet normal 1 -0 0
    outer loop
      vertex 1.1 0 16.4
      vertex 1.1 10 11.5
      vertex 1.1 10 16.4
    endloop
  endfacet
  facet normal 1 0 0
    outer loop
      vertex 1.1 10 11.5
      vertex 1.1 0 16.4
      vertex 1.1 0 11.5
    endloop
  endfacet
  facet normal 0 0 -1
    outer loop
      vertex 1.1 0 16.4
      vertex 1.85 10 16.4
      vertex 1.85 0 16.4
    endloop
  endfacet
  facet normal -0 0 -1
    outer loop
      vertex 1.85 10 16.4
      vertex 1.1 0 16.4
      vertex 1.1 10 16.4
    endloop
  endfacet
  facet normal -0 0 1
    outer loop
      vertex 1.1 10 11.5
      vertex 1.45 0 11.5
      vertex 1.45 10 11.5
    endloop
  endfacet
  facet normal 0 0 1
    outer loop
      vertex 1.45 0 11.5
      vertex 1.1 10 11.5
      vertex 1.1 0 11.5
    endloop
  endfacet
  facet normal 1 -0 0
    outer loop
      vertex 1.45 0 11.5
      vertex 1.45 10 0
      vertex 1.45 10 11.5
    endloop
  endfacet
  facet normal 1 0 0
    outer loop
      vertex 1.45 10 0
      vertex 1.45 0 11.5
      vertex 1.45 0 0
    endloop
  endfacet
  facet normal -1 0 0
    outer loop
      vertex 1.85 0 10.4
      vertex 1.85 10 17.5
      vertex 1.85 10 10.4
    endloop
  endfacet
  facet normal -1 -0 0
    outer loop
      vertex 1.85 10 17.5
      vertex 1.85 0 10.4
      vertex 1.85 0 17.5
    endloop
  endfacet
  facet normal 0 0 1
    outer loop
      vertex 2.95 10 17.5
      vertex 1.86895 9 17.5
      vertex 2.95 9 17.5
    endloop
  endfacet
  facet normal 0 0 1
    outer loop
      vertex 1.86895 9 17.5
      vertex 1.85 10 17.5
      vertex 1.86895 1 17.5
    endloop
  endfacet
  facet normal -0 0 1
    outer loop
      vertex 1.85 10 17.5
      vertex 1.86895 9 17.5
      vertex 2.95 10 17.5
    endloop
  endfacet
  facet normal -0 0 1
    outer loop
      vertex 1.86895 1 17.5
      vertex 2.95 0 17.5
      vertex 2.95 1 17.5
    endloop
  endfacet
  facet normal 0 0 1
    outer loop
      vertex 1.86895 1 17.5
      vertex 1.85 0 17.5
      vertex 2.95 0 17.5
    endloop
  endfacet
  facet normal 0 0 1
    outer loop
      vertex 1.85 0 17.5
      vertex 1.86895 1 17.5
      vertex 1.85 10 17.5
    endloop
  endfacet
  facet normal 1 0 0
    outer loop
      vertex 2.95 0 10.4
      vertex 2.95 1 17.5
      vertex 2.95 0 17.5
    endloop
  endfacet
  facet normal 1 0 0
    outer loop
      vertex 2.95 1 17.5
      vertex 2.95 0 10.4
      vertex 2.95 1 9.4
    endloop
  endfacet
  facet normal 1 -0 0
    outer loop
      vertex 2.95 9 17.5
      vertex 2.95 10 10.4
      vertex 2.95 10 17.5
    endloop
  endfacet
  facet normal 1 0 0
    outer loop
      vertex 2.95 10 10.4
      vertex 2.95 9 17.5
      vertex 2.95 9 9.4
    endloop
  endfacet
  facet normal 0 -1 0
    outer loop
      vertex 1.85 0 10.4
      vertex 2.95 0 17.5
      vertex 1.85 0 17.5
    endloop
  endfacet
  facet normal 0 -1 -0
    outer loop
      vertex 2.95 0 17.5
      vertex 1.85 0 10.4
      vertex 2.95 0 10.4
    endloop
  endfacet
  facet normal 0 1 -0
    outer loop
      vertex 2.95 10 10.4
      vertex 1.85 10 17.5
      vertex 2.95 10 17.5
    endloop
  endfacet
  facet normal 0 1 0
    outer loop
      vertex 1.85 10 17.5
      vertex 2.95 10 10.4
      vertex 1.85 10 10.4
    endloop
  endfacet
  facet normal -0.707106 -1.21382e-06 -0.707107
    outer loop
      vertex 2.85 1 9.4
      vertex 1.85 0 10.4
      vertex 2.55149 1 9.69851
    endloop
  endfacet
  facet normal -0.707106 1.61e-06 -0.707108
    outer loop
      vertex 2.55149 9 9.69851
      vertex 1.85 10 10.4
      vertex 2.85 9 9.4
    endloop
  endfacet
  facet normal -0.707107 0 -0.707106
    outer loop
      vertex 2.55149 1 9.69851
      vertex 1.85 10 10.4
      vertex 2.55149 9 9.69851
    endloop
  endfacet
  facet normal -0.707107 -0 -0.707106
    outer loop
      vertex 1.85 10 10.4
      vertex 2.55149 1 9.69851
      vertex 1.85 0 10.4
    endloop
  endfacet
  facet normal 0 -0.707107 -0.707107
    outer loop
      vertex 2.85 1 9.4
      vertex 2.95 0 10.4
      vertex 1.85 0 10.4
    endloop
  endfacet
  facet normal 0 -0.707107 -0.707107
    outer loop
      vertex 2.95 0 10.4
      vertex 2.85 1 9.4
      vertex 2.95 1 9.4
    endloop
  endfacet
  facet normal 0 0.707106 -0.707107
    outer loop
      vertex 2.85 9 9.4
      vertex 2.95 10 10.4
      vertex 2.95 9 9.4
    endloop
  endfacet
  facet normal 0 0.707106 -0.707107
    outer loop
      vertex 2.95 10 10.4
      vertex 2.85 9 9.4
      vertex 1.85 10 10.4
    endloop
  endfacet
  facet normal 0.707097 0 0.707117
    outer loop
      vertex 2.95 9 17.5
      vertex 2.97537 1 17.4746
      vertex 2.97537 9 17.4746
    endloop
  endfacet
  facet normal 0.707097 0 0.707117
    outer loop
      vertex 2.97537 1 17.4746
      vertex 2.95 9 17.5
      vertex 2.95 1 17.5
    endloop
  endfacet
  facet normal -0.707107 0 -0.707106
    outer loop
      vertex 0.777817 0 9.3
      vertex 0 10 10.0778
      vertex 0.777817 10 9.3
    endloop
  endfacet
  facet normal -0.707107 -0 -0.707106
    outer loop
      vertex 0 10 10.0778
      vertex 0.777817 0 9.3
      vertex 0 0 10.0778
    endloop
  endfacet
  facet normal -0.707107 0 0.707107
    outer loop
      vertex 0 0 8.52218
      vertex 0.777817 10 9.3
      vertex 0 10 8.52218
    endloop
  endfacet
  facet normal -0.707107 0 0.707107
    outer loop
      vertex 0.777817 10 9.3
      vertex 0 0 8.52218
      vertex 0.777817 0 9.3
    endloop
  endfacet
endsolid OpenSCAD_Model
