solid OpenSCAD_Model
  facet normal -1 0 0
    outer loop
      vertex 0 0 10.8485
      vertex 0 10 18.5
      vertex 0 10 10.8485
    endloop
  endfacet
  facet normal -1 -0 0
    outer loop
      vertex 0 10 18.5
      vertex 0 0 10.8485
      vertex 0 0 18.5
    endloop
  endfacet
  facet normal -1 0 0
    outer loop
      vertex 0 0 0
      vertex 0 10 9.15147
      vertex 0 10 0
    endloop
  endfacet
  facet normal -1 -0 0
    outer loop
      vertex 0 10 9.15147
      vertex 0 0 0
      vertex 0 0 9.15147
    endloop
  endfacet
  facet normal -0 0 1
    outer loop
      vertex 0 10 18.5
      vertex 3.15 0 18.5
      vertex 3.15 10 18.5
    endloop
  endfacet
  facet normal 0 0 1
    outer loop
      vertex 3.15 0 18.5
      vertex 0 10 18.5
      vertex 0 0 18.5
    endloop
  endfacet
  facet normal -1 0 0
    outer loop
      vertex 1.95 0 11.2
      vertex 1.95 10 17.3
      vertex 1.95 10 11.2
    endloop
  endfacet
  facet normal -1 -0 0
    outer loop
      vertex 1.95 10 17.3
      vertex 1.95 0 11.2
      vertex 1.95 0 17.3
    endloop
  endfacet
  facet normal 0 1 0
    outer loop
      vertex 0.848528 10 10
      vertex 1.2 10 12.4
      vertex 1.55 10 12.4
    endloop
  endfacet
  facet normal 0 1 0
    outer loop
      vertex 1.2 10 12.4
      vertex 0.848528 10 10
      vertex 0 10 10.8485
    endloop
  endfacet
  facet normal 0 1 -0
    outer loop
      vertex 1.55 10 0
      vertex 0.848528 10 10
      vertex 1.55 10 12.4
    endloop
  endfacet
  facet normal 0 1 0
    outer loop
      vertex 1.55 10 0
      vertex 0 10 9.15147
      vertex 0.848528 10 10
    endloop
  endfacet
  facet normal 0 1 0
    outer loop
      vertex 0 10 9.15147
      vertex 1.55 10 0
      vertex 0 10 0
    endloop
  endfacet
  facet normal 0 1 0
    outer loop
      vertex 3.15 10 18.5
      vertex 1.95 10 17.3
      vertex 0 10 18.5
    endloop
  endfacet
  facet normal 0 1 -0
    outer loop
      vertex 3.15 10 11.2
      vertex 1.95 10 17.3
      vertex 3.15 10 18.5
    endloop
  endfacet
  facet normal 0 1 0
    outer loop
      vertex 1.95 10 17.3
      vertex 3.15 10 11.2
      vertex 1.95 10 11.2
    endloop
  endfacet
  facet normal 0 1 -0
    outer loop
      vertex 1.2 10 17.3
      vertex 0 10 18.5
      vertex 1.95 10 17.3
    endloop
  endfacet
  facet normal 0 1 -0
    outer loop
      vertex 1.2 10 12.4
      vertex 0 10 18.5
      vertex 1.2 10 17.3
    endloop
  endfacet
  facet normal 0 1 0
    outer loop
      vertex 0 10 18.5
      vertex 1.2 10 12.4
      vertex 0 10 10.8485
    endloop
  endfacet
  facet normal 0 0 -1
    outer loop
      vertex 0 0 0
      vertex 1.55 10 0
      vertex 1.55 0 0
    endloop
  endfacet
  facet normal -0 0 -1
    outer loop
      vertex 1.55 10 0
      vertex 0 0 0
      vertex 0 10 0
    endloop
  endfacet
  facet normal 0 -1 0
    outer loop
      vertex 0 0 18.5
      vertex 1.2 0 17.3
      vertex 3.15 0 18.5
    endloop
  endfacet
  facet normal 0 -1 0
    outer loop
      vertex 0 0 18.5
      vertex 1.2 0 12.4
      vertex 1.2 0 17.3
    endloop
  endfacet
  facet normal 0 -1 0
    outer loop
      vertex 0 0 10.8485
      vertex 1.2 0 12.4
      vertex 0 0 18.5
    endloop
  endfacet
  facet normal 0 -1 0
    outer loop
      vertex 0.848528 0 10
      vertex 1.2 0 12.4
      vertex 0 0 10.8485
    endloop
  endfacet
  facet normal 0 -1 -0
    outer loop
      vertex 1.2 0 12.4
      vertex 0.848528 0 10
      vertex 1.55 0 12.4
    endloop
  endfacet
  facet normal 0 -1 0
    outer loop
      vertex 1.55 0 0
      vertex 0 0 9.15147
      vertex 0 0 0
    endloop
  endfacet
  facet normal 0 -1 0
    outer loop
      vertex 0 0 9.15147
      vertex 1.55 0 0
      vertex 0.848528 0 10
    endloop
  endfacet
  facet normal 0 -1 0
    outer loop
      vertex 0.848528 0 10
      vertex 1.55 0 0
      vertex 1.55 0 12.4
    endloop
  endfacet
  facet normal 0 -1 0
    outer loop
      vertex 1.95 0 17.3
      vertex 3.15 0 18.5
      vertex 1.2 0 17.3
    endloop
  endfacet
  facet normal 0 -1 0
    outer loop
      vertex 3.15 0 11.2
      vertex 1.95 0 17.3
      vertex 1.95 0 11.2
    endloop
  endfacet
  facet normal 0 -1 0
    outer loop
      vertex 1.95 0 17.3
      vertex 3.15 0 11.2
      vertex 3.15 0 18.5
    endloop
  endfacet
  facet normal 1 -0 0
    outer loop
      vertex 1.2 0 17.3
      vertex 1.2 10 12.4
      vertex 1.2 10 17.3
    endloop
  endfacet
  facet normal 1 0 0
    outer loop
      vertex 1.2 10 12.4
      vertex 1.2 0 17.3
      vertex 1.2 0 12.4
    endloop
  endfacet
  facet normal 0 0 -1
    outer loop
      vertex 1.2 0 17.3
      vertex 1.95 10 17.3
      vertex 1.95 0 17.3
    endloop
  endfacet
  facet normal -0 0 -1
    outer loop
      vertex 1.95 10 17.3
      vertex 1.2 0 17.3
      vertex 1.2 10 17.3
    endloop
  endfacet
  facet normal -0 0 1
    outer loop
      vertex 1.2 10 12.4
      vertex 1.55 0 12.4
      vertex 1.55 10 12.4
    endloop
  endfacet
  facet normal 0 0 1
    outer loop
      vertex 1.55 0 12.4
      vertex 1.2 10 12.4
      vertex 1.2 0 12.4
    endloop
  endfacet
  facet normal 1 -0 0
    outer loop
      vertex 1.55 0 12.4
      vertex 1.55 10 0
      vertex 1.55 10 12.4
    endloop
  endfacet
  facet normal 1 0 0
    outer loop
      vertex 1.55 10 0
      vertex 1.55 0 12.4
      vertex 1.55 0 0
    endloop
  endfacet
  facet normal 0.996195 0 0.0871557
    outer loop
      vertex 8.95586 0.95 14.5
      vertex 8.95586 -1.5 14.5
      vertex 9.82702 0.95 4.54258
    endloop
  endfacet
  facet normal 0.996195 0 0.0871557
    outer loop
      vertex 9.82702 9.05 4.54258
      vertex 8.95586 11.5 14.5
      vertex 8.95586 9.05 14.5
    endloop
  endfacet
  facet normal 0.996195 -2.3085e-07 0.0871558
    outer loop
      vertex 8.95586 11.5 14.5
      vertex 9.82702 9.05 4.54258
      vertex 10.0867 11.5 1.57496
    endloop
  endfacet
  facet normal 0.996195 -0 0.087156
    outer loop
      vertex 9.82702 0.95 4.54258
      vertex 10.0867 11.5 1.57496
      vertex 9.82702 9.05 4.54258
    endloop
  endfacet
  facet normal 0.996195 0 0.087156
    outer loop
      vertex 9.82702 0.95 4.54258
      vertex 10.0867 -1.5 1.57496
      vertex 10.0867 11.5 1.57496
    endloop
  endfacet
  facet normal 0.996195 2.3085e-07 0.0871558
    outer loop
      vertex 10.0867 -1.5 1.57496
      vertex 9.82702 0.95 4.54258
      vertex 8.95586 -1.5 14.5
    endloop
  endfacet
  facet normal 0 1 0
    outer loop
      vertex 10.0867 11.5 1.57496
      vertex 7.75128 11.5 14.5
      vertex 8.95586 11.5 14.5
    endloop
  endfacet
  facet normal 0 1 0
    outer loop
      vertex 9.01986 11.5 0
      vertex 10.0867 11.5 1.57496
      vertex 9.17735 11.5 0
    endloop
  endfacet
  facet normal 0 1 0
    outer loop
      vertex 10.0867 11.5 1.57496
      vertex 9.01986 11.5 0
      vertex 7.75128 11.5 14.5
    endloop
  endfacet
  facet normal -0.357613 -0.933346 -0.0312871
    outer loop
      vertex 9.01986 -1.5 0
      vertex 3.85842 0.410145 2.01275
      vertex 3.8 0.5 0
    endloop
  endfacet
  facet normal -0.357613 -0.933346 -0.0312871
    outer loop
      vertex 3.85842 0.410145 2.01275
      vertex 9.01986 -1.5 0
      vertex 8.8059 -1.5 2.4456
    endloop
  endfacet
  facet normal -0.357613 0.933346 -0.0312871
    outer loop
      vertex 7.75128 11.5 14.5
      vertex 7.61047 11.0385 2.34101
      vertex 6.54669 11.0385 14.5
    endloop
  endfacet
  facet normal -0.357613 0.933346 -0.0312871
    outer loop
      vertex 9.01986 11.5 0
      vertex 7.61047 11.0385 2.34101
      vertex 7.75128 11.5 14.5
    endloop
  endfacet
  facet normal -0.357613 0.933346 -0.0312871
    outer loop
      vertex 3.8 9.5 0
      vertex 7.61047 11.0385 2.34101
      vertex 9.01986 11.5 0
    endloop
  endfacet
  facet normal -0.357613 0.933346 -0.0312872
    outer loop
      vertex 7.61047 11.0385 2.34101
      vertex 3.8 9.5 0
      vertex 3.85842 9.58986 2.01275
    endloop
  endfacet
  facet normal 0 -1 0
    outer loop
      vertex 8.8059 -1.5 2.4456
      vertex 8.95586 -1.5 14.5
      vertex 7.75128 -1.5 14.5
    endloop
  endfacet
  facet normal 0 -1 0
    outer loop
      vertex 8.8059 -1.5 2.4456
      vertex 10.0867 -1.5 1.57496
      vertex 8.95586 -1.5 14.5
    endloop
  endfacet
  facet normal 0 -1 0
    outer loop
      vertex 9.01986 -1.5 0
      vertex 10.0867 -1.5 1.57496
      vertex 8.8059 -1.5 2.4456
    endloop
  endfacet
  facet normal 0 -1 0
    outer loop
      vertex 10.0867 -1.5 1.57496
      vertex 9.01986 -1.5 0
      vertex 9.17735 -1.5 0
    endloop
  endfacet
  facet normal -0.996195 1.55013e-07 -0.0871557
    outer loop
      vertex 8.8059 10.3 2.4456
      vertex 8.63159 9.05 4.43799
      vertex 7.75128 10.3 14.5
    endloop
  endfacet
  facet normal -0.996195 0 -0.0871558
    outer loop
      vertex 8.8059 10.3 2.4456
      vertex 8.63159 0.95 4.43799
      vertex 8.63159 9.05 4.43799
    endloop
  endfacet
  facet normal -0.996195 0 -0.0871558
    outer loop
      vertex 8.8059 -1.5 2.4456
      vertex 8.63159 0.95 4.43799
      vertex 8.8059 10.3 2.4456
    endloop
  endfacet
  facet normal -0.996195 -7.90881e-08 -0.0871557
    outer loop
      vertex 7.75128 -1.5 14.5
      vertex 8.63159 0.95 4.43799
      vertex 8.8059 -1.5 2.4456
    endloop
  endfacet
  facet normal -0.996195 0 -0.0871557
    outer loop
      vertex 8.63159 0.95 4.43799
      vertex 7.75128 -1.5 14.5
      vertex 7.75128 0.95 14.5
    endloop
  endfacet
  facet normal -0.996195 -0 -0.0871557
    outer loop
      vertex 7.75128 10.3 14.5
      vertex 8.63159 9.05 4.43799
      vertex 7.75128 9.05 14.5
    endloop
  endfacet
  facet normal 0 -1 0
    outer loop
      vertex 7.61047 10.3 2.34101
      vertex 7.75128 10.3 14.5
      vertex 6.54669 10.3 14.5
    endloop
  endfacet
  facet normal 0 -1 -0
    outer loop
      vertex 7.75128 10.3 14.5
      vertex 7.61047 10.3 2.34101
      vertex 8.8059 10.3 2.4456
    endloop
  endfacet
  facet normal -0.0871558 0 0.996195
    outer loop
      vertex 4.7946 9.55661 2.09466
      vertex 7.61047 10.3 2.34101
      vertex 7.61047 11.0385 2.34101
    endloop
  endfacet
  facet normal -0.087156 8.63514e-07 0.996195
    outer loop
      vertex 7.61047 10.3 2.34101
      vertex 4.7946 9.55661 2.09466
      vertex 4.82112 9.5 2.09698
    endloop
  endfacet
  facet normal -0.087156 3.65182e-07 0.996195
    outer loop
      vertex 7.61047 11.0385 2.34101
      vertex 4.65969 9.59298 2.08285
      vertex 4.7946 9.55661 2.09466
    endloop
  endfacet
  facet normal -0.0871558 -4.11509e-08 0.996195
    outer loop
      vertex 4.65969 9.59298 2.08285
      vertex 7.61047 11.0385 2.34101
      vertex 3.85842 9.58986 2.01275
    endloop
  endfacet
  facet normal -0.0871557 -8.68653e-09 0.996195
    outer loop
      vertex 4.82112 0.5 2.09698
      vertex 8.8059 10.3 2.4456
      vertex 7.61047 10.3 2.34101
    endloop
  endfacet
  facet normal -0.0871558 0 0.996195
    outer loop
      vertex 4.82112 0.5 2.09698
      vertex 7.61047 10.3 2.34101
      vertex 4.82112 9.5 2.09698
    endloop
  endfacet
  facet normal -0.0871558 0 0.996195
    outer loop
      vertex 8.8059 10.3 2.4456
      vertex 4.82112 0.5 2.09698
      vertex 8.8059 -1.5 2.4456
    endloop
  endfacet
  facet normal -0.0871562 -7.96528e-07 0.996195
    outer loop
      vertex 4.7946 0.443388 2.09466
      vertex 8.8059 -1.5 2.4456
      vertex 4.82112 0.5 2.09698
    endloop
  endfacet
  facet normal -0.087156 -4.05255e-07 0.996195
    outer loop
      vertex 4.65969 0.407016 2.08285
      vertex 8.8059 -1.5 2.4456
      vertex 4.7946 0.443388 2.09466
    endloop
  endfacet
  facet normal -0.0871558 3.7043e-09 0.996195
    outer loop
      vertex 8.8059 -1.5 2.4456
      vertex 4.65969 0.407016 2.08285
      vertex 3.85842 0.410145 2.01275
    endloop
  endfacet
  facet normal -0.996195 0 -0.0871557
    outer loop
      vertex 7.61047 10.3 2.34101
      vertex 6.54669 11.0385 14.5
      vertex 7.61047 11.0385 2.34101
    endloop
  endfacet
  facet normal -0.996195 -0 -0.0871557
    outer loop
      vertex 6.54669 11.0385 14.5
      vertex 7.61047 10.3 2.34101
      vertex 6.54669 10.3 14.5
    endloop
  endfacet
  facet normal 0 -1 0
    outer loop
      vertex 8.63159 9.05 4.43799
      vertex 8.95586 9.05 14.5
      vertex 7.75128 9.05 14.5
    endloop
  endfacet
  facet normal 0 -1 -0
    outer loop
      vertex 8.95586 9.05 14.5
      vertex 8.63159 9.05 4.43799
      vertex 9.82702 9.05 4.54258
    endloop
  endfacet
  facet normal -0.0871555 0 0.996195
    outer loop
      vertex 8.63159 9.05 4.43799
      vertex 9.82702 0.95 4.54258
      vertex 9.82702 9.05 4.54258
    endloop
  endfacet
  facet normal -0.0871555 0 0.996195
    outer loop
      vertex 9.82702 0.95 4.54258
      vertex 8.63159 9.05 4.43799
      vertex 8.63159 0.95 4.43799
    endloop
  endfacet
  facet normal 0 1 0
    outer loop
      vertex 8.63159 0.95 4.43799
      vertex 8.95586 0.95 14.5
      vertex 9.82702 0.95 4.54258
    endloop
  endfacet
  facet normal 0 1 0
    outer loop
      vertex 8.95586 0.95 14.5
      vertex 8.63159 0.95 4.43799
      vertex 7.75128 0.95 14.5
    endloop
  endfacet
  facet normal 0.260308 0.965526 0
    outer loop
      vertex 4.7946 9.55661 2.09466
      vertex 3.15 10 11.2
      vertex 3.15 10 18.5
    endloop
  endfacet
  facet normal 0.260309 0.965525 1.05908e-07
    outer loop
      vertex 3.15 10 11.2
      vertex 4.7946 9.55661 2.09466
      vertex 4.65969 9.59298 2.08285
    endloop
  endfacet
  facet normal 0.901478 -0.425579 0.0788691
    outer loop
      vertex 3.40867 0.5 18.2413
      vertex 4.7946 0.443388 2.09466
      vertex 4.82112 0.5 2.09698
    endloop
  endfacet
  facet normal 0.901479 -0.425577 0.0788691
    outer loop
      vertex 4.7946 0.443388 2.09466
      vertex 3.40867 0.5 18.2413
      vertex 3.15 0 18.5
    endloop
  endfacet
  facet normal 6.62112e-07 0.999005 -0.0445984
    outer loop
      vertex 3.85842 9.58986 2.01275
      vertex 3.15 10 11.2
      vertex 4.65969 9.59298 2.08285
    endloop
  endfacet
  facet normal 0 0.999005 -0.0445984
    outer loop
      vertex 3.15 10 11.2
      vertex 3.85842 9.58986 2.01275
      vertex 1.95 10 11.2
    endloop
  endfacet
  facet normal -6.21747e-07 0.999005 -0.0445985
    outer loop
      vertex 3.85842 9.58986 2.01275
      vertex 3.8 9.5 0
      vertex 1.95 10 11.2
    endloop
  endfacet
  facet normal 0.996195 -0 0.0871557
    outer loop
      vertex 3.40867 0.5 18.2413
      vertex 4.82112 9.5 2.09698
      vertex 3.40867 9.5 18.2413
    endloop
  endfacet
  facet normal 0.996195 0 0.0871557
    outer loop
      vertex 4.82112 9.5 2.09698
      vertex 3.40867 0.5 18.2413
      vertex 4.82112 0.5 2.09698
    endloop
  endfacet
  facet normal 0.901479 0.425577 0.0788691
    outer loop
      vertex 3.40867 9.5 18.2413
      vertex 4.7946 9.55661 2.09466
      vertex 3.15 10 18.5
    endloop
  endfacet
  facet normal 0.901477 0.425581 0.078869
    outer loop
      vertex 4.7946 9.55661 2.09466
      vertex 3.40867 9.5 18.2413
      vertex 4.82112 9.5 2.09698
    endloop
  endfacet
  facet normal -0.986631 0 -0.16297
    outer loop
      vertex 3.8 0.5 0
      vertex 1.95 10 11.2
      vertex 3.8 9.5 0
    endloop
  endfacet
  facet normal -0.986631 -0 -0.16297
    outer loop
      vertex 1.95 10 11.2
      vertex 3.8 0.5 0
      vertex 1.95 0 11.2
    endloop
  endfacet
  facet normal 0 0 -1
    outer loop
      vertex 3.8 0.5 0
      vertex 5.00458 9.5 0
      vertex 5.00458 0.5 0
    endloop
  endfacet
  facet normal 0 0 -1
    outer loop
      vertex 3.8 0.5 0
      vertex 3.8 9.5 0
      vertex 5.00458 9.5 0
    endloop
  endfacet
  facet normal 0 0 -1
    outer loop
      vertex 5.00458 0.5 0
      vertex 9.17735 -1.5 0
      vertex 9.01986 -1.5 0
    endloop
  endfacet
  facet normal 0 0 -1
    outer loop
      vertex 9.17735 -1.5 0
      vertex 5.00458 0.5 0
      vertex 9.17735 11.5 0
    endloop
  endfacet
  facet normal 0 0 -1
    outer loop
      vertex 5.00458 9.5 0
      vertex 9.17735 11.5 0
      vertex 5.00458 0.5 0
    endloop
  endfacet
  facet normal -0 -0 -1
    outer loop
      vertex 5.00458 0.5 0
      vertex 9.01986 -1.5 0
      vertex 3.8 0.5 0
    endloop
  endfacet
  facet normal -0 0 -1
    outer loop
      vertex 9.17735 11.5 0
      vertex 5.00458 9.5 0
      vertex 9.01986 11.5 0
    endloop
  endfacet
  facet normal 0 0 -1
    outer loop
      vertex 9.01986 11.5 0
      vertex 5.00458 9.5 0
      vertex 3.8 9.5 0
    endloop
  endfacet
  facet normal 0 -0.999005 -0.0445984
    outer loop
      vertex 3.85842 0.410145 2.01275
      vertex 3.15 0 11.2
      vertex 1.95 0 11.2
    endloop
  endfacet
  facet normal 2.01157e-11 -0.999005 -0.0445984
    outer loop
      vertex 3.15 0 11.2
      vertex 3.85842 0.410145 2.01275
      vertex 4.65969 0.407016 2.08285
    endloop
  endfacet
  facet normal -1.24107e-08 -0.999005 -0.0445984
    outer loop
      vertex 3.8 0.5 0
      vertex 3.85842 0.410145 2.01275
      vertex 1.95 0 11.2
    endloop
  endfacet
  facet normal 0.260308 -0.965526 0
    outer loop
      vertex 3.15 0 11.2
      vertex 4.7946 0.443388 2.09466
      vertex 3.15 0 18.5
    endloop
  endfacet
  facet normal 0.260309 -0.965525 1.37018e-07
    outer loop
      vertex 4.7946 0.443388 2.09466
      vertex 3.15 0 11.2
      vertex 4.65969 0.407016 2.08285
    endloop
  endfacet
  facet normal 0.707106 0 0.707107
    outer loop
      vertex 3.15 10 18.5
      vertex 3.40867 0.5 18.2413
      vertex 3.40867 9.5 18.2413
    endloop
  endfacet
  facet normal 0.707106 0 0.707107
    outer loop
      vertex 3.40867 0.5 18.2413
      vertex 3.15 10 18.5
      vertex 3.15 0 18.5
    endloop
  endfacet
  facet normal -0 0 1
    outer loop
      vertex 6.54669 11.0385 14.5
      vertex 7.75128 10.3 14.5
      vertex 7.75128 11.5 14.5
    endloop
  endfacet
  facet normal 0 0 1
    outer loop
      vertex 7.75128 10.3 14.5
      vertex 6.54669 11.0385 14.5
      vertex 6.54669 10.3 14.5
    endloop
  endfacet
  facet normal 0 0 1
    outer loop
      vertex 7.75128 10.3 14.5
      vertex 8.95586 11.5 14.5
      vertex 7.75128 11.5 14.5
    endloop
  endfacet
  facet normal 0 0 1
    outer loop
      vertex 8.95586 11.5 14.5
      vertex 7.75128 10.3 14.5
      vertex 8.95586 9.05 14.5
    endloop
  endfacet
  facet normal 0 0 1
    outer loop
      vertex 8.95586 9.05 14.5
      vertex 7.75128 10.3 14.5
      vertex 7.75128 9.05 14.5
    endloop
  endfacet
  facet normal -0 0 1
    outer loop
      vertex 7.75128 0.95 14.5
      vertex 8.95586 -1.5 14.5
      vertex 8.95586 0.95 14.5
    endloop
  endfacet
  facet normal 0 0 1
    outer loop
      vertex 8.95586 -1.5 14.5
      vertex 7.75128 0.95 14.5
      vertex 7.75128 -1.5 14.5
    endloop
  endfacet
  facet normal 0.866025 0 -0.5
    outer loop
      vertex 10.0867 -1.5 1.57496
      vertex 9.17735 11.5 0
      vertex 10.0867 11.5 1.57496
    endloop
  endfacet
  facet normal 0.866025 0 -0.5
    outer loop
      vertex 9.17735 11.5 0
      vertex 10.0867 -1.5 1.57496
      vertex 9.17735 -1.5 0
    endloop
  endfacet
  facet normal -0.707107 0 -0.707107
    outer loop
      vertex 0.848528 0 10
      vertex 0 10 10.8485
      vertex 0.848528 10 10
    endloop
  endfacet
  facet normal -0.707107 -0 -0.707107
    outer loop
      vertex 0 10 10.8485
      vertex 0.848528 0 10
      vertex 0 0 10.8485
    endloop
  endfacet
  facet normal -0.707107 0 0.707106
    outer loop
      vertex 0 0 9.15147
      vertex 0.848528 10 10
      vertex 0 10 9.15147
    endloop
  endfacet
  facet normal -0.707107 0 0.707106
    outer loop
      vertex 0.848528 10 10
      vertex 0 0 9.15147
      vertex 0.848528 0 10
    endloop
  endfacet
endsolid OpenSCAD_Model
