solid OpenSCAD_Model
  facet normal -1 0 0
    outer loop
      vertex 0 0 9.84853
      vertex 0 10 17.5
      vertex 0 10 9.84853
    endloop
  endfacet
  facet normal -1 -0 0
    outer loop
      vertex 0 10 17.5
      vertex 0 0 9.84853
      vertex 0 0 17.5
    endloop
  endfacet
  facet normal -1 0 0
    outer loop
      vertex 0 0 0
      vertex 0 10 8.15147
      vertex 0 10 0
    endloop
  endfacet
  facet normal -1 -0 0
    outer loop
      vertex 0 10 8.15147
      vertex 0 0 0
      vertex 0 0 8.15147
    endloop
  endfacet
  facet normal 0 0 1
    outer loop
      vertex 1.95 9 17.5
      vertex 3.15 10 17.5
      vertex 1.95 10 17.5
    endloop
  endfacet
  facet normal 0 0 1
    outer loop
      vertex 1.95 7 17.5
      vertex 3.15 10 17.5
      vertex 1.95 9 17.5
    endloop
  endfacet
  facet normal 0 0 1
    outer loop
      vertex 3.15 10 17.5
      vertex 1.95 7 17.5
      vertex 3.15 0 17.5
    endloop
  endfacet
  facet normal -0 0 1
    outer loop
      vertex 1.95 3 17.5
      vertex 3.15 0 17.5
      vertex 1.95 7 17.5
    endloop
  endfacet
  facet normal -0 0 1
    outer loop
      vertex 1.95 1 17.5
      vertex 3.15 0 17.5
      vertex 1.95 3 17.5
    endloop
  endfacet
  facet normal 0 0 1
    outer loop
      vertex 3.15 0 17.5
      vertex 1.95 1 17.5
      vertex 1.95 0 17.5
    endloop
  endfacet
  facet normal -0 0 1
    outer loop
      vertex 0 10 17.5
      vertex 1.95 9 17.5
      vertex 1.95 10 17.5
    endloop
  endfacet
  facet normal 0 0 1
    outer loop
      vertex 1.95 9 17.5
      vertex 0 10 17.5
      vertex 1.95 7 17.5
    endloop
  endfacet
  facet normal 0 0 1
    outer loop
      vertex 1.95 7 17.5
      vertex 0 10 17.5
      vertex 1.95 3 17.5
    endloop
  endfacet
  facet normal 0 0 1
    outer loop
      vertex 0 0 17.5
      vertex 1.95 3 17.5
      vertex 0 10 17.5
    endloop
  endfacet
  facet normal 0 0 1
    outer loop
      vertex 1.95 3 17.5
      vertex 0 0 17.5
      vertex 1.95 1 17.5
    endloop
  endfacet
  facet normal 0 0 1
    outer loop
      vertex 1.95 1 17.5
      vertex 0 0 17.5
      vertex 1.95 0 17.5
    endloop
  endfacet
  facet normal 1 -0 0
    outer loop
      vertex 1.95 0 17.5
      vertex 1.95 1 16.3
      vertex 1.95 1 17.5
    endloop
  endfacet
  facet normal 1 0 0
    outer loop
      vertex 1.95 1 16.3
      vertex 1.95 0 17.5
      vertex 1.95 0 16.3
    endloop
  endfacet
  facet normal 1 -0 0
    outer loop
      vertex 1.95 9 17.5
      vertex 1.95 10 16.3
      vertex 1.95 10 17.5
    endloop
  endfacet
  facet normal 1 0 0
    outer loop
      vertex 1.95 10 16.3
      vertex 1.95 9 17.5
      vertex 1.95 9 16.3
    endloop
  endfacet
  facet normal 1 -0 0
    outer loop
      vertex 1.95 3 17.5
      vertex 1.95 7 16.3
      vertex 1.95 7 17.5
    endloop
  endfacet
  facet normal 1 0 0
    outer loop
      vertex 1.95 7 16.3
      vertex 1.95 3 17.5
      vertex 1.95 3 16.3
    endloop
  endfacet
  facet normal 0 1 0
    outer loop
      vertex 0.848528 10 9
      vertex 1.2 10 11.4
      vertex 1.55 10 11.4
    endloop
  endfacet
  facet normal 0 1 0
    outer loop
      vertex 1.2 10 11.4
      vertex 0.848528 10 9
      vertex 0 10 9.84853
    endloop
  endfacet
  facet normal 0 1 -0
    outer loop
      vertex 1.55 10 0
      vertex 0.848528 10 9
      vertex 1.55 10 11.4
    endloop
  endfacet
  facet normal 0 1 0
    outer loop
      vertex 1.55 10 0
      vertex 0 10 8.15147
      vertex 0.848528 10 9
    endloop
  endfacet
  facet normal 0 1 0
    outer loop
      vertex 0 10 8.15147
      vertex 1.55 10 0
      vertex 0 10 0
    endloop
  endfacet
  facet normal 0 1 0
    outer loop
      vertex 1.2 10 16.3
      vertex 1.95 10 17.5
      vertex 1.95 10 16.3
    endloop
  endfacet
  facet normal 0 1 0
    outer loop
      vertex 1.95 10 17.5
      vertex 1.2 10 16.3
      vertex 0 10 17.5
    endloop
  endfacet
  facet normal 0 1 -0
    outer loop
      vertex 1.2 10 11.4
      vertex 0 10 17.5
      vertex 1.2 10 16.3
    endloop
  endfacet
  facet normal 0 1 0
    outer loop
      vertex 0 10 17.5
      vertex 1.2 10 11.4
      vertex 0 10 9.84853
    endloop
  endfacet
  facet normal 0 0 -1
    outer loop
      vertex 0 0 0
      vertex 1.55 10 0
      vertex 1.55 0 0
    endloop
  endfacet
  facet normal -0 0 -1
    outer loop
      vertex 1.55 10 0
      vertex 0 0 0
      vertex 0 10 0
    endloop
  endfacet
  facet normal 0 -1 0
    outer loop
      vertex 0 0 17.5
      vertex 1.2 0 16.3
      vertex 1.95 0 17.5
    endloop
  endfacet
  facet normal 0 -1 0
    outer loop
      vertex 0 0 17.5
      vertex 1.2 0 11.4
      vertex 1.2 0 16.3
    endloop
  endfacet
  facet normal 0 -1 0
    outer loop
      vertex 0 0 9.84853
      vertex 1.2 0 11.4
      vertex 0 0 17.5
    endloop
  endfacet
  facet normal 0 -1 0
    outer loop
      vertex 0.848528 0 9
      vertex 1.2 0 11.4
      vertex 0 0 9.84853
    endloop
  endfacet
  facet normal 0 -1 -0
    outer loop
      vertex 1.2 0 11.4
      vertex 0.848528 0 9
      vertex 1.55 0 11.4
    endloop
  endfacet
  facet normal 0 -1 0
    outer loop
      vertex 1.55 0 0
      vertex 0 0 8.15147
      vertex 0 0 0
    endloop
  endfacet
  facet normal 0 -1 0
    outer loop
      vertex 0 0 8.15147
      vertex 1.55 0 0
      vertex 0.848528 0 9
    endloop
  endfacet
  facet normal 0 -1 0
    outer loop
      vertex 0.848528 0 9
      vertex 1.55 0 0
      vertex 1.55 0 11.4
    endloop
  endfacet
  facet normal 0 -1 -0
    outer loop
      vertex 1.95 0 17.5
      vertex 1.2 0 16.3
      vertex 1.95 0 16.3
    endloop
  endfacet
  facet normal 1 -0 0
    outer loop
      vertex 1.2 0 16.3
      vertex 1.2 10 11.4
      vertex 1.2 10 16.3
    endloop
  endfacet
  facet normal 1 0 0
    outer loop
      vertex 1.2 10 11.4
      vertex 1.2 0 16.3
      vertex 1.2 0 11.4
    endloop
  endfacet
  facet normal 0 0 -1
    outer loop
      vertex 1.95 0 16.3
      vertex 1.87393 1 16.3
      vertex 1.95 1 16.3
    endloop
  endfacet
  facet normal 0 0 -1
    outer loop
      vertex 1.2 0 16.3
      vertex 1.87393 3 16.3
      vertex 1.87393 1 16.3
    endloop
  endfacet
  facet normal -0 0 -1
    outer loop
      vertex 1.87393 3 16.3
      vertex 1.2 0 16.3
      vertex 1.87393 7 16.3
    endloop
  endfacet
  facet normal 0 0 -1
    outer loop
      vertex 1.2 10 16.3
      vertex 1.87393 7 16.3
      vertex 1.2 0 16.3
    endloop
  endfacet
  facet normal 0 0 -1
    outer loop
      vertex 1.2 0 16.3
      vertex 1.87393 1 16.3
      vertex 1.95 0 16.3
    endloop
  endfacet
  facet normal 0 0 -1
    outer loop
      vertex 1.87393 3 16.3
      vertex 1.95 7 16.3
      vertex 1.95 3 16.3
    endloop
  endfacet
  facet normal -0 0 -1
    outer loop
      vertex 1.95 7 16.3
      vertex 1.87393 3 16.3
      vertex 1.87393 7 16.3
    endloop
  endfacet
  facet normal 0 0 -1
    outer loop
      vertex 1.87393 9 16.3
      vertex 1.95 10 16.3
      vertex 1.95 9 16.3
    endloop
  endfacet
  facet normal 0 0 -1
    outer loop
      vertex 1.87393 9 16.3
      vertex 1.2 10 16.3
      vertex 1.95 10 16.3
    endloop
  endfacet
  facet normal 0 0 -1
    outer loop
      vertex 1.87393 7 16.3
      vertex 1.2 10 16.3
      vertex 1.87393 9 16.3
    endloop
  endfacet
  facet normal -0 0 1
    outer loop
      vertex 1.2 10 11.4
      vertex 1.55 0 11.4
      vertex 1.55 10 11.4
    endloop
  endfacet
  facet normal 0 0 1
    outer loop
      vertex 1.55 0 11.4
      vertex 1.2 10 11.4
      vertex 1.2 0 11.4
    endloop
  endfacet
  facet normal 1 -0 0
    outer loop
      vertex 1.55 0 11.4
      vertex 1.55 10 0
      vertex 1.55 10 11.4
    endloop
  endfacet
  facet normal 1 0 0
    outer loop
      vertex 1.55 10 0
      vertex 1.55 0 11.4
      vertex 1.55 0 0
    endloop
  endfacet
  facet normal -1 0 0
    outer loop
      vertex 1.95 10 10.2
      vertex 1.95 9 15.4306
      vertex 1.95 10 17.5
    endloop
  endfacet
  facet normal -1 0 0
    outer loop
      vertex 1.95 10 10.2
      vertex 1.95 7 15.4306
      vertex 1.95 9 15.4306
    endloop
  endfacet
  facet normal -1 0 0
    outer loop
      vertex 1.95 7 15.4306
      vertex 1.95 3 15.4306
      vertex 1.95 7 17.5
    endloop
  endfacet
  facet normal -1 0 0
    outer loop
      vertex 1.95 10 10.2
      vertex 1.95 3 15.4306
      vertex 1.95 7 15.4306
    endloop
  endfacet
  facet normal -1 0 0
    outer loop
      vertex 1.95 0 10.2
      vertex 1.95 3 15.4306
      vertex 1.95 10 10.2
    endloop
  endfacet
  facet normal -1 -0 0
    outer loop
      vertex 1.95 3 15.4306
      vertex 1.95 0 10.2
      vertex 1.95 1 15.4306
    endloop
  endfacet
  facet normal -1 0 0
    outer loop
      vertex 1.95 0 17.5
      vertex 1.95 1 15.4306
      vertex 1.95 0 10.2
    endloop
  endfacet
  facet normal -1 0 0
    outer loop
      vertex 1.95 1 15.4306
      vertex 1.95 0 17.5
      vertex 1.95 1 17.5
    endloop
  endfacet
  facet normal -1 -0 0
    outer loop
      vertex 1.95 10 17.5
      vertex 1.95 9 15.4306
      vertex 1.95 9 17.5
    endloop
  endfacet
  facet normal -1 -0 0
    outer loop
      vertex 1.95 7 17.5
      vertex 1.95 3 15.4306
      vertex 1.95 3 17.5
    endloop
  endfacet
  facet normal 1 0 0
    outer loop
      vertex 3.15 10 17.5
      vertex 3.15 9 15.483
      vertex 3.15 10 10.2
    endloop
  endfacet
  facet normal 1 0 0
    outer loop
      vertex 3.15 10 17.5
      vertex 3.15 7 15.483
      vertex 3.15 9 15.483
    endloop
  endfacet
  facet normal 1 0 0
    outer loop
      vertex 3.15 7 15.483
      vertex 3.15 3 15.483
      vertex 3.15 7 9
    endloop
  endfacet
  facet normal 1 0 0
    outer loop
      vertex 3.15 10 17.5
      vertex 3.15 3 15.483
      vertex 3.15 7 15.483
    endloop
  endfacet
  facet normal 1 -0 0
    outer loop
      vertex 3.15 0 17.5
      vertex 3.15 3 15.483
      vertex 3.15 10 17.5
    endloop
  endfacet
  facet normal 1 0 0
    outer loop
      vertex 3.15 3 15.483
      vertex 3.15 0 17.5
      vertex 3.15 1 15.483
    endloop
  endfacet
  facet normal 1 0 0
    outer loop
      vertex 3.15 0 10.2
      vertex 3.15 1 15.483
      vertex 3.15 0 17.5
    endloop
  endfacet
  facet normal 1 0 0
    outer loop
      vertex 3.15 1 15.483
      vertex 3.15 0 10.2
      vertex 3.15 1 9.2
    endloop
  endfacet
  facet normal 1 0 0
    outer loop
      vertex 3.15 10 10.2
      vertex 3.15 9 15.483
      vertex 3.15 9 9.2
    endloop
  endfacet
  facet normal 1 0 0
    outer loop
      vertex 3.15 7 9
      vertex 3.15 3 15.483
      vertex 3.15 3 9
    endloop
  endfacet
  facet normal 0 1 0
    outer loop
      vertex 3.15 10 17.5
      vertex 3.15 10 10.2
      vertex 1.95 10 17.5
    endloop
  endfacet
  facet normal 0 1 0
    outer loop
      vertex 1.95 10 17.5
      vertex 3.15 10 10.2
      vertex 1.95 10 10.2
    endloop
  endfacet
  facet normal 0 -1 0
    outer loop
      vertex 1.95 0 10.2
      vertex 3.15 0 17.5
      vertex 1.95 0 17.5
    endloop
  endfacet
  facet normal 0 -1 0
    outer loop
      vertex 3.15 0 10.2
      vertex 3.15 0 17.5
      vertex 1.95 0 10.2
    endloop
  endfacet
  facet normal -0.707107 -3.38183e-07 -0.707107
    outer loop
      vertex 2.95 1 9.2
      vertex 1.95 0 10.2
      vertex 2.45149 1 9.69851
    endloop
  endfacet
  facet normal -0.707107 -0 -0.707107
    outer loop
      vertex 3.15 7 9
      vertex 3.15 3 9
      vertex 2.45149 7 9.69851
    endloop
  endfacet
  facet normal -0.707107 3.38183e-07 -0.707107
    outer loop
      vertex 2.45149 9 9.69851
      vertex 1.95 10 10.2
      vertex 2.95 9 9.2
    endloop
  endfacet
  facet normal -0.707107 0 -0.707107
    outer loop
      vertex 2.45149 7 9.69851
      vertex 1.95 10 10.2
      vertex 2.45149 9 9.69851
    endloop
  endfacet
  facet normal -0.707107 0 -0.707107
    outer loop
      vertex 2.45149 3 9.69851
      vertex 2.45149 7 9.69851
      vertex 3.15 3 9
    endloop
  endfacet
  facet normal -0.707107 0 -0.707107
    outer loop
      vertex 2.45149 3 9.69851
      vertex 1.95 10 10.2
      vertex 2.45149 7 9.69851
    endloop
  endfacet
  facet normal -0.707107 0 -0.707107
    outer loop
      vertex 1.95 0 10.2
      vertex 2.45149 3 9.69851
      vertex 2.45149 1 9.69851
    endloop
  endfacet
  facet normal -0.707107 0 -0.707107
    outer loop
      vertex 2.45149 3 9.69851
      vertex 1.95 0 10.2
      vertex 1.95 10 10.2
    endloop
  endfacet
  facet normal 0 -0.707107 -0.707107
    outer loop
      vertex 2.95 1 9.2
      vertex 3.15 0 10.2
      vertex 1.95 0 10.2
    endloop
  endfacet
  facet normal 0 -0.707107 -0.707107
    outer loop
      vertex 3.15 0 10.2
      vertex 2.95 1 9.2
      vertex 3.15 1 9.2
    endloop
  endfacet
  facet normal 0 0.707106 -0.707107
    outer loop
      vertex 2.95 9 9.2
      vertex 3.15 10 10.2
      vertex 3.15 9 9.2
    endloop
  endfacet
  facet normal 0 0.707106 -0.707107
    outer loop
      vertex 3.15 10 10.2
      vertex 2.95 9 9.2
      vertex 1.95 10 10.2
    endloop
  endfacet
  facet normal -0.996195 0 -0.0871557
    outer loop
      vertex 3.16927 1 1.49429
      vertex 3.3 3 0
      vertex 3.3 1 0
    endloop
  endfacet
  facet normal -0.996195 -5.61204e-08 -0.0871557
    outer loop
      vertex 3.3 3 0
      vertex 3.16927 1 1.49429
      vertex 2.45149 3 9.69851
    endloop
  endfacet
  facet normal -0.996195 -0 -0.0871558
    outer loop
      vertex 2.45149 3 9.69851
      vertex 3.16927 1 1.49429
      vertex 2.45149 1 9.69851
    endloop
  endfacet
  facet normal -0.996195 0 -0.0871558
    outer loop
      vertex 1.95 1 15.4306
      vertex 1.87393 3 16.3
      vertex 1.95 3 15.4306
    endloop
  endfacet
  facet normal -0.996195 -0 -0.0871558
    outer loop
      vertex 1.87393 3 16.3
      vertex 1.95 1 15.4306
      vertex 1.87393 1 16.3
    endloop
  endfacet
  facet normal -0.996195 0 -0.0871557
    outer loop
      vertex 3.3 7 0
      vertex 3.16927 9 1.49429
      vertex 3.3 9 0
    endloop
  endfacet
  facet normal -0.996195 5.61204e-08 -0.0871557
    outer loop
      vertex 2.45149 7 9.69851
      vertex 3.16927 9 1.49429
      vertex 3.3 7 0
    endloop
  endfacet
  facet normal -0.996195 0 -0.0871558
    outer loop
      vertex 3.16927 9 1.49429
      vertex 2.45149 7 9.69851
      vertex 2.45149 9 9.69851
    endloop
  endfacet
  facet normal -0.996195 0 -0.0871558
    outer loop
      vertex 1.95 7 15.4306
      vertex 1.87393 9 16.3
      vertex 1.95 9 15.4306
    endloop
  endfacet
  facet normal -0.996195 -0 -0.0871558
    outer loop
      vertex 1.87393 9 16.3
      vertex 1.95 7 15.4306
      vertex 1.87393 7 16.3
    endloop
  endfacet
  facet normal 0.996195 -5.95435e-07 0.0871558
    outer loop
      vertex 3.15 3 15.483
      vertex 4.3647 2.68137 1.59888
      vertex 4.50458 3 0
    endloop
  endfacet
  facet normal 0.996195 -0 0.0871557
    outer loop
      vertex 3.15 1 15.483
      vertex 4.3647 2.68137 1.59888
      vertex 3.15 3 15.483
    endloop
  endfacet
  facet normal 0.996195 0 0.0871557
    outer loop
      vertex 4.3647 2.68137 1.59888
      vertex 3.15 1 15.483
      vertex 4.3647 1 1.59888
    endloop
  endfacet
  facet normal 0.996195 0 0.0871559
    outer loop
      vertex 4.50458 3 0
      vertex 4.3647 2.68137 1.59888
      vertex 4.50458 2.68137 0
    endloop
  endfacet
  facet normal 0.996195 0 0.0871557
    outer loop
      vertex 3.15 9 15.483
      vertex 4.3647 7.31863 1.59888
      vertex 4.3647 9 1.59888
    endloop
  endfacet
  facet normal 0.996195 -0 0.0871557
    outer loop
      vertex 3.15 7 15.483
      vertex 4.3647 7.31863 1.59888
      vertex 3.15 9 15.483
    endloop
  endfacet
  facet normal 0.996195 5.95435e-07 0.0871558
    outer loop
      vertex 4.50458 7 0
      vertex 4.3647 7.31863 1.59888
      vertex 3.15 7 15.483
    endloop
  endfacet
  facet normal 0.996195 0 0.0871559
    outer loop
      vertex 4.3647 7.31863 1.59888
      vertex 4.50458 7 0
      vertex 4.50458 7.31863 0
    endloop
  endfacet
  facet normal 0 -1 -0
    outer loop
      vertex 1.95 1 17.5
      vertex 1.95 1 16.3
      vertex 1.95 1 15.4306
    endloop
  endfacet
  facet normal 0 -1 0
    outer loop
      vertex 1.87393 1 16.3
      vertex 1.95 1 15.4306
      vertex 1.95 1 16.3
    endloop
  endfacet
  facet normal 0 -1 0
    outer loop
      vertex 3.16927 1 1.49429
      vertex 3.15 1 9.2
      vertex 2.95 1 9.2
    endloop
  endfacet
  facet normal 0 -1 0
    outer loop
      vertex 3.16927 1 1.49429
      vertex 2.95 1 9.2
      vertex 2.45149 1 9.69851
    endloop
  endfacet
  facet normal 0 -1 0
    outer loop
      vertex 3.15 1 9.2
      vertex 3.16927 1 1.49429
      vertex 4.3647 1 1.59888
    endloop
  endfacet
  facet normal 0 -1 0
    outer loop
      vertex 3.15 1 15.483
      vertex 3.15 1 9.2
      vertex 4.3647 1 1.59888
    endloop
  endfacet
  facet normal 0 1 0
    outer loop
      vertex 1.95 9 16.3
      vertex 1.95 9 15.4306
      vertex 1.87393 9 16.3
    endloop
  endfacet
  facet normal 0 1 -0
    outer loop
      vertex 1.95 9 15.4306
      vertex 1.95 9 16.3
      vertex 1.95 9 17.5
    endloop
  endfacet
  facet normal 0 1 -0
    outer loop
      vertex 3.16927 9 1.49429
      vertex 3.15 9 9.2
      vertex 4.3647 9 1.59888
    endloop
  endfacet
  facet normal 0 1 0
    outer loop
      vertex 4.3647 9 1.59888
      vertex 3.15 9 9.2
      vertex 3.15 9 15.483
    endloop
  endfacet
  facet normal 0 1 0
    outer loop
      vertex 3.15 9 9.2
      vertex 3.16927 9 1.49429
      vertex 2.95 9 9.2
    endloop
  endfacet
  facet normal 0 1 0
    outer loop
      vertex 2.95 9 9.2
      vertex 3.16927 9 1.49429
      vertex 2.45149 9 9.69851
    endloop
  endfacet
  facet normal 0 1 -0
    outer loop
      vertex 3.3 3 0
      vertex 3.15 3 9
      vertex 4.50458 3 0
    endloop
  endfacet
  facet normal 0 1 0
    outer loop
      vertex 3.15 3 9
      vertex 3.3 3 0
      vertex 2.45149 3 9.69851
    endloop
  endfacet
  facet normal 0 1 0
    outer loop
      vertex 3.15 3 15.483
      vertex 4.50458 3 0
      vertex 3.15 3 9
    endloop
  endfacet
  facet normal 0 1 0
    outer loop
      vertex 1.95 3 16.3
      vertex 1.95 3 15.4306
      vertex 1.87393 3 16.3
    endloop
  endfacet
  facet normal 0 1 -0
    outer loop
      vertex 1.95 3 15.4306
      vertex 1.95 3 16.3
      vertex 1.95 3 17.5
    endloop
  endfacet
  facet normal 0 -1 0
    outer loop
      vertex 2.45149 7 9.69851
      vertex 3.3 7 0
      vertex 3.15 7 9
    endloop
  endfacet
  facet normal 0 -1 0
    outer loop
      vertex 4.50458 7 0
      vertex 3.15 7 9
      vertex 3.3 7 0
    endloop
  endfacet
  facet normal 0 -1 0
    outer loop
      vertex 3.15 7 9
      vertex 4.50458 7 0
      vertex 3.15 7 15.483
    endloop
  endfacet
  facet normal 0 -1 0
    outer loop
      vertex 1.87393 7 16.3
      vertex 1.95 7 15.4306
      vertex 1.95 7 16.3
    endloop
  endfacet
  facet normal 0 -1 -0
    outer loop
      vertex 1.95 7 17.5
      vertex 1.95 7 16.3
      vertex 1.95 7 15.4306
    endloop
  endfacet
  facet normal 0 0 -1
    outer loop
      vertex 4.50458 7 0
      vertex 3.3 7 0
      vertex 4.50458 7.31863 0
    endloop
  endfacet
  facet normal 0 0 -1
    outer loop
      vertex 8.41948 -1.5 0
      vertex 8.3191 1.75 0
      vertex 8.41948 1.75 0
    endloop
  endfacet
  facet normal 0 0 -1
    outer loop
      vertex 3.3 1 0
      vertex 8.3191 1.75 0
      vertex 8.41948 -1.5 0
    endloop
  endfacet
  facet normal -0 0 -1
    outer loop
      vertex 8.3191 1.75 0
      vertex 3.3 1 0
      vertex 4.50458 2.68137 0
    endloop
  endfacet
  facet normal 0 0 -1
    outer loop
      vertex 3.3 3 0
      vertex 4.50458 2.68137 0
      vertex 3.3 1 0
    endloop
  endfacet
  facet normal 0 0 -1
    outer loop
      vertex 4.50458 2.68137 0
      vertex 3.3 3 0
      vertex 4.50458 3 0
    endloop
  endfacet
  facet normal 0 0 -1
    outer loop
      vertex 8.41948 1.75 0
      vertex 9.62406 -1.5 0
      vertex 8.41948 -1.5 0
    endloop
  endfacet
  facet normal 0 0 -1
    outer loop
      vertex 9.62406 -1.5 0
      vertex 8.41948 1.75 0
      vertex 9.62406 11.5 0
    endloop
  endfacet
  facet normal 0 0 -1
    outer loop
      vertex 8.41948 8.25 0
      vertex 9.62406 11.5 0
      vertex 8.41948 1.75 0
    endloop
  endfacet
  facet normal 0 0 -1
    outer loop
      vertex 8.41948 8.25 0
      vertex 8.41948 11.5 0
      vertex 9.62406 11.5 0
    endloop
  endfacet
  facet normal 0 0 -1
    outer loop
      vertex 8.3191 8.25 0
      vertex 8.41948 11.5 0
      vertex 8.41948 8.25 0
    endloop
  endfacet
  facet normal 0 0 -1
    outer loop
      vertex 3.3 9 0
      vertex 8.3191 8.25 0
      vertex 4.50458 7.31863 0
    endloop
  endfacet
  facet normal 0 0 -1
    outer loop
      vertex 3.3 9 0
      vertex 4.50458 7.31863 0
      vertex 3.3 7 0
    endloop
  endfacet
  facet normal 0 0 -1
    outer loop
      vertex 8.3191 8.25 0
      vertex 3.3 9 0
      vertex 8.41948 11.5 0
    endloop
  endfacet
  facet normal 0.996195 0 0.0871557
    outer loop
      vertex 8.44297 1 13.5
      vertex 8.44297 -1.5 13.5
      vertex 9.27098 1 4.03576
    endloop
  endfacet
  facet normal 0.996195 0 0.0871557
    outer loop
      vertex 9.27098 9 4.03576
      vertex 8.44297 11.5 13.5
      vertex 8.44297 9 13.5
    endloop
  endfacet
  facet normal 0.996195 -3.83213e-08 0.0871557
    outer loop
      vertex 8.44297 11.5 13.5
      vertex 9.27098 9 4.03576
      vertex 9.62406 11.5 0
    endloop
  endfacet
  facet normal 0.996195 -0 0.0871558
    outer loop
      vertex 9.27098 1 4.03576
      vertex 9.62406 11.5 0
      vertex 9.27098 9 4.03576
    endloop
  endfacet
  facet normal 0.996195 0 0.0871558
    outer loop
      vertex 9.27098 1 4.03576
      vertex 9.62406 -1.5 0
      vertex 9.62406 11.5 0
    endloop
  endfacet
  facet normal 0.996195 3.83213e-08 0.0871557
    outer loop
      vertex 9.62406 -1.5 0
      vertex 9.27098 1 4.03576
      vertex 8.44297 -1.5 13.5
    endloop
  endfacet
  facet normal 0 1 0
    outer loop
      vertex 8.41948 11.5 0
      vertex 8.44297 11.5 13.5
      vertex 9.62406 11.5 0
    endloop
  endfacet
  facet normal 0 1 0
    outer loop
      vertex 8.44297 11.5 13.5
      vertex 8.41948 11.5 0
      vertex 7.23838 11.5 13.5
    endloop
  endfacet
  facet normal -0.438482 -0.897921 -0.0383622
    outer loop
      vertex 3.3 1 0
      vertex 8.24986 -1.5 1.93879
      vertex 3.16927 1 1.49429
    endloop
  endfacet
  facet normal -0.438482 -0.897921 -0.0383622
    outer loop
      vertex 8.24986 -1.5 1.93879
      vertex 3.3 1 0
      vertex 8.41948 -1.5 0
    endloop
  endfacet
  facet normal -0.438482 0.897921 -0.0383622
    outer loop
      vertex 7.23838 11.5 13.5
      vertex 6.95481 10.8627 1.82548
      vertex 5.93342 10.8627 13.5
    endloop
  endfacet
  facet normal -0.438482 0.897921 -0.0383622
    outer loop
      vertex 8.41948 11.5 0
      vertex 6.95481 10.8627 1.82548
      vertex 7.23838 11.5 13.5
    endloop
  endfacet
  facet normal -0.438482 0.897921 -0.0383624
    outer loop
      vertex 3.3 9 0
      vertex 6.95481 10.8627 1.82548
      vertex 8.41948 11.5 0
    endloop
  endfacet
  facet normal -0.438482 0.897921 -0.0383622
    outer loop
      vertex 6.95481 10.8627 1.82548
      vertex 3.3 9 0
      vertex 3.16927 9 1.49429
    endloop
  endfacet
  facet normal 0 -1 0
    outer loop
      vertex 8.24986 -1.5 1.93879
      vertex 8.44297 -1.5 13.5
      vertex 7.23838 -1.5 13.5
    endloop
  endfacet
  facet normal 0 -1 0
    outer loop
      vertex 9.62406 -1.5 0
      vertex 8.24986 -1.5 1.93879
      vertex 8.41948 -1.5 0
    endloop
  endfacet
  facet normal 0 -1 0
    outer loop
      vertex 8.24986 -1.5 1.93879
      vertex 9.62406 -1.5 0
      vertex 8.44297 -1.5 13.5
    endloop
  endfacet
  facet normal -0.996195 -0 -0.0871556
    outer loop
      vertex 8.41948 8.25 0
      vertex 8.41948 1.75 0
      vertex 8.24986 8.25 1.93879
    endloop
  endfacet
  facet normal -0.996195 1.20654e-07 -0.0871557
    outer loop
      vertex 8.24986 10.3 1.93879
      vertex 8.07555 9 3.93118
      vertex 7.23838 10.3 13.5
    endloop
  endfacet
  facet normal -0.996195 0 -0.0871558
    outer loop
      vertex 8.24986 8.25 1.93879
      vertex 8.07555 9 3.93118
      vertex 8.24986 10.3 1.93879
    endloop
  endfacet
  facet normal -0.996195 0 -0.0871556
    outer loop
      vertex 8.24986 1.75 1.93879
      vertex 8.24986 8.25 1.93879
      vertex 8.41948 1.75 0
    endloop
  endfacet
  facet normal -0.996195 -0 -0.0871558
    outer loop
      vertex 8.24986 8.25 1.93879
      vertex 8.24986 1.75 1.93879
      vertex 8.07555 9 3.93118
    endloop
  endfacet
  facet normal -0.996195 0 -0.0871558
    outer loop
      vertex 8.24986 1.75 1.93879
      vertex 8.07555 1 3.93118
      vertex 8.07555 9 3.93118
    endloop
  endfacet
  facet normal -0.996195 0 -0.0871558
    outer loop
      vertex 8.24986 -1.5 1.93879
      vertex 8.07555 1 3.93118
      vertex 8.24986 1.75 1.93879
    endloop
  endfacet
  facet normal -0.996195 -6.27403e-08 -0.0871557
    outer loop
      vertex 7.23838 -1.5 13.5
      vertex 8.07555 1 3.93118
      vertex 8.24986 -1.5 1.93879
    endloop
  endfacet
  facet normal -0.996195 0 -0.0871557
    outer loop
      vertex 8.07555 1 3.93118
      vertex 7.23838 -1.5 13.5
      vertex 7.23838 1 13.5
    endloop
  endfacet
  facet normal -0.996195 -0 -0.0871557
    outer loop
      vertex 7.23838 10.3 13.5
      vertex 8.07555 9 3.93118
      vertex 7.23838 9 13.5
    endloop
  endfacet
  facet normal 0.237146 0.971252 0.0207476
    outer loop
      vertex 4.50458 2.68137 0
      vertex 8.15024 1.75 1.93007
      vertex 8.3191 1.75 0
    endloop
  endfacet
  facet normal 0.237146 0.971252 0.0207476
    outer loop
      vertex 8.15024 1.75 1.93007
      vertex 4.50458 2.68137 0
      vertex 4.3647 2.68137 1.59888
    endloop
  endfacet
  facet normal 0.237146 -0.971252 0.0207476
    outer loop
      vertex 4.50458 7.31863 0
      vertex 8.15024 8.25 1.93007
      vertex 4.3647 7.31863 1.59888
    endloop
  endfacet
  facet normal 0.237146 -0.971252 0.0207476
    outer loop
      vertex 8.15024 8.25 1.93007
      vertex 4.50458 7.31863 0
      vertex 8.3191 8.25 0
    endloop
  endfacet
  facet normal 0 -1 0
    outer loop
      vertex 8.3191 8.25 0
      vertex 8.24986 8.25 1.93879
      vertex 8.15024 8.25 1.93007
    endloop
  endfacet
  facet normal 0 -1 0
    outer loop
      vertex 8.24986 8.25 1.93879
      vertex 8.3191 8.25 0
      vertex 8.41948 8.25 0
    endloop
  endfacet
  facet normal 0 1 -0
    outer loop
      vertex 8.3191 1.75 0
      vertex 8.24986 1.75 1.93879
      vertex 8.41948 1.75 0
    endloop
  endfacet
  facet normal 0 1 0
    outer loop
      vertex 8.24986 1.75 1.93879
      vertex 8.3191 1.75 0
      vertex 8.15024 1.75 1.93007
    endloop
  endfacet
  facet normal -0.0871557 0 0.996195
    outer loop
      vertex 6.95481 10.8627 1.82548
      vertex 4.3647 9 1.59888
      vertex 6.95481 10.3 1.82548
    endloop
  endfacet
  facet normal -0.0871558 1.32554e-07 0.996195
    outer loop
      vertex 4.3647 9 1.59888
      vertex 6.95481 10.8627 1.82548
      vertex 3.16927 9 1.49429
    endloop
  endfacet
  facet normal -0.0871556 0 0.996195
    outer loop
      vertex 8.24986 10.3 1.93879
      vertex 8.15024 8.25 1.93007
      vertex 8.24986 8.25 1.93879
    endloop
  endfacet
  facet normal -0.0871557 6.24181e-09 0.996195
    outer loop
      vertex 6.95481 10.3 1.82548
      vertex 8.15024 8.25 1.93007
      vertex 8.24986 10.3 1.93879
    endloop
  endfacet
  facet normal -0.0871557 3.79723e-09 0.996195
    outer loop
      vertex 4.3647 9 1.59888
      vertex 8.15024 8.25 1.93007
      vertex 6.95481 10.3 1.82548
    endloop
  endfacet
  facet normal -0.0871557 0 0.996195
    outer loop
      vertex 8.15024 8.25 1.93007
      vertex 4.3647 9 1.59888
      vertex 4.3647 7.31863 1.59888
    endloop
  endfacet
  facet normal -0.0871556 0 0.996195
    outer loop
      vertex 8.15024 1.75 1.93007
      vertex 8.24986 -1.5 1.93879
      vertex 8.24986 1.75 1.93879
    endloop
  endfacet
  facet normal -0.0871557 0 0.996195
    outer loop
      vertex 4.3647 1 1.59888
      vertex 8.15024 1.75 1.93007
      vertex 4.3647 2.68137 1.59888
    endloop
  endfacet
  facet normal -0.0871557 -4.06402e-09 0.996195
    outer loop
      vertex 8.15024 1.75 1.93007
      vertex 4.3647 1 1.59888
      vertex 8.24986 -1.5 1.93879
    endloop
  endfacet
  facet normal -0.0871558 -1.49333e-07 0.996195
    outer loop
      vertex 8.24986 -1.5 1.93879
      vertex 4.3647 1 1.59888
      vertex 3.16927 1 1.49429
    endloop
  endfacet
  facet normal 0 -1 0
    outer loop
      vertex 6.95481 10.3 1.82548
      vertex 7.23838 10.3 13.5
      vertex 5.93342 10.3 13.5
    endloop
  endfacet
  facet normal 0 -1 -0
    outer loop
      vertex 7.23838 10.3 13.5
      vertex 6.95481 10.3 1.82548
      vertex 8.24986 10.3 1.93879
    endloop
  endfacet
  facet normal -0.996195 0 -0.0871557
    outer loop
      vertex 6.95481 10.3 1.82548
      vertex 5.93342 10.8627 13.5
      vertex 6.95481 10.8627 1.82548
    endloop
  endfacet
  facet normal -0.996195 -0 -0.0871557
    outer loop
      vertex 5.93342 10.8627 13.5
      vertex 6.95481 10.3 1.82548
      vertex 5.93342 10.3 13.5
    endloop
  endfacet
  facet normal -0.0871559 0 0.996195
    outer loop
      vertex 8.07555 9 3.93118
      vertex 9.27098 1 4.03576
      vertex 9.27098 9 4.03576
    endloop
  endfacet
  facet normal -0.0871559 0 0.996195
    outer loop
      vertex 9.27098 1 4.03576
      vertex 8.07555 9 3.93118
      vertex 8.07555 1 3.93118
    endloop
  endfacet
  facet normal 0 1 0
    outer loop
      vertex 8.07555 1 3.93118
      vertex 8.44297 1 13.5
      vertex 9.27098 1 4.03576
    endloop
  endfacet
  facet normal 0 1 0
    outer loop
      vertex 8.44297 1 13.5
      vertex 8.07555 1 3.93118
      vertex 7.23838 1 13.5
    endloop
  endfacet
  facet normal 0 -1 0
    outer loop
      vertex 8.07555 9 3.93118
      vertex 8.44297 9 13.5
      vertex 7.23838 9 13.5
    endloop
  endfacet
  facet normal 0 -1 -0
    outer loop
      vertex 8.44297 9 13.5
      vertex 8.07555 9 3.93118
      vertex 9.27098 9 4.03576
    endloop
  endfacet
  facet normal -0 0 1
    outer loop
      vertex 5.93342 10.8627 13.5
      vertex 7.23838 10.3 13.5
      vertex 7.23838 11.5 13.5
    endloop
  endfacet
  facet normal 0 0 1
    outer loop
      vertex 7.23838 10.3 13.5
      vertex 5.93342 10.8627 13.5
      vertex 5.93342 10.3 13.5
    endloop
  endfacet
  facet normal 0 0 1
    outer loop
      vertex 7.23838 10.3 13.5
      vertex 8.44297 11.5 13.5
      vertex 7.23838 11.5 13.5
    endloop
  endfacet
  facet normal 0 0 1
    outer loop
      vertex 8.44297 11.5 13.5
      vertex 7.23838 10.3 13.5
      vertex 8.44297 9 13.5
    endloop
  endfacet
  facet normal 0 0 1
    outer loop
      vertex 8.44297 9 13.5
      vertex 7.23838 10.3 13.5
      vertex 7.23838 9 13.5
    endloop
  endfacet
  facet normal -0 0 1
    outer loop
      vertex 7.23838 1 13.5
      vertex 8.44297 -1.5 13.5
      vertex 8.44297 1 13.5
    endloop
  endfacet
  facet normal 0 0 1
    outer loop
      vertex 8.44297 -1.5 13.5
      vertex 7.23838 1 13.5
      vertex 7.23838 -1.5 13.5
    endloop
  endfacet
  facet normal -0.707107 0 -0.707107
    outer loop
      vertex 0.848528 0 9
      vertex 0 10 9.84853
      vertex 0.848528 10 9
    endloop
  endfacet
  facet normal -0.707107 -0 -0.707107
    outer loop
      vertex 0 10 9.84853
      vertex 0.848528 0 9
      vertex 0 0 9.84853
    endloop
  endfacet
  facet normal -0.707107 0 0.707106
    outer loop
      vertex 0 0 8.15147
      vertex 0.848528 10 9
      vertex 0 10 8.15147
    endloop
  endfacet
  facet normal -0.707107 0 0.707106
    outer loop
      vertex 0.848528 10 9
      vertex 0 0 8.15147
      vertex 0.848528 0 9
    endloop
  endfacet
endsolid OpenSCAD_Model
